<?xml version="1.0" encoding="utf-8"?>
<!-- Generator: Adobe Illustrator 24.0.1, SVG Export Plug-In . SVG Version: 6.00 Build 0)  -->
<svg version="1.1" id="Capa_1" xmlns="http://www.w3.org/2000/svg" xmlns:xlink="http://www.w3.org/1999/xlink" x="0px" y="0px"
	 viewBox="0 0 60 45" style="enable-background:new 0 0 60 45;" xml:space="preserve">
<style type="text/css">
	.st0{clip-path:url(#SVGID_2_);}
	.st1{fill:#FFFFFF;}
</style>
<g>
	<g>
		<defs>
			<rect id="SVGID_1_" y="0" width="60" height="45"/>
		</defs>
		<clipPath id="SVGID_2_">
			<use xlink:href="#SVGID_1_"  style="overflow:visible;"/>
		</clipPath>
		<g class="st0">
			<path class="st1" d="M16.7,22.3v0.8c0,0.7,0.1,1.4,0.4,2s0.7,1.2,1.1,1.7c0.5,0.5,1.1,0.9,1.7,1.1c0.6,0.3,1.3,0.4,2,0.4h32.8
				c0.7,0,1.4-0.1,2-0.4s1.2-0.6,1.7-1.1s0.9-1.1,1.1-1.7c0.3-0.6,0.4-1.3,0.4-2V5.2c0-1.4-0.6-2.7-1.5-3.7c-1-1-2.3-1.5-3.7-1.5
				H5.2C3.8,0,2.5,0.6,1.5,1.5C0.6,2.5,0,3.8,0,5.2v34.5c0,1.4,0.6,2.7,1.5,3.7c1,1,2.3,1.5,3.7,1.5h49.5c1.4,0,2.7-0.6,3.7-1.5
				c1-1,1.5-2.3,1.5-3.7l0,0c0-0.7-0.1-1.4-0.4-2c-0.3-0.6-0.7-1.2-1.1-1.7c-0.5-0.5-1.1-0.9-1.7-1.1c-0.6-0.3-1.3-0.4-2-0.4H11.6
				c-0.2,0-0.5-0.1-0.6-0.2c-0.2-0.2-0.3-0.4-0.3-0.6v-22c0-0.1,0-0.2,0.1-0.3c0-0.1,0.1-0.2,0.2-0.3c0.1-0.1,0.2-0.1,0.3-0.2
				c0.1,0,0.2-0.1,0.3-0.1h36.6c0.1,0,0.2,0,0.3,0.1c0.1,0,0.2,0.1,0.3,0.2c0.1,0.1,0.1,0.2,0.2,0.3c0,0.1,0.1,0.2,0.1,0.3v4.7
				c0,0.2-0.1,0.5-0.3,0.6c-0.2,0.2-0.4,0.3-0.6,0.3L22,17.1c-0.7,0-1.4,0.1-2,0.4s-1.2,0.6-1.7,1.1s-0.9,1.1-1.1,1.7
				C16.9,21,16.7,21.7,16.7,22.3L16.7,22.3z"/>
		</g>
	</g>
</g>
</svg>
