<?xml version="1.0" encoding="utf-8"?>
<!-- Generator: Adobe Illustrator 24.0.1, SVG Export Plug-In . SVG Version: 6.00 Build 0)  -->
<svg version="1.1" id="Capa_1" xmlns="http://www.w3.org/2000/svg" xmlns:xlink="http://www.w3.org/1999/xlink" x="0px" y="0px"
	 viewBox="0 0 829.3 334.4" style="enable-background:new 0 0 829.3 334.4;" xml:space="preserve">
<style type="text/css">
	.st0{fill:#262626;stroke:#262626;stroke-width:10;stroke-miterlimit:10;}
	.st1{fill:#1D1D1B;}
	.st2{fill:#FFFFFF;}
	.st3{clip-path:url(#SVGID_2_);}
	.st4{fill-rule:evenodd;clip-rule:evenodd;fill:#262626;}
	.st5{fill:#262626;}
</style>
<title>full-logo</title>
<g>
	<g id="Capa_1_1_">
		<path class="st0" d="M397,245.6h-14.7v-73.4h-58.8v73.4h-29.4V84h29.4v58.8h58.8V84h29.4v161.6H397z"/>
		<path class="st0" d="M590.8,245.6h-14.7v-58.8h-58.8v58.8H488V113.4h14.7V98.7h14.7V84h58.8v14.7h14.7v14.7h14.7v132.2H590.8z
			 M561.5,157.4h14.7v-29.4h-14.7v-14.7h-29.4v14.7h-14.7v29.4L561.5,157.4L561.5,157.4z"/>
		<path class="st0" d="M725.6,245.6H711V113.4h-44.1V84h117.5v29.4h-44.1v132.2H725.6z"/>
		<path class="st1" d="M233.4,83.9c0,0,9.1,2.4,11.3,11.2s-2.4,18.9-23.1,28s-18.4,20.6-22.8,29.8s-6.7,15.3,1.8,24.6
			s17.5,11.4,19.4,23.2s8.1,25.1,13.6,26s15.6,12,11.6,17.2s-46.8-10.9-48.8-13s-24.6-68.8-25.2-72.1s5.3-37,6-42
			s25.3-30.9,26.8-32.9S233.4,83.9,233.4,83.9z"/>
		<path class="st2" d="M228.8,76c0,0,13.2,5,15.5,14.9s-1.6,19.5-15.5,25.4s-23.2,13.6-23.2,17.7s-3.9,23.7-8.4,28.2s2,7,5.3,17
			s2.7,12.4,13.2,16.7s10.3,11.5,12.5,17.7s4.3,15.2,9.4,19.5s11.1,12.9,7.4,13.1s-45.9,4.2-54.7-9.6s-20.1-55.9-22.1-71.1
			s10-37.3,10-43s18-25.6,19-28.6S228.8,76,228.8,76z"/>
		<g>
			<defs>
				<path id="SVGID_1_" d="M246.5,71.6c0.6,2.9-11.9,33.2-18.5,36.5s-20.6,6.6-20.6,11s-2.9,4.4-3.4,10.7c-0.5,6.2-3.3,15-5.9,18.5
					s-3.6,6.2-3.4,8.8s-6.6,6.6,0.2,12.2s7,8.2,8.9,14.1s-1.1,13.7,1.8,14.3s16.3,9.9,16,12.6s6.4,16.5,9.4,18.6s5,2.3,11.7,8.5
					s11.1,11,11.1,11s-12.9,24.7-13.4,27.5s-21.5,27.4-41,32.8s-63.3,6.7-76.7,6S3.8,259,19.2,162.4c0,0-16.7-97.9,78-133.9
					S240,40.6,246.5,71.6z"/>
			</defs>
			<clipPath id="SVGID_2_">
				<use xlink:href="#SVGID_1_"  style="overflow:visible;"/>
			</clipPath>
			<g class="st3">
				<path class="st1" d="M279.3,165.5c-0.3-0.8-0.7-1.5-1.3-2c0-0.8,0-1.5,0-2.3c1.6-1.6,1.6-4.1,0-5.7c-0.1-0.1-0.2-0.2-0.4-0.3
					c-0.1-0.8-0.1-1.5-0.2-2.2c0.7-0.9,1-2.1,0.9-3.2c-0.2-1.1-0.7-2-1.6-2.7c-0.1-0.7-0.2-1.5-0.4-2.2c0.7-0.9,0.9-2.1,0.6-3.3
					c-0.2-1-0.9-1.9-1.8-2.5c-0.2-0.7-0.3-1.5-0.5-2.2c0.6-0.9,0.7-2,0.5-3.1c-0.3-1.1-1-2-2-2.5c-0.2-0.7-0.4-1.4-0.6-2.1
					c0.3-0.6,0.4-1.2,0.5-1.9c0-1.6-0.9-3-2.3-3.6c-0.2-0.7-0.5-1.3-0.7-2v-0.1c0.4-1,0.4-2.1-0.1-3.1c-0.4-1-1.2-1.7-2.2-2.1
					c-0.3-0.6-0.6-1.3-0.9-1.9c0.3-0.8,0.3-1.7,0.1-2.6c-0.4-1.3-1.4-2.2-2.7-2.7c-0.3-0.6-0.6-1.1-0.9-1.7c0.6-2.2-0.6-4.4-2.7-5
					c-0.1,0-0.1,0-0.2-0.1c-0.3-0.5-0.7-1.1-1-1.6c0.1-0.3,0.1-0.7,0.1-1v-0.1v-0.2c0-0.2-0.1-0.5-0.1-0.7c-0.4-1.5-1.7-2.6-3.2-2.8
					l-1-1.4c0-0.2,0-0.3,0.1-0.5c0.1-1.5-0.6-3-2-3.8c-0.5-0.3-1.1-0.5-1.7-0.6c-0.4-0.4-0.7-0.9-1.1-1.3c0.1-0.7,0-1.4-0.3-2.1
					c-0.5-1.3-1.7-2.2-3.1-2.4l-0.3-0.6l-0.7,0.3l-0.9-1c0-0.5,0-1-0.2-1.5c-0.5-1.7-2.1-2.9-3.9-2.9h-0.3l-1.1-1
					c0-1.2-0.4-2.3-1.3-3.2c-0.7-0.6-1.7-1-2.7-1c-0.2,0-0.4,0-0.6,0l-1.1-0.9c0-0.4-0.1-0.8-0.2-1.2c-0.4-1.2-1.4-2.2-2.6-2.6
					c-0.7-0.2-1.4-0.2-2.1-0.1l-1-0.8c0-0.3-0.1-0.7-0.2-1c-0.4-1.4-1.6-2.5-3.1-2.7c-0.6-0.1-1.3-0.1-1.9,0.1l-1.1-0.7
					c-0.1-0.5-0.2-1-0.5-1.4c-0.8-1.4-2.4-2.2-4-2.1c-0.4,0-0.8,0.1-1.1,0.3l-1.1-0.6c-0.3-1.5-1.4-2.7-2.9-3.2
					c-0.4-0.1-0.8-0.2-1.1-0.2c-0.6,0-1.2,0.1-1.8,0.4l-1.2-0.6c-0.2-0.6-0.5-1.2-0.9-1.7c-0.8-0.9-1.9-1.4-3-1.3
					c-0.7,0-1.4,0.2-2,0.5l-1.3-0.5c-0.6-2.1-2.9-3.3-5-2.7c-0.4,0.1-0.8,0.3-1.1,0.5l-1.4-0.4c-0.6-1.5-2.1-2.5-3.7-2.6h-0.1
					c-0.9,0-1.7,0.3-2.4,0.8l-1.5-0.4c-0.6-1.2-1.7-2.1-3.1-2.3c-1.1-0.1-2.2,0.2-3.1,0.9l-1.6-0.3c-0.6-1.1-1.8-1.9-3.1-2
					c-1.2-0.1-2.3,0.3-3.2,1.1l-1.8-0.2c-0.7-1-1.9-1.6-3.1-1.7c-1.1,0-2.2,0.4-3,1.3l-2.2-0.1c-0.4-0.5-1-0.9-1.6-1.1l-0.1-0.1
					l-0.4-0.2h-1.8l-0.2,0.1c-0.8,0.3-1.5,0.7-2.1,1.3l-2.3,0.1c-0.8-0.8-1.9-1.3-3.1-1.2c-1.1,0.1-2.1,0.6-2.8,1.4l-0.1,0.1
					l-2.2,0.2c-0.9-0.7-2-1-3.1-0.9c-1.1,0.1-2.1,0.7-2.8,1.6l-2.2,0.4c-0.7-0.5-1.5-0.8-2.4-0.8c-0.2,0-0.4,0-0.6,0
					c-1.2,0.2-2.3,0.9-2.9,1.9c-0.7,0.2-1.4,0.3-2,0.5c-0.6-0.4-1.4-0.6-2.1-0.6c-0.2,0-0.4,0-0.7,0c-1.2,0.2-2.2,0.9-2.8,1.8
					l-0.2,0.3c-0.7,0.2-1.3,0.4-1.9,0.6c-0.5-0.3-1.1-0.4-1.7-0.5c-1.4-0.1-2.8,0.5-3.6,1.7c-0.2,0.2-0.3,0.5-0.5,0.8l-1.8,0.7
					c-0.5-0.3-1.1-0.4-1.7-0.4c-0.3,0-0.6,0-0.8,0.1c-1.4,0.3-2.5,1.3-3,2.6c-0.6,0.2-1.1,0.5-1.6,0.7c-0.4-0.2-0.9-0.3-1.3-0.3
					c-1.5,0-2.9,0.7-3.7,2c-0.2,0.3-0.3,0.6-0.4,1l-1.5,0.8c-0.4-0.1-0.9-0.2-1.3-0.2c-2,0-3.7,1.4-4,3.3L93,63.5
					c-0.4-0.1-0.7-0.2-1.1-0.2c-2.1,0-3.9,1.6-4.1,3.7l-1.2,0.9c-0.3-0.1-0.7-0.1-1-0.1c-1.2,0-2.4,0.5-3.2,1.5
					c-0.6,0.7-0.9,1.6-0.9,2.4l-1.1,0.9c-0.3-0.1-0.5-0.1-0.8-0.1h-0.1c-1.5,0-2.8,0.9-3.5,2.2c-0.3,0.6-0.5,1.3-0.4,2.1l-0.9,0.8
					c-0.4-0.1-0.8-0.1-1.2,0c-1.5,0.2-2.8,1.2-3.3,2.7c-0.2,0.6-0.3,1.3-0.2,1.9L69.4,83c-0.4,0-0.7,0-1.1,0
					c-1.5,0.2-2.8,1.3-3.2,2.8c-0.2,0.7-0.3,1.5-0.1,2.2l-0.7,0.8c-0.4,0-0.8,0-1.2,0.1c-1.4,0.3-2.6,1.4-2.9,2.8
					c-0.2,0.8-0.2,1.6,0,2.3l-0.5,0.8l0,0c-1.3,0-2.6,0.7-3.4,1.8c-0.8,1.1-0.9,2.6-0.4,3.8c-0.2,0.3-0.3,0.5-0.5,0.8
					c-2.3,0.1-4,2.1-3.9,4.3c0,0.5,0.2,1,0.4,1.5l-0.4,0.8c-1.8,0.2-3.2,1.5-3.6,3.2c-0.2,1,0,2,0.5,2.9l-0.4,0.8
					c-0.1,0-0.2,0-0.3,0c-1.7,0.4-3,1.8-3.2,3.6c-0.1,0.9,0.2,1.9,0.7,2.7c-0.1,0.3-0.2,0.6-0.3,0.8c-2.2,0.5-3.6,2.7-3.1,4.9
					c0.1,0.3,0.1,0.5,0.3,0.8c0.1,0.3,0.3,0.6,0.5,0.8c-0.1,0.3-0.2,0.6-0.3,0.9c-1,0.3-1.8,1-2.4,1.9c-0.6,1.1-0.7,2.4-0.3,3.5
					c0.2,0.5,0.4,0.9,0.8,1.2c-0.1,0.4-0.2,0.7-0.3,1.1c-1.4,0.5-2.4,1.7-2.6,3.1c-0.2,1.3,0.3,2.6,1.2,3.5
					c-0.1,0.4-0.1,0.7-0.2,1.1c-1.2,0.6-2.1,1.7-2.3,3.1c-0.2,1.4,0.3,2.7,1.3,3.6c0,0.4-0.1,0.9-0.1,1.3c-0.9,0.6-1.6,1.4-1.9,2.4
					l-0.1,0.2v2l0.3,0.3c0.3,0.7,0.7,1.3,1.2,1.8c0,0.8-0.1,1.5-0.1,2.3c-0.6,0.5-1.1,1.2-1.4,2l-0.1,0.2v1.6l0.2,0.4
					c0,0.1,0.1,0.3,0.2,0.4c0.2,0.6,0.6,1,1,1.5c0,0.7,0,1.5,0.1,2.2c-0.6,0.6-1,1.5-1.2,2.4c-0.2,1.4,0.4,2.8,1.5,3.7
					c0.1,0.7,0.1,1.5,0.2,2.2c-0.7,0.9-1.1,2-0.9,3.2c0.1,1.1,0.8,2.2,1.7,2.8c0.1,0.7,0.2,1.4,0.4,2.2c-0.6,0.9-0.9,1.9-0.7,3
					c0.2,1.2,0.9,2.2,1.9,2.7c0.2,0.7,0.3,1.4,0.5,2.1c0,0-0.1,0.1-0.1,0.2c-0.5,0.9-0.7,2.1-0.4,3.1c0.3,1.1,1,1.9,2,2.4
					c0.2,0.6,0.4,1.3,0.6,1.9c-0.5,0.8-0.6,1.7-0.4,2.6c0.2,1.3,1.1,2.4,2.3,2.9l0.7,1.8c-0.2,0.5-0.3,0.9-0.3,1.4
					c0,1.2,0.4,2.4,1.3,3.2c0.4,0.4,0.9,0.7,1.4,0.9l0.8,1.6c-0.2,0.4-0.3,0.8-0.3,1.2v0.1c0,1.2,0.4,2.3,1.2,3.2
					c0.5,0.5,1.1,0.9,1.8,1.1c0.3,0.5,0.5,1,0.8,1.5c-0.1,0.3-0.2,0.7-0.2,1c0,1.2,0.4,2.3,1.3,3.2c0.6,0.6,1.3,1,2.1,1.1
					c0.3,0.4,0.5,0.9,0.8,1.3c-0.1,0.4-0.1,0.7-0.2,1.1c0,1.1,0.4,2.2,1.2,3c0.7,0.6,1.5,1,2.4,1.1l0.8,1.2
					c-0.2,0.9-0.1,1.8,0.3,2.7c0.5,1.2,1.7,2.1,3,2.3l0.3,0.5l0.5-0.2c0.2,0.3,0.4,0.5,0.7,0.8c-0.1,0.4-0.1,0.8,0,1.2
					c0.1,1.5,1.1,2.8,2.5,3.3c0.5,0.2,1,0.3,1.6,0.3h0.2l0.8,0.9c-0.4,2.2,1.1,4.2,3.3,4.6c0.2,0,0.5,0.1,0.7,0.1l0,0
					c0.2,0,0.4,0,0.6,0l0.8,0.8c0,0.1,0,0.2,0,0.4c0,1.6,0.9,3.1,2.4,3.8c0.5,0.2,1.1,0.3,1.7,0.4l0,0c0.3,0,0.6,0,0.9-0.1l0.8,0.7
					c0,0.7,0.1,1.4,0.4,2c0.6,1.3,1.9,2.2,3.3,2.2h0.1c0.5,0,0.9-0.1,1.4-0.2l0.8,0.6c0,0.4,0.1,0.8,0.2,1.2
					c0.4,1.5,1.7,2.6,3.2,2.8c0.2,0,0.5,0.1,0.8,0.1c0.5,0,1-0.1,1.4-0.3l0.7,0.4c0.1,1.7,1.3,3.2,3,3.8c0.4,0.1,0.8,0.2,1.2,0.2
					l0,0c0.6,0,1.2-0.1,1.8-0.4l0.8,0.5c0,0.2,0,0.4,0.1,0.5c0.4,1.6,1.7,2.7,3.2,3c0.2,0,0.5,0.1,0.7,0.1c0.7,0,1.4-0.2,2-0.6
					l0.8,0.4c0,0.1,0.1,0.3,0.1,0.4c0.4,1.6,1.8,2.8,3.5,3h0.4l0,0c0.8,0,1.6-0.3,2.3-0.7l0.9,0.3c0.1,0.5,0.3,1,0.7,1.5
					c0.7,1.1,2,1.7,3.3,1.7l0,0c0.9,0,1.8-0.3,2.5-0.9l1,0.3c0.4,1.4,1.6,2.5,3.1,2.8c0.2,0,0.5,0.1,0.7,0.1c1,0,2-0.3,2.7-1l1,0.3
					c0.6,1.6,2.1,2.6,3.8,2.6l0,0c1.1,0,2.1-0.4,2.9-1.2c0.4,0.1,0.8,0.1,1.2,0.2c0.6,1.2,1.7,2.1,3.1,2.3c0.2,0,0.4,0,0.5,0l0,0
					c1.2,0,2.3-0.5,3.1-1.4c0.4,0,0.9,0.1,1.3,0.1c0.1,0.2,0.3,0.5,0.5,0.7c0.4,0.3,0.8,0.6,1.3,0.9l0.5,0.3l0.3,0.2h2.1l0.3-0.3
					c0.7-0.3,1.3-0.7,1.8-1.3c0.5,0,1.1,0,1.6,0.1c0.6,0.6,1.3,0.9,2.1,1.1c0.2,0,0.5,0.1,0.7,0.1l0,0c1,0,2-0.4,2.7-1.1
					c1,0,2,0,2.9-0.1c0.7,0.6,1.6,0.9,2.5,0.8h0.2c1,0,1.9-0.4,2.6-1.1l3.1-0.3c0.6,0.4,1.4,0.6,2.2,0.6h0.3c1-0.1,2-0.5,2.6-1.3
					c1-0.1,2.1-0.3,3.1-0.5c0.6,0.3,1.2,0.5,1.9,0.5l0,0h0.4c1-0.1,1.9-0.6,2.5-1.4c1-0.2,2.1-0.5,3.1-0.7c0.4,0.2,0.9,0.3,1.3,0.3
					h0.2c1.3,0,2.4-0.5,3.2-1.5c1-0.3,2.1-0.6,3.1-0.9c0.4,0.1,0.8,0.2,1.2,0.2l0,0c1.3,0,2.5-0.6,3.3-1.7c1-0.4,2-0.7,3-1.1
					c0.3,0.1,0.6,0.1,0.9,0.1l0,0c0.3,0,0.6,0,0.8-0.1c1.1-0.2,2.1-0.9,2.7-1.9c1-0.4,1.9-0.8,2.9-1.3c0.2,0,0.5,0.1,0.7,0.1l0,0
					c0.5,0,0.9-0.1,1.4-0.2c1-0.3,1.8-1.1,2.3-2c0.9-0.5,1.8-0.9,2.6-1.4c0.2,0,0.3,0,0.5,0l0,0c1.6,0,3.1-1,3.7-2.5l2.5-1.5h0.3
					c0.5,0,1-0.1,1.4-0.3c1.2-0.4,2.1-1.4,2.5-2.5l2.2-1.6c0.2,0,0.4,0,0.6,0c1.4-0.2,2.7-1.1,3.3-2.4c0.1-0.2,0.1-0.4,0.2-0.6
					l2.1-1.7c0.5,0,1-0.1,1.4-0.3c1.3-0.5,2.2-1.7,2.4-3l0.6-0.2l-0.1-0.3l1.4-1.3c2-0.1,3.6-1.7,3.7-3.7c0.6-0.6,1.1-1.2,1.7-1.8
					c1.4-0.2,2.7-1.1,3.3-2.4c0.2-0.5,0.3-1,0.3-1.6c0.5-0.6,1-1.2,1.5-1.8c1-0.2,1.9-0.7,2.5-1.5c0.6-0.8,0.9-1.8,0.9-2.8
					c0.4-0.6,0.9-1.2,1.3-1.8c0.1,0,0.2,0,0.3-0.1c1.5-0.4,2.6-1.7,2.8-3.3c0.1-0.4,0.1-0.8,0-1.2c0.4-0.6,0.8-1.2,1.1-1.8
					c1.5-0.4,2.6-1.6,2.8-3.1c0.1-0.6,0.1-1.1,0-1.7l1-1.8c1.3-0.4,2.3-1.5,2.6-2.8c0.2-0.8,0.2-1.6,0-2.4c0.3-0.6,0.6-1.2,0.9-1.8
					c0.4-0.2,0.8-0.4,1.2-0.7c1.2-1,1.7-2.6,1.3-4.1c0-0.2-0.1-0.3-0.2-0.5c0.3-0.7,0.5-1.3,0.8-1.9c2-0.9,2.9-3.3,2-5.3
					c0-0.1-0.1-0.1-0.1-0.2c0.2-0.7,0.4-1.3,0.6-2c2-1.1,2.7-3.6,1.6-5.5c0,0,0,0,0,0c0.2-0.7,0.4-1.4,0.5-2.1
					c1.2-0.8,1.9-2.1,1.8-3.6c0-0.7-0.3-1.4-0.7-2.1c0.1-0.8,0.3-1.5,0.4-2.3c0.8-0.6,1.4-1.5,1.5-2.5c0.2-1.1-0.1-2.2-0.7-3.1l0,0
					c0.1-0.8,0.2-1.6,0.3-2.4c0.8-0.6,1.2-1.6,1.3-2.6c0.1-1.1-0.2-2.2-0.9-3c0-0.7,0.1-1.5,0.1-2.2c0.6-0.6,1.1-1.2,1.4-2l0.1-0.2
					v-1.8L279.3,165.5z"/>
				<path class="st1" d="M277.4,173.7c-0.3-0.8-0.7-1.5-1.3-2c0-0.8,0-1.5,0-2.3c0.2-0.2,0.3-0.3,0.5-0.5c0.7-1,0.9-2.3,0.6-3.5
					c-0.2-0.8-0.7-1.5-1.4-2c-0.1-0.8-0.1-1.5-0.2-2.2c0.7-0.9,1.1-2.1,0.9-3.2c-0.1-1.1-0.7-2-1.6-2.6c-0.1-0.7-0.2-1.5-0.4-2.2
					c0.7-0.9,0.9-2.1,0.6-3.3c-0.2-1-0.9-1.9-1.8-2.5c-0.2-0.7-0.3-1.4-0.5-2.2c0.6-0.9,0.7-2.1,0.5-3.1c-0.3-1.1-1-2-2-2.5
					c-0.2-0.7-0.4-1.4-0.6-2.1c0.3-0.6,0.4-1.2,0.5-1.9c0-1.6-0.9-3-2.3-3.6c-0.2-0.6-0.5-1.3-0.7-2c0,0,0-0.1,0-0.1
					c0.4-1,0.4-2.1-0.1-3.2c-0.4-1-1.2-1.7-2.2-2.1c-0.3-0.6-0.6-1.3-0.9-1.9c0.3-0.8,0.3-1.7,0.1-2.6c-0.4-1.3-1.4-2.2-2.7-2.7
					c-0.3-0.6-0.6-1.1-0.9-1.7c0.6-2.2-0.6-4.4-2.7-5c-0.1,0-0.1,0-0.2-0.1c-0.3-0.6-0.7-1.1-1-1.6c0.1-0.3,0.1-0.7,0.1-1V108v-0.2
					c0-0.2-0.1-0.5-0.1-0.7c-0.4-1.5-1.7-2.6-3.3-2.8l-1-1.4c0-0.2,0-0.3,0.1-0.5c0.1-1.5-0.6-3-2-3.8c-0.5-0.3-1.1-0.5-1.7-0.6
					c-0.4-0.4-0.7-0.9-1.1-1.3c0.1-0.7,0-1.4-0.3-2.1c-0.5-1.3-1.6-2.2-3-2.4l-0.3-0.6l-0.7,0.3c-0.3-0.3-0.6-0.6-0.9-0.9
					c0-0.5,0-1-0.2-1.5c-0.5-1.7-2.1-2.9-3.9-2.9H239c-0.4-0.4-0.7-0.7-1.1-1c0-1.2-0.5-2.4-1.3-3.2c-0.7-0.6-1.7-1-2.7-1
					c-0.2,0-0.4,0-0.6,0l-1.1-0.9c0-0.4-0.1-0.8-0.2-1.2c-0.4-1.2-1.4-2.2-2.6-2.6c-0.7-0.2-1.4-0.3-2.1-0.1l-1.1-0.8
					c0-0.3-0.1-0.7-0.2-1c-0.4-1.4-1.6-2.5-3.1-2.7c-0.7-0.1-1.4-0.1-2,0.1l-1.1-0.7c-0.1-0.5-0.2-1-0.5-1.4c-0.8-1.4-2.4-2.2-4-2.1
					c-0.4,0-0.7,0.1-1.1,0.2l-1.1-0.6c-0.3-1.5-1.4-2.7-2.9-3.2c-1-0.3-2-0.2-2.9,0.2l-1.2-0.6c-0.2-0.6-0.5-1.2-0.9-1.7
					c-0.8-0.9-1.9-1.4-3-1.3c-0.7,0-1.4,0.2-2,0.5l-1.3-0.5c-0.4-1.2-1.3-2.1-2.4-2.6c-1.2-0.5-2.6-0.3-3.6,0.4l-1.4-0.4
					c-0.6-1.5-2.1-2.5-3.7-2.6h-0.1c-0.9,0-1.7,0.3-2.4,0.8l-1.5-0.4c-0.6-1.2-1.7-2.1-3.1-2.3c-1.1-0.1-2.2,0.2-3.1,0.9l-1.6-0.3
					c-0.6-1.1-1.8-1.9-3.1-2c-1.2-0.1-2.3,0.3-3.2,1.1l-1.8-0.2c-0.7-1-1.9-1.7-3.1-1.7c-1.2-0.1-2.3,0.4-3.1,1.2
					c-0.7,0-1.4-0.1-2.2-0.1c-0.4-0.5-1-0.9-1.6-1.1l-0.1-0.1l-0.4-0.2h-1.8l-0.2,0.1c-0.8,0.3-1.5,0.7-2,1.3c-0.7,0-1.5,0-2.3,0.1
					c-0.8-0.8-1.9-1.3-3.1-1.2c-1.1,0.1-2.1,0.6-2.8,1.4l-0.1,0.1c-0.8,0.1-1.5,0.1-2.2,0.2c-0.9-0.7-2-1-3.1-0.9
					c-1.1,0.1-2.2,0.7-2.8,1.7c-0.7,0.1-1.4,0.2-2.2,0.4c-0.7-0.5-1.5-0.8-2.4-0.8c-0.2,0-0.4,0-0.6,0c-1.2,0.1-2.3,0.8-2.9,1.9
					l-2,0.5c-0.6-0.4-1.4-0.6-2.1-0.6c-0.2,0-0.4,0-0.7,0.1c-1.1,0.2-2.2,0.9-2.8,1.8c-0.1,0.1-0.1,0.2-0.2,0.3l-2,0.6
					c-0.5-0.3-1.1-0.4-1.7-0.5c-1.3-0.1-2.6,0.5-3.4,1.6c-0.2,0.2-0.3,0.5-0.5,0.8l-1.8,0.7c-0.8-0.4-1.7-0.5-2.6-0.3
					c-1.4,0.3-2.5,1.3-3,2.6c-0.6,0.2-1.1,0.5-1.6,0.7c-0.4-0.2-0.9-0.3-1.3-0.3c-1.5,0-2.9,0.7-3.7,2c-0.2,0.3-0.3,0.6-0.4,1
					l-1.6,0.8c-0.4-0.2-0.9-0.2-1.3-0.2c-2,0-3.6,1.4-4,3.3c-0.5,0.3-0.9,0.6-1.3,0.8c-0.4-0.1-0.7-0.2-1.1-0.2
					c-0.8,0-1.7,0.3-2.3,0.7c-1,0.7-1.6,1.7-1.7,2.9L84.6,76c-0.3-0.1-0.7-0.1-1-0.1c-1.2,0-2.4,0.5-3.2,1.5
					c-0.6,0.7-0.9,1.6-0.9,2.4c-0.4,0.3-0.7,0.6-1.1,0.9c-0.3-0.1-0.5-0.1-0.8-0.1h-0.1c-1.5,0-2.9,0.9-3.5,2.3
					c-0.3,0.7-0.4,1.4-0.3,2.1l-0.9,0.8c-0.4-0.1-0.8-0.1-1.2,0c-1.5,0.2-2.8,1.2-3.3,2.7c-0.2,0.6-0.3,1.3-0.2,1.9l-0.8,0.8
					c-0.3,0-0.7,0-1,0c-1.6,0.2-2.8,1.3-3.3,2.8c-0.2,0.7-0.3,1.4-0.1,2.2c-0.2,0.3-0.5,0.5-0.7,0.8c-0.4,0-0.8,0-1.2,0.1
					c-1.4,0.3-2.6,1.4-2.9,2.8c-0.2,0.8-0.2,1.6,0,2.3c-0.2,0.3-0.4,0.5-0.5,0.8l0,0c-1.3,0-2.6,0.6-3.4,1.8
					c-0.8,1.1-0.9,2.6-0.4,3.8l-0.5,0.8c-2.3,0.1-4,2-3.9,4.3c0,0.6,0.2,1.1,0.4,1.6c-0.1,0.3-0.3,0.5-0.4,0.8
					c-1.8,0.2-3.2,1.5-3.6,3.2c-0.2,1,0,2,0.5,2.9l-0.4,0.8h-0.2c-1.7,0.4-3,1.8-3.2,3.6c-0.1,0.9,0.2,1.9,0.7,2.7
					c-0.1,0.3-0.2,0.6-0.3,0.8c-2.2,0.5-3.6,2.7-3.1,4.9c0.1,0.3,0.1,0.5,0.3,0.8c0.1,0.3,0.3,0.6,0.5,0.9c-0.1,0.3-0.2,0.6-0.3,0.9
					c-1,0.3-1.8,0.9-2.4,1.8c-0.6,1.1-0.7,2.4-0.3,3.5c0.2,0.5,0.4,0.9,0.8,1.2l-0.3,1.1c-1.4,0.5-2.4,1.7-2.6,3.1
					c-0.2,1.3,0.3,2.6,1.2,3.5c-0.1,0.4-0.1,0.7-0.2,1.1c-1.2,0.6-2.1,1.7-2.3,3.1c-0.2,1.4,0.3,2.7,1.3,3.6l-0.2,1.3
					c-0.9,0.6-1.6,1.4-1.9,2.4l-0.1,0.2v2l0.3,0.3c0.3,0.7,0.7,1.2,1.2,1.7c0,0.8-0.1,1.5-0.1,2.3c-0.6,0.5-1.1,1.2-1.4,2l-0.1,0.2
					v1.6l0.2,0.4c0,0.1,0.1,0.3,0.2,0.4c0.2,0.5,0.6,1,1,1.5c0,0.7,0,1.5,0.1,2.2c-0.6,0.6-1,1.5-1.2,2.4c-0.2,1.4,0.4,2.8,1.5,3.7
					c0.1,0.7,0.1,1.5,0.2,2.2c-0.7,0.9-1.1,2-0.9,3.2c0.1,1.1,0.8,2.1,1.7,2.8c0.1,0.7,0.2,1.4,0.4,2.2c-0.6,0.9-0.9,1.9-0.7,3
					c0.2,1.1,0.9,2.2,1.9,2.7c0.2,0.7,0.3,1.4,0.5,2.1c0,0.1-0.1,0.1-0.1,0.2c-0.5,0.9-0.7,2.1-0.4,3.1c0.3,1.1,1,2,2,2.5
					c0.2,0.6,0.4,1.3,0.6,1.9c-0.5,0.8-0.6,1.8-0.4,2.7c0.2,1.3,1.1,2.4,2.3,2.9l0.7,1.8c-0.2,0.5-0.3,0.9-0.4,1.4
					c0,1.3,0.4,2.5,1.3,3.3c0.4,0.4,0.9,0.7,1.4,0.9c0.2,0.5,0.5,1.1,0.8,1.6c-0.2,0.4-0.3,0.8-0.3,1.2v0.1c0,1.2,0.4,2.3,1.3,3.2
					c0.5,0.5,1.1,0.8,1.8,1c0.3,0.5,0.5,1,0.8,1.5c-0.1,0.3-0.2,0.7-0.2,1.1c0,1.2,0.4,2.3,1.2,3.2c0.6,0.6,1.3,1,2.1,1.1
					c0.3,0.4,0.5,0.9,0.8,1.3c-0.1,0.4-0.1,0.7-0.2,1.1c0,1.1,0.4,2.1,1.2,2.9c0.7,0.7,1.5,1.1,2.5,1.2l0.9,1.2
					c-0.2,0.9-0.1,1.8,0.3,2.6c0.5,1.2,1.7,2.1,3,2.3l0.3,0.5l0.5-0.2c0.2,0.3,0.4,0.5,0.7,0.8c-0.1,0.4-0.1,0.8,0,1.2
					c0.1,1.5,1.1,2.8,2.5,3.3c0.5,0.2,1,0.3,1.6,0.3H67l0.8,0.9c-0.4,2.2,1.1,4.2,3.3,4.6c0.2,0,0.5,0.1,0.7,0.1l0,0
					c0.2,0,0.4,0,0.6,0l0.8,0.8c0,0.1,0,0.2,0,0.4c0,1.6,0.9,3.1,2.4,3.8c0.5,0.2,1.1,0.3,1.7,0.4l0,0c0.3,0,0.6,0,0.9-0.1
					c0.3,0.2,0.5,0.4,0.8,0.6c0,0.7,0.1,1.4,0.4,2c0.6,1.3,1.9,2.1,3.3,2.2h0.1c0.5,0,0.9-0.1,1.4-0.2l0.8,0.6
					c0,0.4,0.1,0.8,0.2,1.2c0.4,1.5,1.7,2.6,3.2,2.8c0.2,0,0.5,0.1,0.8,0.1c0.5,0,1-0.1,1.4-0.3l0.7,0.4c0.1,1.7,1.3,3.2,3,3.8
					c0.4,0.1,0.8,0.2,1.2,0.2l0,0c0.6,0,1.2-0.1,1.8-0.4l0.8,0.5c0,0.2,0.1,0.4,0.1,0.5c0.4,1.6,1.6,2.7,3.2,3
					c0.2,0,0.5,0.1,0.7,0.1c0.7,0,1.4-0.2,2-0.5l0.8,0.4c0,0.1,0.1,0.3,0.1,0.4c0.4,1.6,1.8,2.8,3.5,3h0.4l0,0
					c0.8,0,1.6-0.3,2.3-0.7l0.9,0.3c0.1,0.5,0.3,1,0.7,1.5c0.7,1.1,2,1.7,3.3,1.7l0,0c0.9,0,1.8-0.3,2.5-0.9l1,0.3
					c0.4,1.4,1.6,2.5,3,2.8c0.2,0,0.5,0.1,0.7,0.1c1,0,2-0.3,2.7-1l1,0.2c0.2,0.4,0.4,0.8,0.6,1.1c0.8,1,1.9,1.5,3.1,1.5l0,0
					c1.1,0,2.1-0.4,2.9-1.2l1.2,0.2c0.6,1.2,1.7,2.1,3.1,2.3h0.6l0,0c1.2,0,2.3-0.5,3.1-1.3l1.3,0.1c0.1,0.2,0.3,0.5,0.5,0.7
					c0.4,0.3,0.8,0.6,1.3,0.9c0.2,0.1,0.3,0.2,0.5,0.3l0.3,0.2h2.1l0.3-0.3c0.7-0.3,1.3-0.7,1.8-1.3l1.6,0.1
					c0.6,0.6,1.3,0.9,2.1,1.1c0.2,0,0.5,0.1,0.7,0.1l0,0c1,0,2-0.4,2.7-1.1c1,0,2,0,2.9-0.1c0.7,0.6,1.6,0.9,2.5,0.8h0.2
					c1,0,1.9-0.4,2.6-1.1c1-0.1,2-0.2,3.1-0.3c0.6,0.4,1.3,0.6,2.1,0.6h0.3c1-0.1,1.9-0.5,2.6-1.3c1-0.1,2.1-0.3,3.1-0.5
					c0.6,0.3,1.2,0.5,1.9,0.5l0,0h0.4c1-0.1,1.9-0.6,2.5-1.4c1.1-0.2,2.1-0.5,3.1-0.7c0.4,0.2,0.9,0.3,1.3,0.3h0.2
					c1.3,0,2.4-0.5,3.2-1.5c1-0.3,2-0.6,3.1-0.9c0.4,0.1,0.8,0.2,1.2,0.2l0,0c0.3,0,0.5,0,0.8-0.1c1-0.2,1.9-0.8,2.5-1.7
					c1-0.4,2-0.7,2.9-1.1c0.3,0.1,0.7,0.1,1,0.1l0,0c0.3,0,0.6,0,0.8-0.1c1.1-0.2,2.1-0.9,2.7-1.9c1-0.4,1.9-0.9,2.9-1.3
					c0.2,0,0.5,0.1,0.7,0.1l0,0c0.5,0,0.9-0.1,1.4-0.2c1-0.3,1.8-1.1,2.3-2c0.9-0.5,1.8-0.9,2.6-1.4c0.2,0,0.3,0,0.5,0l0,0
					c1.6,0,3.1-1,3.7-2.5c0.8-0.5,1.7-1,2.5-1.6h0.3c0.5,0,1-0.1,1.4-0.3c1.2-0.4,2.1-1.4,2.5-2.5c0.7-0.5,1.5-1,2.2-1.6
					c0.2,0,0.4,0,0.6,0c1.4-0.2,2.7-1.1,3.3-2.4c0.1-0.2,0.1-0.4,0.2-0.6c0.7-0.5,1.4-1.1,2.1-1.7c1.9,0,3.5-1.4,3.9-3.3l0.6-0.3
					l-0.1-0.3l1.4-1.3c1-0.1,1.9-0.5,2.6-1.2c0.7-0.7,1.1-1.6,1.1-2.5c0.6-0.6,1.1-1.2,1.7-1.8c1.4-0.2,2.7-1.1,3.3-2.4
					c0.2-0.5,0.3-1,0.3-1.6l1.5-1.8c1-0.2,1.9-0.7,2.5-1.5c0.6-0.8,0.9-1.8,0.9-2.8c0.4-0.6,0.9-1.2,1.3-1.8c0.1,0,0.2,0,0.3-0.1
					c1.5-0.4,2.6-1.7,2.8-3.3c0.1-0.4,0.1-0.8,0-1.2c0.4-0.6,0.8-1.2,1.1-1.8c1.5-0.4,2.6-1.6,2.9-3.2c0.1-0.6,0.1-1.1,0-1.7l1-1.8
					c1.3-0.4,2.3-1.4,2.7-2.7c0.2-0.8,0.2-1.6,0-2.4c0.3-0.6,0.6-1.2,0.9-1.8c0.4-0.2,0.8-0.4,1.2-0.7c1.2-1,1.7-2.6,1.3-4.1
					c0-0.2-0.1-0.3-0.2-0.5c0.3-0.6,0.5-1.3,0.8-1.9c1-0.5,1.8-1.4,2.2-2.4c0.3-1,0.2-2.1-0.2-3c0.2-0.6,0.4-1.3,0.6-2
					c1.3-0.7,2.1-2,2.1-3.5c0-0.7-0.2-1.4-0.5-2c0.2-0.7,0.4-1.4,0.5-2.1c1.2-0.8,1.9-2.1,1.8-3.6c0-0.7-0.3-1.4-0.7-2
					c0.1-0.8,0.3-1.5,0.4-2.3c0.8-0.6,1.4-1.5,1.5-2.5c0.2-1.1-0.1-2.2-0.7-3.1l0,0c0.1-0.8,0.2-1.6,0.3-2.4
					c0.8-0.6,1.2-1.6,1.3-2.6c0.1-1.1-0.2-2.2-0.9-3c0-0.7,0.1-1.5,0.1-2.2c0.6-0.5,1-1.2,1.3-1.9l0.1-0.2V174L277.4,173.7z"/>
				<path class="st4" d="M272,167.1c-0.3,1-1.2,1.8-2.3,2.1c-0.1,0-0.3,0.1-0.4,0.1c-3,0-5.9,0-8.9,0c-1.2-0.1-2.3-0.9-2.6-2.1
					c-0.3-1.1,0.1-2.4,1.1-3c0.5-0.3,1.2-0.5,1.8-0.6c2.7-0.1,5.5-0.1,8.2,0c1.4,0,2.6,0.9,3,2.3L272,167.1z"/>
				<path class="st4" d="M42.8,164c0.5-1.5,2-2.5,3.7-2.3c2.4,0.1,4.8,0,7.3,0c0.5,0,1,0.1,1.5,0.3c1.3,0.5,2,1.8,1.7,3.2
					c-0.3,1.3-1.4,2.3-2.7,2.3c-2.9,0-5.8,0-8.7,0c-1.1,0-2.2-0.7-2.6-1.8c-0.1-0.2-0.2-0.4-0.2-0.5L42.8,164z"/>
				<path class="st4" d="M42.8,156c0.8-1.9,1.7-2.4,3.8-2.2c2.5,0.2,4.9,0.3,7.4,0.5c1.6,0,3,1.2,3.1,2.8c0,1.6-1.2,2.8-2.7,2.9
					c0,0,0,0-0.1,0c-1.5,0-3-0.1-4.5-0.3c-1.3-0.1-2.7-0.2-4-0.3c-1.3,0-2.4-0.8-2.8-2.1c0,0-0.1-0.1-0.1-0.1L42.8,156z"/>
				<path class="st4" d="M159,50.8c0.1,0.1,0.2,0.1,0.3,0.2c1.1,0.4,1.9,1.5,1.8,2.7c0,2.8,0,5.6,0,8.4c0,1.5-1.2,2.8-2.7,2.9
					c-1.6,0-2.9-1.2-2.9-2.8c0,0,0,0,0-0.1c-0.1-2.8-0.1-5.7,0-8.5c0-1.4,1-2.5,2.3-2.8L159,50.8z"/>
				<path class="st4" d="M148.1,280c-0.5-0.3-1-0.6-1.5-1c-0.5-0.5-0.8-1.3-0.7-2c0.2-2.9,0.4-5.7,0.6-8.6c0.1-1.6,1.4-2.7,3-2.6
					c1.6,0.2,2.7,1.5,2.6,3.1c-0.1,1.6-0.2,3.1-0.3,4.7c-0.1,1.2-0.2,2.4-0.3,3.7c0,1.2-0.9,2.3-2.1,2.7c0,0-0.1,0.1-0.1,0.1
					L148.1,280z"/>
				<path class="st4" d="M153.9,133.6v-4.8h-23.4v-4.3h23.4v-5.3H137v-4.3h16.8v-7h4.3v6.9h17.7v4.4h-17.6v5.3h23.9v4.3h-23.9v4.8
					c0.3,0,0.6,0,0.9,0c8.1,0.1,16.1,1.7,23.6,4.7c5.7,2.2,10.9,5.6,15.2,9.9c3.1,3.1,5.3,7.1,6.3,11.4c1.1,5.2,0.1,10.7-2.7,15.2
					c-2.7,4.2-6.3,7.8-10.5,10.3c-5.7,3.5-11.9,6-18.4,7.3c-6.3,1.4-12.7,1.9-19.1,1.6c-8.5-0.3-16.9-2.2-24.7-5.7
					c-5.1-2.2-9.7-5.5-13.5-9.6c-2.8-3-4.7-6.6-5.6-10.6c-1.2-5.4-0.1-11.1,3-15.7c2.6-4,6.1-7.3,10.1-9.8c6-3.8,12.7-6.4,19.7-7.7
					C146.3,134.2,150.1,133.8,153.9,133.6z M157.1,189.9c5.3,0,10.6-0.6,15.7-1.8c5.7-1.2,11.1-3.5,16-6.5c3.7-2.2,6.9-5.3,9.2-9
					c2.1-3.3,3-7.4,2.3-11.3c-0.7-3.6-2.4-6.9-4.9-9.5c-3.6-3.9-8-6.9-12.9-8.9c-7.9-3.3-16.3-5-24.9-5c-4.8-0.1-9.6,0.4-14.3,1.3
					c-6,1.1-11.7,3.3-17,6.3c-3.7,2.1-7,5-9.5,8.5c-3.1,4.5-4.2,9.3-2.6,14.6c1.2,3.7,3.5,7,6.5,9.5c4,3.5,8.6,6.1,13.6,7.9
					C141.7,188.6,149.3,189.9,157.1,189.9z"/>
				<path class="st4" d="M152.6,204.4c0.8-0.9,1.5-1.9,2.3-2.7c0.5-0.6,1.1-1.1,1.8-1.5c0.4-0.3,0.9-0.3,1.3,0
					c0.9,0.8,1.7,1.5,2.5,2.3c0.6,0.6,1.1,1.3,1.6,1.9c0.6-1,1.1-2,1.8-3c0.4-0.8,1.1-1.4,2-1.6c0.4-0.1,0.8-0.1,1.2,0
					c0.9,0.1,1.8,0.1,2.6,0.2c0.3,0,0.7,0.1,0.7,0.3c0,0.3-0.1,0.6-0.2,0.8c-0.1,0.2-0.3,0.4-0.5,0.6c-2.6,1.7-4.8,4-6.5,6.6
					c-1.5,2.1-2.8,4.3-4.3,6.4c-0.3,0.5-0.6,0.9-1,1.3c-0.3,0.4-1,0.5-1.4,0.2c-0.1-0.1-0.2-0.2-0.2-0.3c-0.2-0.3-0.4-0.6-0.6-1
					c-2.3-4.3-5.2-8.2-8.7-11.6c-0.6-0.5-1.2-0.9-1.9-1.4c-0.3-0.2-0.5-0.4-0.7-0.7c-0.2-0.2-0.4-0.6-0.3-0.8
					c0.2-0.2,0.5-0.4,0.8-0.4c0.7-0.1,1.4,0,2-0.2c2-0.4,3.2,0.5,4.1,2.1L152.6,204.4z M156.3,205c0.2,1,0.4,2,0.6,2.9
					c0.1,0.2,0.4,0.4,0.6,0.6c0.2-0.2,0.5-0.4,0.5-0.6c0.6-1.9,0.6-4,0-5.9c-0.1-0.2-0.4-0.4-0.6-0.6c-0.2,0.2-0.5,0.4-0.5,0.6
					C156.6,203,156.5,204,156.3,205L156.3,205z"/>
				<path class="st4" d="M62.8,164.5c0.2-3.1,0.3-6.3,0.5-9.4c0.1-1.1,0.2-2.2,0.3-3.2c0.1-1.1,1.1-1.9,2.2-1.8
					c1.1,0.1,1.9,1.1,1.8,2.2c-0.2,2-0.3,4-0.5,5.9c-0.3,3.2-0.4,6.4-0.1,9.7c0.2,3,0.5,6,0.8,9c0,0.3,0.1,0.5,0.2,0.8
					c0.3,1.1-0.4,2.2-1.5,2.5c-0.1,0-0.1,0-0.2,0c-1.1,0.1-2.2-0.7-2.3-1.8c0,0,0-0.1,0-0.1C63.3,173.8,63,169.2,62.8,164.5
					L62.8,164.5z"/>
				<path class="st4" d="M227.4,106.6c0-0.8,0.5-1.6,1.3-1.9c0.8-0.3,1.7-0.1,2.3,0.6c0.9,1.1,1.6,2.2,2.4,3.3
					c3.9,5.4,7.3,11.1,10.1,17.1c0.4,0.9,0.8,1.7,1.1,2.6c0.4,1-0.1,2.2-1.1,2.7s-2.2-0.1-2.7-1.1c-2.2-5.4-5-10.5-8.2-15.4
					c-1.4-2.2-3.1-4.2-4.6-6.3c-0.3-0.5-0.6-1-0.8-1.4L227.4,106.6z"/>
				<path class="st4" d="M217.1,236.2c0,0.7-0.4,1.4-1,1.8c-2,1.4-3.9,2.9-5.9,4.2c-5.2,3.6-10.8,6.6-16.6,9.1
					c-1,0.4-2.2-0.1-2.7-1.1s0.1-2.2,1.1-2.7c4.8-2,9.4-4.4,13.7-7.1c2.7-1.7,5.3-3.7,7.9-5.6c0.6-0.6,1.5-0.7,2.3-0.4
					C216.6,234.6,217.1,235.4,217.1,236.2z"/>
				<path class="st4" d="M215.6,92.4c0,1.1-1,2-2.1,2c-0.5,0-0.9-0.2-1.3-0.5c-0.9-0.7-1.8-1.4-2.8-2.1c-5.7-4-11.8-7.3-18.3-10
					c-0.3-0.1-0.7-0.2-1-0.4c-1-0.3-1.6-1.5-1.3-2.5c0,0,0-0.1,0-0.1c0.4-1,1.5-1.6,2.6-1.2c0.1,0,0.1,0,0.2,0.1
					c7.8,3.2,15.2,7.3,22.1,12.2c0.4,0.3,0.7,0.5,1.1,0.8C215.4,91.1,215.6,91.8,215.6,92.4z"/>
				<path class="st4" d="M158,258l-11.1-0.7c-0.5,0-1-0.1-1.5-0.2c-1-0.2-1.8-1.1-1.7-2.1c0.1-1.1,1-1.9,2.1-1.9c2,0.1,4,0.3,6,0.5
					c2.9,0.3,5.8,0.4,8.6,0.2c3.4-0.2,6.8-0.6,10.1-0.9c0.5-0.1,1-0.2,1.5-0.2c1.1,0,2,0.9,2,2s-0.9,2-2,2c-2.9,0.3-5.9,0.6-8.8,0.8
					c-1.8,0.1-3.5,0.1-5.3,0.2C158,257.9,158,257.9,158,258z"/>
				<path class="st4" d="M83.8,224.2c-0.7,0-1.4-0.4-1.8-1c-1.9-2.7-3.9-5.4-5.7-8.2c-3-4.5-5.5-9.3-7.6-14.3c-0.4-1,0-2.2,1.1-2.7
					c1-0.4,2.2,0,2.7,1.1c3.1,7.5,7.3,14.6,12.3,21c0.2,0.3,0.5,0.6,0.8,0.9c0.7,0.9,0.5,2.1-0.4,2.8
					C84.7,224.1,84.3,224.2,83.8,224.2L83.8,224.2z"/>
				<path class="st4" d="M97.8,194.9c-0.5-0.1-1.2-0.3-2-0.5c-2.9-0.5-5.8,0.2-8.2,1.9c-0.9,0.6-1.7,1.3-2.4,2
					c-0.7,0.9-2,0.9-2.9,0.2c-0.1-0.1-0.2-0.2-0.3-0.4c-0.4-0.5-0.4-1.2-0.1-1.8c1.6-2.8,3.1-5.5,4.7-8.3c0.9-1.6,2.9-2.2,4.6-1.3
					c0,0,0.1,0,0.1,0.1c2.6,1.4,5.2,2.9,7.8,4.3c0.9,0.4,1.4,1.4,1.2,2.4C99.9,194.4,99.2,194.9,97.8,194.9z"/>
				<path class="st4" d="M104,105.4v4.5c0.1,1.9-1.4,3.5-3.3,3.6c-0.1,0-0.1,0-0.2,0c-3,0.1-5.9,0.1-8.9,0.3
					c-1.1,0.1-2.1-0.7-2.2-1.8c0-0.2,0-0.5,0-0.7c0.2-0.8,0.9-1.4,1.7-1.6c4.9-1.2,7.4-4.5,8.8-9c0.2-0.5,0.5-1,0.8-1.4
					c0.5-0.5,1.3-0.7,1.9-0.3c0.7,0.2,1.1,0.9,1.1,1.6c0,1.6,0,3.2,0,4.8L104,105.4z"/>
				<path class="st4" d="M135.7,230.6c-0.1,1.2-0.7,2.3-1.8,3l-7.4,4.8c-0.9,0.7-2.2,0.6-2.9-0.2c0,0,0,0,0,0
					c-0.7-0.9-0.5-2.2,0.4-3c0.8-0.9,1.5-1.8,2.2-2.9c1.6-2.9,1.5-6,0.7-9.2c-0.1-0.5-0.2-1-0.1-1.6c0.2-1,1.2-1.6,2.2-1.4
					c0.5,0.1,0.9,0.4,1.1,0.8c1.7,2.6,3.4,5.3,5,7.9C135.3,229.4,135.5,230,135.7,230.6z"/>
				<path class="st4" d="M170.1,95.6c0,1.2-0.7,2.2-1.7,2.9c-2.7,1.6-5.3,3.2-8,4.8c-0.9,0.5-2,0.3-2.7-0.5
					c-0.6-0.9-0.4-2.2,0.4-2.9c1.2-1.1,2.2-2.5,2.8-4c0.9-2.6,1.1-5.4,0.4-8c-0.1-0.5-0.1-1.1,0-1.6c0.2-0.7,0.7-1.2,1.4-1.3
					c0.8-0.2,1.5,0.2,1.9,0.8c1.6,2.7,3.2,5.4,4.8,8.1C169.7,94.5,169.9,95,170.1,95.6z"/>
				<path class="st4" d="M148.9,87.1c-0.1,0.5-0.3,1.2-0.4,1.8c-0.5,2.9,0.2,6,1.9,8.4c0.6,0.8,1.2,1.6,1.9,2.3
					c0.5,0.5,0.8,1.1,0.8,1.8c0,1-0.9,1.8-1.9,1.7c-0.3,0-0.6-0.1-0.8-0.2c-2.7-1.5-5.4-3-8.1-4.5c-1.6-0.9-2.3-2.9-1.4-4.5
					c0-0.1,0.1-0.1,0.1-0.2c1.4-2.6,2.8-5.2,4.3-7.8c0.4-0.9,1.5-1.4,2.4-1.1C148.4,85,149,85.8,148.9,87.1z"/>
				<path class="st4" d="M196.1,115.9h4.6c1.9-0.1,3.4,1.4,3.5,3.3c0,0,0,0.1,0,0.1c0.1,2.9,0.2,5.9,0.3,8.8
					c0.1,0.6-0.1,1.2-0.5,1.6c-0.5,0.6-1.3,0.9-2,0.6c-0.9-0.2-1.5-0.9-1.6-1.8c-0.5-2.1-1.5-3.9-3.1-5.4c-1.7-1.5-3.7-2.6-5.9-3.2
					c-0.5-0.2-1-0.4-1.4-0.8c-0.6-0.5-0.7-1.3-0.4-2c0.3-0.7,0.9-1.1,1.7-1.1h4.8L196.1,115.9z"/>
				<path class="st4" d="M86.4,108.4c-0.1,0.4-0.3,0.8-0.6,1.2c-4.9,6.4-8.9,13.4-11.9,20.8c-0.2,0.4-0.3,0.8-0.5,1.2
					c-0.3,1.1-1.4,1.7-2.5,1.4c-0.1,0-0.1,0-0.2-0.1c-1-0.4-1.6-1.5-1.2-2.5c0-0.1,0-0.1,0.1-0.2c1.3-3,2.7-6,4.2-8.9
					c2.5-4.9,5.4-9.6,8.7-14c1.1-1.4,2.9-1.4,3.6,0.1C86.2,107.8,86.3,108.1,86.4,108.4z"/>
				<path class="st4" d="M205.8,202.5c0,1.5,0,3,0,4.5c0.1,1.9-1.4,3.5-3.3,3.6c-0.1,0-0.1,0-0.2,0l-8.9,0.3
					c-1.1,0.2-2.1-0.6-2.3-1.6c-0.1-1.1,0.6-2.1,1.7-2.4c4.9-1.2,7.5-4.5,8.8-9.1c0.2-1.1,1.3-1.9,2.4-1.7c0.1,0,0.2,0,0.3,0.1
					c0.7,0.2,1.1,0.9,1.1,1.6c0,1.6,0,3.3,0,4.9L205.8,202.5z"/>
				<path class="st4" d="M222.8,184.1c1.2,0.1,2.4,0.7,3,1.8c1.6,2.5,3.2,4.9,4.7,7.4c0.7,0.8,0.6,2.1-0.2,2.8c0,0,0,0-0.1,0.1
					c-0.9,0.6-2.1,0.5-2.9-0.3c-0.4-0.3-0.7-0.7-1.1-1.1c-2.1-1.7-4.7-2.6-7.4-2.4c-1.3,0.1-2.6,0.3-3.8,0.6
					c-1.5,0.3-2.8-0.5-2.8-1.8c0-0.6,0.3-1.2,0.8-1.5c2.7-1.7,5.4-3.4,8-5C221.6,184.4,222.1,184.2,222.8,184.1z"/>
				<path class="st4" d="M115.2,212.7h-4.5c-1.9,0.1-3.5-1.3-3.6-3.2c0-0.1,0-0.2,0-0.2c-0.1-3-0.2-5.9-0.3-8.9c0-0.5,0.2-1,0.4-1.5
					c0.4-0.7,1.2-1,2-0.7c0.9,0.2,1.5,1,1.7,1.9c0.3,1.3,0.9,2.6,1.7,3.7c1.8,2.4,4.4,4.1,7.4,4.9c0.5,0.1,0.9,0.4,1.3,0.7
					c0.6,0.5,0.7,1.3,0.4,2c-0.3,0.7-0.9,1.2-1.7,1.1h-4.8L115.2,212.7z"/>
				<path class="st4" d="M125.3,107.4c0.1-0.5,0.3-1.2,0.5-1.9c0.5-2.9-0.2-5.9-1.9-8.3c-0.6-0.8-1.3-1.6-1.9-2.4
					c-0.6-0.6-0.9-1.4-0.7-2.2c0.2-1,1.2-1.6,2.2-1.3c0.2,0,0.3,0.1,0.4,0.2c2.7,1.5,5.5,3,8.2,4.6c1.6,0.9,2.3,2.9,1.4,4.5
					c0,0-0.1,0.1-0.1,0.1c-1.4,2.6-2.9,5.2-4.3,7.8c-0.4,0.9-1.4,1.4-2.4,1.2C125.8,109.5,125.3,108.8,125.3,107.4z"/>
				<path class="st4" d="M140.5,229.1c-1.2-0.1-2.3-0.7-2.9-1.8c-1.6-2.5-3.1-5-4.8-7.4c-0.7-0.9-0.6-2.1,0.3-2.9
					c0.9-0.7,2.2-0.5,2.9,0.4c1.1,1.2,2.5,2.1,4,2.6c2.6,0.9,5.5,1,8.2,0.2c0.5-0.1,1-0.2,1.6-0.1c1,0.2,1.6,1.2,1.4,2.2
					c-0.1,0.5-0.4,0.9-0.8,1.1c-2.7,1.7-5.3,3.4-8,5C141.7,228.8,141.1,229,140.5,229.1z"/>
				<path class="st4" d="M137,235.6c1.2-0.1,2.4,0.5,3.1,1.5c1.7,2.6,3.4,5.2,5,7.8c0.6,0.9,0.4,2-0.4,2.7c-0.9,0.6-2.2,0.5-2.9-0.4
					c-1.4-1.5-3.2-2.5-5.2-3c-2.3-0.5-4.7-0.4-6.9,0.2c-0.5,0.1-1.1,0.1-1.6,0c-0.7-0.1-1.3-0.7-1.3-1.5c-0.1-0.7,0.2-1.4,0.8-1.8
					c2.7-1.7,5.3-3.4,8-5C136,235.9,136.5,235.7,137,235.6z"/>
				<path class="st4" d="M135.1,94c-0.5-0.2-1-0.3-1.5-0.6c-2.6-1.4-5.1-2.8-7.7-4.2c-1-0.4-1.5-1.6-1.1-2.6c0,0,0,0,0-0.1
					c0.5-1,1.7-1.5,2.7-1.1c1.9,0.6,4,0.7,6,0.2c2.3-0.7,4.3-1.9,6-3.6c0.5-0.6,1.3-0.9,2.1-0.8c1,0.1,1.7,1,1.6,1.9
					c0,0.2-0.1,0.5-0.2,0.7c-1.5,2.7-3,5.5-4.6,8.2C137.7,93.4,136.4,94.1,135.1,94z"/>
				<path class="st4" d="M215.1,112.8h-4.5c-1.9,0.1-3.5-1.4-3.6-3.3c0-0.1,0-0.2,0-0.2c-0.1-2.9-0.2-5.8-0.3-8.8
					c-0.2-1.1,0.5-2.1,1.6-2.3c1.1-0.2,2.2,0.6,2.4,1.7c1.2,4.9,4.5,7.4,9.1,8.8c1.4,0.4,2.2,1.6,1.7,2.8c-0.3,0.7-0.9,1.1-1.6,1.1
					c-1.6,0-3.2,0-4.8,0V112.8z"/>
				<path class="st4" d="M176.4,98.9c0-1.1,0.6-2.2,1.6-2.8c2.7-1.7,5.4-3.3,8.2-4.9c0.8-0.4,1.7-0.3,2.3,0.3
					c0.6,0.5,0.8,1.4,0.4,2.2c-0.2,0.4-0.5,0.8-0.8,1.2c-2.9,2.7-3.7,6-3.4,9.8c0.1,0.8,0.3,1.6,0.4,2.4c0.3,1.1-0.3,2.2-1.3,2.5
					c-0.2,0.1-0.4,0.1-0.7,0.1c-0.6,0-1.1-0.4-1.4-0.9c-1.6-2.7-3.2-5.4-4.8-8.1C176.8,100.1,176.6,99.5,176.4,98.9z"/>
				<path class="st4" d="M197.9,213.5h4.6c1.8,0,3.3,1.4,3.4,3.3c0.1,3.1,0.2,6.1,0.3,9.2c0.1,1.1-0.7,2.1-1.8,2.1
					c-0.1,0-0.3,0-0.4,0c-0.9-0.1-1.6-0.8-1.8-1.7c-1.2-4.8-4.5-7.4-9.1-8.7c-0.4-0.1-0.8-0.4-1.1-0.6c-0.6-0.5-0.9-1.3-0.6-2.1
					c0.2-0.7,1-1.2,1.8-1.2c0.8,0,1.6-0.1,2.4-0.1h2.4L197.9,213.5z"/>
				<path class="st4" d="M104.2,204.8c0,1.5,0,3,0,4.5c0.1,1.9-1.4,3.5-3.3,3.6c-0.1,0-0.1,0-0.2,0l-8.7,0.3
					c-1.1,0.2-2.1-0.6-2.3-1.7c-0.1-1.1,0.6-2.1,1.7-2.3c4.8-1.1,7.3-4.4,8.7-8.9c0.1-0.4,0.3-0.8,0.6-1.2c0.4-0.7,1.2-1,2-0.7
					c0.8,0.2,1.4,0.9,1.3,1.8c0,1.6,0,3.2,0,4.8L104.2,204.8z"/>
				<path class="st4" d="M142.2,233.6c0.1-1.2,0.7-2.2,1.6-2.8c2.6-1.7,5.2-3.3,7.8-5c0.9-0.6,2-0.4,2.7,0.4
					c0.7,0.9,0.5,2.2-0.4,2.9c-1.5,1.3-2.5,3.1-3,5c-0.6,2.3-0.5,4.8,0.1,7.1c0.1,0.5,0.1,1.1,0,1.6c-0.1,0.7-0.7,1.3-1.5,1.3
					c-0.7,0.2-1.4-0.2-1.8-0.8c-1.7-2.7-3.4-5.3-5-8C142.5,234.8,142.3,234.2,142.2,233.6z"/>
				<path class="st4" d="M107.5,223.4c0-1.4,0-2.9,0-4.3c-0.2-1.9,1.3-3.6,3.2-3.7c0.1,0,0.2,0,0.4,0c2.9-0.1,5.8-0.2,8.7-0.3
					c1.1-0.2,2.2,0.5,2.4,1.7c0,0,0,0,0,0.1c0,1.1-0.8,2.1-1.9,2.3c-2.2,0.5-4.2,1.7-5.7,3.4c-1.4,1.6-2.4,3.6-2.9,5.7
					c-0.2,1.1-1.3,1.9-2.5,1.7c-0.8-0.2-1.4-0.9-1.4-1.8c0-1.6,0-3.2,0-4.8L107.5,223.4z"/>
				<path class="st4" d="M185.9,242.6c-0.2,0-0.4-0.1-0.6-0.1c-3.3-1.1-7-0.5-9.8,1.6c-0.8,0.6-1.6,1.2-2.3,1.8
					c-0.5,0.5-1.1,0.7-1.7,0.8c-1,0-1.8-0.8-1.8-1.8c0-0.3,0.1-0.6,0.2-0.9c1.5-2.7,3-5.5,4.6-8.2c0.9-1.6,2.9-2.3,4.6-1.4
					c0,0,0,0,0.1,0c2.7,1.4,5.3,2.9,7.9,4.3c0.9,0.4,1.4,1.4,1.1,2.4C187.8,242.1,186.9,242.7,185.9,242.6z"/>
				<path class="st4" d="M212.9,175.3c-0.2-1.2-0.4-2.5-0.7-3.8c-0.2-0.7-0.1-1.5,0.3-2.1c0.6-0.8,1.7-1,2.5-0.5
					c0.2,0.1,0.4,0.3,0.5,0.5c1.7,2.7,3.3,5.3,5,7.9c1,1.6,0.6,3.7-1,4.7c0,0-0.1,0.1-0.1,0.1c-2.5,1.6-4.9,3.2-7.4,4.8
					c-0.9,0.7-2.2,0.6-2.9-0.2c-0.7-0.9-0.5-2.3,0.4-3c1.5-1.4,2.5-3.2,3-5.2C212.7,177.5,212.8,176.5,212.9,175.3z"/>
				<path class="st4" d="M100.5,136.4c0,0.6-0.3,1.2-0.9,1.5c-2.7,1.7-5.3,3.4-8,5c-1.5,1-3.6,0.6-4.6-1c0,0,0-0.1-0.1-0.1
					c-1.6-2.5-3.2-5-4.8-7.5c-0.7-0.9-0.6-2.1,0.2-2.9c0.9-0.7,2.2-0.5,3,0.4c1.1,1.2,2.4,2.1,3.9,2.6c2.7,0.9,5.6,1,8.3,0.2
					c1-0.4,2.1,0,2.6,0.9C100.4,135.8,100.5,136.1,100.5,136.4z"/>
				<path class="st4" d="M204.1,104.8v4.5c0.1,1.9-1.4,3.5-3.3,3.5c0,0-0.1,0-0.1,0l-8.8,0.3c-1.1,0.2-2.1-0.5-2.3-1.6c0,0,0,0,0,0
					c-0.1-1.1,0.6-2.1,1.7-2.4c4.8-1.1,7.3-4.5,8.7-9c0.2-0.5,0.5-1,0.9-1.4c0.5-0.6,1.3-0.7,2-0.3c0.7,0.3,1.1,0.9,1.1,1.6v4.8
					L204.1,104.8z"/>
				<path class="st4" d="M115,113.3h-4.5c-1.9,0.1-3.5-1.4-3.6-3.3c0-0.1,0-0.1,0-0.2c-0.1-2.9-0.2-5.8-0.3-8.7
					c-0.2-1.1,0.5-2.1,1.6-2.3c1.1-0.2,2.2,0.6,2.4,1.7c1.2,4.9,4.5,7.4,9,8.7c1.4,0.4,2.2,1.6,1.7,2.8c-0.2,0.7-0.9,1.1-1.6,1.1
					H115V113.3z"/>
				<path class="st4" d="M246.8,198.4c-0.1,0.3-0.1,0.6-0.3,0.8c-3.1,7.7-7.2,15-12,21.8c-0.3,0.4-0.6,0.8-0.9,1.2
					c-0.7,0.9-1.9,1.1-2.8,0.4c0,0,0,0-0.1,0c-0.9-0.7-1.1-1.9-0.4-2.8c0,0,0.1-0.1,0.1-0.1c3.2-4.2,6.1-8.6,8.5-13.4
					c1.4-2.8,2.6-5.7,3.9-8.6c0.3-1,1.3-1.7,2.4-1.5C246.2,196.5,246.9,197.4,246.8,198.4z"/>
				<path class="st4" d="M217.2,212.8h4.2c1.1-0.1,2.1,0.6,2.3,1.6c0.1,1.1-0.6,2.2-1.7,2.4c-4.9,1.2-7.4,4.5-8.8,9.1
					c-0.2,1.1-1.1,1.8-2.2,1.8c-0.9,0-1.7-0.8-1.7-1.7c-0.1-3.1-0.2-6.3-0.2-9.4c-0.1-1.9,1.3-3.5,3.2-3.6c0.1,0,0.1,0,0.2,0
					c0.8,0,1.6,0,2.4-0.1s1.6-0.1,2.3-0.1L217.2,212.8z"/>
				<path class="st4" d="M173.4,227.7c-0.6-0.2-1.1-0.4-1.7-0.6c-2.6-1.4-5.2-2.8-7.8-4.2c-1-0.4-1.5-1.6-1.1-2.6c0,0,0,0,0,0
					c0.5-1,1.6-1.5,2.7-1.1c1.7,0.5,3.4,0.7,5.1,0.4c2.7-0.5,5.1-1.8,7-3.8c0.5-0.6,1.3-0.9,2.1-0.8c1,0.1,1.7,1,1.5,2
					c0,0.2-0.1,0.5-0.2,0.7c-1.5,2.8-3,5.5-4.6,8.3C175.8,227,174.7,227.7,173.4,227.7z"/>
				<path class="st4" d="M226.3,177.6c-1.3,0.1-2.5-0.6-3.2-1.7c-1.6-2.5-3.1-4.9-4.8-7.4c-0.7-0.9-0.6-2.2,0.3-2.9
					c0.9-0.7,2.2-0.5,2.9,0.4c1,1,2.2,1.9,3.5,2.4c2.7,1.1,5.8,1.2,8.6,0.4c0.6-0.1,1.2-0.1,1.8,0c0.7,0.2,1.2,0.8,1.2,1.5
					c0.1,0.7-0.2,1.3-0.8,1.7c-2.7,1.7-5.4,3.4-8.1,5C227.3,177.2,226.8,177.4,226.3,177.6z"/>
				<path class="st4" d="M167.3,108.7c-1.3,0.2-2.5,0.4-3.7,0.6c-0.6,0.1-1.1,0.1-1.7-0.1c-0.7-0.2-1.1-0.7-1.2-1.4
					c-0.2-0.7,0.2-1.4,0.8-1.8c2.7-1.6,5.5-3.3,8.2-4.8c1.6-0.9,3.7-0.4,4.6,1.3c0,0,0,0,0,0c1.5,2.5,3.1,5.1,4.6,7.6
					c0.7,0.9,0.5,2.2-0.3,2.9c-1,0.7-2.3,0.5-3-0.4c-1.2-1.4-2.8-2.5-4.6-3C169.8,109.1,168.5,108.9,167.3,108.7z"/>
				<path class="st4" d="M107.3,124c0-1.4,0-2.9,0-4.3c-0.2-1.8,1.2-3.5,3-3.7c0.1,0,0.2,0,0.3,0c3.1-0.2,6.3-0.2,9.4-0.3
					c0.8,0,1.5,0.5,1.8,1.3c0.3,0.7,0.2,1.5-0.4,2c-0.3,0.3-0.8,0.6-1.2,0.8c-4.7,1.2-7.3,4.4-8.6,8.9c-0.4,1.3-1.1,2-2.2,2
					c-0.9,0-1.7-0.7-1.8-1.7c0,0,0,0,0,0c0-1.7,0-3.3,0-5L107.3,124z"/>
				<path class="st4" d="M96.1,116.5h4.5c1.9,0,3.5,1.4,3.5,3.3c0,0,0,0.1,0,0.1c0.1,3,0.2,5.9,0.3,8.9c0.1,1.1-0.6,2.1-1.7,2.2
					c-0.2,0-0.4,0-0.5,0c-0.9-0.1-1.6-0.8-1.8-1.7c-1.2-4.8-4.5-7.3-9-8.7c-0.5-0.2-1-0.4-1.4-0.8c-0.5-0.5-0.7-1.3-0.3-1.9
					c0.3-0.7,0.9-1.1,1.7-1.1h4.8L96.1,116.5z"/>
				<path class="st4" d="M227.2,142.9c0.1-0.5,0.3-1,0.5-1.4c1.4-2.6,2.8-5.2,4.3-7.8c0.4-1,1.5-1.5,2.5-1.1c1,0.4,1.5,1.5,1.3,2.5
					c-0.1,0.7-0.4,1.4-0.5,2.2c-0.4,2.8,0.4,5.6,2,7.9c0.5,0.8,1.2,1.5,1.8,2.3c0.3,0.3,0.5,0.7,0.7,1.1c0.3,0.7,0.1,1.6-0.5,2.1
					c-0.6,0.5-1.5,0.6-2.1,0.2l-7-3.9c-0.4-0.2-0.8-0.4-1.3-0.7C227.8,145.5,227.1,144.2,227.2,142.9z"/>
				<path class="st4" d="M213.8,133.3c0.5,0.1,1.3,0.3,2.1,0.5c2.6,0.4,5.2-0.1,7.4-1.5c1.1-0.7,2.1-1.5,3-2.3
					c0.6-0.7,1.5-0.9,2.4-0.6c0.9,0.3,1.4,1.3,1.1,2.2c0,0.1-0.1,0.2-0.1,0.3c-1.5,2.8-3.1,5.6-4.6,8.3c-0.9,1.6-3,2.2-4.6,1.3
					c0,0,0,0-0.1,0c-2.6-1.4-5.3-2.9-7.9-4.3c-0.9-0.4-1.4-1.4-1.2-2.3C211.7,133.8,212.4,133.3,213.8,133.3z"/>
				<path class="st4" d="M139.7,100.4c0.5,0.1,0.9,0.3,1.4,0.5c2.6,1.4,5.2,2.8,7.8,4.2c1,0.4,1.5,1.5,1.1,2.5
					c-0.4,1-1.4,1.5-2.4,1.3c-0.7-0.1-1.4-0.4-2.2-0.5c-3.1-0.4-6.2,0.5-8.7,2.4c-0.6,0.5-1.2,0.9-1.7,1.5c-0.8,0.9-2.1,0.9-3,0.1
					c-0.1,0-0.1-0.1-0.1-0.1c-0.5-0.6-0.6-1.4-0.2-2c1.5-2.8,3-5.5,4.6-8.2C137,100.9,138.3,100.3,139.7,100.4z"/>
				<path class="st4" d="M84.3,185.2c-0.1,0.5-0.3,0.9-0.5,1.4c-1.4,2.6-2.8,5.2-4.3,7.8c-0.4,1-1.6,1.5-2.6,1.1
					c-0.9-0.4-1.4-1.4-1.2-2.3c0.1-0.8,0.4-1.5,0.5-2.2c0.4-2.8-0.3-5.6-1.9-7.9c-0.6-0.9-1.3-1.7-2-2.4c-0.9-0.8-0.9-2.1-0.2-2.9
					c0.1-0.1,0.2-0.2,0.3-0.3c0.5-0.4,1.3-0.5,1.9-0.1c2.8,1.6,5.6,3.1,8.3,4.7C83.8,182.6,84.5,183.9,84.3,185.2z"/>
				<path class="st4" d="M220.9,147c-0.2,0.6-0.4,1.2-0.6,1.8c-1.4,2.5-2.7,5-4.1,7.5c-0.7,1.2-1.7,1.7-2.7,1.3
					c-1.1-0.5-1.5-1.8-1.1-2.9c0.8-2.5,0.6-5.2-0.4-7.5c-0.7-1.6-1.7-3.1-3-4.4c-0.5-0.5-0.8-1.2-0.8-1.9c0-1,0.9-1.8,1.9-1.7
					c0.2,0,0.5,0.1,0.7,0.2c2.9,1.5,5.7,3.1,8.5,4.8C220.2,144.7,220.8,145.8,220.9,147z"/>
				<path class="st4" d="M207.4,123.5c0-1.5,0-2.9,0-4.4c-0.1-1.9,1.3-3.5,3.2-3.6c0.1,0,0.2,0,0.3,0c2.9-0.1,5.9-0.2,8.8-0.3
					c1.1-0.2,2.1,0.6,2.3,1.6c0.1,1.1-0.7,2.1-1.7,2.4c-1,0.3-2,0.7-3,1.1c-3.1,1.7-4.8,4.5-5.7,7.8c-0.4,1.3-1.1,2-2.2,1.9
					c-0.9,0-1.7-0.7-1.7-1.7c0-1.6,0-3.3,0-4.9L207.4,123.5z"/>
				<path class="st4" d="M77.5,171.3c0.5,0.1,1.2,0.3,1.9,0.4c2.9,0.5,5.9-0.2,8.3-1.9c0.8-0.6,1.6-1.2,2.4-1.9
					c0.8-0.9,2.1-0.9,3-0.2c0.1,0.1,0.2,0.2,0.3,0.3c0.4,0.5,0.4,1.2,0.1,1.8c-1.5,2.8-3.1,5.5-4.7,8.3c-0.9,1.6-3,2.2-4.6,1.3
					c0,0,0,0,0,0c-2.6-1.4-5.3-2.9-7.9-4.3c-0.9-0.4-1.4-1.4-1.2-2.3C75.3,171.8,76.1,171.3,77.5,171.3z"/>
				<path class="st4" d="M227.7,182.1c0.1-1.2,0.7-2.3,1.8-2.9l7.5-4.8c0.9-0.7,2.1-0.6,2.9,0.3c0.6,0.9,0.5,2.1-0.3,2.9
					c-0.4,0.4-0.9,0.9-1.2,1.4c-1.8,2.3-2.5,5.3-2.1,8.2c0.1,1,0.3,2,0.6,2.9c0.4,1-0.2,2.2-1.2,2.5c-0.2,0.1-0.5,0.1-0.8,0.1
					c-0.6,0-1.1-0.3-1.4-0.8c-1.7-2.6-3.4-5.3-5-7.9C228,183.3,227.8,182.7,227.7,182.1z"/>
				<path class="st4" d="M187.1,220.6c0,0.2-0.1,0.3-0.1,0.5c-1.2,3.8-0.3,7.3,2,10.4c0.5,0.6,1,1.2,1.5,1.7c0.9,0.7,1,2,0.3,2.8
					c-0.1,0.2-0.3,0.3-0.5,0.4c-0.5,0.3-1.2,0.4-1.7,0.1c-2.7-1.5-5.5-3-8.2-4.6c-1.6-0.8-2.3-2.9-1.5-4.5c0-0.1,0.1-0.1,0.1-0.2
					c1.4-2.6,2.9-5.2,4.3-7.8c0.4-0.9,1.4-1.4,2.4-1.1C186.7,218.7,187.2,219.7,187.1,220.6z"/>
				<path class="st4" d="M91.7,148.3c0-1.3,0.6-2.5,1.7-3.2c2.5-1.6,5-3.2,7.4-4.8c0.9-0.7,2.2-0.6,2.9,0.3c0,0,0,0,0,0
					c0.6,0.9,0.5,2.2-0.4,2.9c-0.9,0.9-1.7,1.9-2.3,3.1c-1.3,2.8-1.5,5.9-0.6,8.9c0.1,0.5,0.2,1,0.1,1.5c-0.1,0.8-0.7,1.5-1.5,1.6
					c-0.7,0.2-1.5-0.2-1.9-0.8c-1.7-2.6-3.4-5.3-5-7.9C92,149.3,91.8,148.8,91.7,148.3z"/>
				<path class="st4" d="M163.5,241.1c0.1-0.5,0.3-1.3,0.5-2c0.4-2.5-0.1-5.2-1.4-7.4c-0.7-1.1-1.6-2-2.3-3.1
					c-0.4-0.5-0.7-1.1-0.8-1.7c-0.1-1,0.6-1.8,1.6-1.9c0.4,0,0.7,0,1.1,0.2c2.7,1.5,5.5,3,8.2,4.6c1.6,0.9,2.3,2.9,1.4,4.6
					c0,0,0,0.1-0.1,0.1c-1.4,2.6-2.9,5.3-4.3,7.9c-0.4,0.9-1.4,1.4-2.4,1.1C164,243.2,163.5,242.4,163.5,241.1z"/>
				<path class="st4" d="M159.1,71.6c3.4,0.3,6.9,0.6,10.4,0.9c1.1,0.1,1.9,1.1,1.8,2.2c0,0,0,0,0,0.1c-0.1,1.1-1.1,1.9-2.2,1.8
					c0,0-0.1,0-0.1,0c-4.3-0.6-8.7-0.9-13.1-0.8c-3.9,0-7.9,0.4-11.7,0.9c-0.3,0.1-0.6,0.1-0.9,0.1c-1.1,0.1-2.1-0.7-2.2-1.8
					s0.7-2.1,1.8-2.2c1.5-0.2,3-0.4,4.6-0.5C151.3,72,155.2,71.8,159.1,71.6z"/>
				<path class="st4" d="M85,144.8c0.1,1.2-0.5,2.4-1.4,3.1c-2.7,1.7-5.3,3.4-8,5.1c-0.9,0.5-2,0.3-2.6-0.5
					c-0.6-0.9-0.5-2.1,0.3-2.8c0.4-0.5,0.9-1,1.3-1.5c1.7-2.2,2.4-5,2.1-7.8c-0.1-1.1-0.3-2.1-0.6-3.2c-0.4-1.6,0.8-3,2.3-2.6
					c0.4,0.1,0.8,0.4,1,0.7c1.7,2.7,3.4,5.3,5.1,8C84.7,143.8,84.9,144.3,85,144.8z"/>
				<path class="st4" d="M216.7,210.4h-4.4c-1.9,0.1-3.5-1.4-3.6-3.3c0-0.1,0-0.2,0-0.3c-0.1-2.9-0.2-5.8-0.3-8.6
					c0-1.3,0.6-2.2,1.6-2.4c1.1-0.1,2.2,0.7,2.4,1.8c0.6,2.7,2.2,5.1,4.6,6.6c1.4,0.9,2.9,1.6,4.6,2.1c1.2,0.2,1.9,1.3,1.7,2.5
					c0,0,0,0,0,0c-0.2,0.8-0.9,1.4-1.7,1.4c-1.6,0-3.2,0-4.9,0L216.7,210.4z"/>
				<path class="st4" d="M82.4,158.3c-0.7,0.1-2.1,0.4-3.4,0.6c-0.5,0.1-1,0.1-1.5,0c-0.7-0.2-1.3-0.8-1.3-1.6
					c-0.1-0.7,0.2-1.4,0.8-1.8c2.6-1.6,5.2-3.3,7.8-4.9c1.5-1,3.6-0.6,4.7,0.9c0,0.1,0.1,0.1,0.1,0.2c1.6,2.5,3.2,5,4.8,7.4
					c0.7,0.9,0.5,2.1-0.3,2.9c-0.9,0.6-2.2,0.5-2.9-0.3c-1.1-1.2-2.4-2.1-3.9-2.6C85.7,158.5,84.1,158.2,82.4,158.3z"/>
				<path class="st4" d="M104.6,223.8c0,1.4,0,2.8,0,4.2c0.1,1.1-0.5,2.1-1.6,2.3c-1.1,0.1-2.2-0.6-2.4-1.7
					c-0.4-1.7-1.2-3.4-2.3-4.7c-1.8-2-4.1-3.4-6.7-4c-1.1-0.2-1.9-1.1-1.8-2.2c0.1-0.9,0.8-1.6,1.7-1.6c3.1-0.1,6.2-0.2,9.3-0.2
					c1.9-0.2,3.5,1.2,3.7,3.1c0,0.2,0,0.4,0,0.6c0,1.4,0,2.9,0,4.4L104.6,223.8z"/>
				<path class="st4" d="M234.5,156.8c-0.5-0.1-1.3-0.3-2-0.5c-2.9-0.5-5.8,0.2-8.2,1.9c-0.8,0.5-1.5,1.2-2.3,1.8
					c-0.4,0.3-0.9,0.6-1.4,0.8c-0.7,0.2-1.5,0-1.9-0.7c-0.5-0.5-0.5-1.3-0.2-1.9c1.5-2.8,3-5.5,4.6-8.2c0.9-1.6,2.9-2.3,4.6-1.4
					c0,0,0.1,0,0.1,0c2.7,1.4,5.3,2.9,7.9,4.3c0.9,0.4,1.4,1.4,1.1,2.4C236.6,156.3,235.8,156.8,234.5,156.8z"/>
				<path class="st4" d="M175.3,94.2c-1.3,0.1-2.5-0.5-3.1-1.6c-1.6-2.7-3.2-5.3-4.8-8c-0.5-0.9-0.3-2,0.5-2.6
					c0.9-0.6,2.1-0.5,2.9,0.3c0.6,0.6,1.2,1.2,1.9,1.7c2.2,1.6,4.9,2.3,7.6,2c1-0.1,2-0.3,2.9-0.5c1.6-0.3,3,0.8,2.6,2.3
					c-0.1,0.4-0.4,0.8-0.8,1.1c-2.7,1.6-5.4,3.3-8.2,4.8C176.2,94,175.7,94.1,175.3,94.2z"/>
				<path class="st4" d="M99.4,172.4c0,0.2-0.1,0.4-0.1,0.6c-1.2,3.8-0.3,7.3,2,10.4c0.4,0.6,1,1.1,1.4,1.7c0.6,0.6,0.9,1.5,0.6,2.3
					c-0.3,0.9-1.3,1.4-2.2,1.1c-0.1,0-0.2-0.1-0.3-0.1c-2.8-1.5-5.5-3-8.2-4.6c-1.6-0.9-2.2-2.9-1.4-4.5c0,0,0-0.1,0.1-0.1
					c1.4-2.6,2.9-5.3,4.3-7.9c0.4-0.9,1.4-1.4,2.4-1.1C98.9,170.5,99.5,171.5,99.4,172.4z"/>
				<path class="st4" d="M124.9,251.6c0,1.1-0.9,2-2,2c-0.3,0-0.5-0.1-0.8-0.2c-1.3-0.5-2.7-1.1-4-1.7c-6.1-2.7-11.8-6-17.3-9.8
					c-0.7-0.5-1.3-1-2-1.5c-0.9-0.6-1.1-1.9-0.5-2.8c0,0,0.1-0.1,0.1-0.1c0.7-0.9,2-1,2.9-0.3c0,0,0,0,0,0
					c6.1,4.8,12.9,8.7,20.1,11.6c0.7,0.3,1.4,0.5,2.1,0.8C124.3,249.9,124.9,250.7,124.9,251.6z"/>
				<path class="st4" d="M252.1,166c0,3.6-0.2,7.1-0.6,10.7c0,0.3-0.1,0.5-0.1,0.8c-0.2,1.1-1.2,1.8-2.3,1.6
					c-1.1-0.2-1.8-1.1-1.7-2.2c0.8-5.2,1-10.5,0.7-15.8c-0.2-3.2-0.6-6.3-1-9.4c-0.3-1.2,0.4-2.3,1.6-2.6c0,0,0.1,0,0.1,0
					c1.1-0.2,2.2,0.6,2.4,1.8c0,0.1,0,0.1,0,0.2C251.8,156,252.1,161,252.1,166z"/>
				<path class="st4" d="M124,80.1c0,0.8-0.5,1.6-1.3,1.9c-4.5,1.8-8.8,4-12.9,6.6c-3.1,1.9-6,4-8.8,6.3c-0.7,0.7-1.8,0.8-2.6,0.3
					c-0.9-0.6-1.2-1.8-0.7-2.7c0.1-0.2,0.3-0.4,0.5-0.6c1.4-1.1,2.9-2.2,4.4-3.3c4.9-3.5,10.2-6.5,15.7-9.1c1-0.4,1.9-0.9,2.9-1.3
					c1-0.4,2.2,0.1,2.6,1.1C123.9,79.6,124,79.8,124,80.1z"/>
				<path class="st4" d="M193.1,129.4c1.3,0,2.6,0.7,3.3,1.9l3.6,6.1c0.3,0.4,0.4,1,0.1,1.4c-0.4,0.5-1,0.7-1.5,0.5
					c-0.5-0.1-0.9-0.3-1.3-0.6c-1.6-1.3-3.3-2.3-5.2-3.1c-1.9-0.8-4-1.4-6.1-1.9c-0.6-0.1-1.1-0.4-1.5-0.9c-0.4-0.4-0.4-1-0.1-1.4
					c0.2-0.2,0.4-0.3,0.6-0.3c2.4-0.6,4.9-1.1,7.4-1.7C192.6,129.4,192.8,129.4,193.1,129.4z"/>
				<path class="st4" d="M119.2,129.5l3.2,0.6l4.4,0.9c0.6,0.1,1.1,0.3,1.2,0.9c0.1,0.6-0.1,1.2-0.7,1.4c-0.4,0.3-0.9,0.5-1.4,0.5
					c-2,0.3-3.9,0.9-5.7,1.9c-1.8,0.9-3.5,2.1-5.3,3.2c-0.5,0.4-1.1,0.6-1.8,0.6c-0.5,0.1-1-0.3-1.1-0.9c0-0.2,0-0.5,0.2-0.7
					c1.2-2.2,2.4-4.4,3.7-6.6C116.6,130.2,117.9,129.5,119.2,129.5z"/>
				<path class="st4" d="M190.7,200.7l-2.7-0.7l-4.7-1.2c-0.6-0.1-1.1-0.4-1.2-1.1c0-0.6,0.3-1.2,0.9-1.4c0.3-0.2,0.7-0.3,1.1-0.3
					c2.4-0.2,4.7-0.9,6.9-1.9c1.6-0.7,3.1-1.7,4.6-2.5c0.6-0.4,1.3-0.6,2-0.5c0.5,0.1,0.9,0.6,0.8,1.1c0,0.2-0.1,0.3-0.2,0.5
					c-1.3,2.2-2.7,4.3-4.1,6.4C193.4,200.2,192.1,200.8,190.7,200.7z"/>
				<path class="st4" d="M179.5,204c1.2,0,2.5,0,3.7,0c0.6-0.1,1.2,0.3,1.3,1c0,0.3-0.1,0.7-0.3,0.9c-0.4,0.5-0.9,0.9-1.5,1.1
					c-1.6,0.5-3.1,1.3-4.5,2.3c-2,1.3-3.9,2.8-5.5,4.6c-0.4,0.6-1.1,0.9-1.8,0.9c-0.6,0-1-0.4-1.1-0.9c0-0.1,0-0.3,0.1-0.4
					c0.8-2.4,1.7-4.9,2.6-7.3c0.6-1.4,2-2.3,3.6-2.3c0.6,0,1.2,0.1,1.8,0.1s1.2,0,1.8,0L179.5,204z"/>
				<path class="st4" d="M140.5,203.9c1.6-0.1,3.1,0.7,3.9,2.1c1,2.2,2,4.4,3,6.7c0.2,0.4,0.2,0.9-0.1,1.3c-0.3,0.4-0.9,0.6-1.3,0.4
					c-0.5-0.2-1-0.5-1.4-0.9c-1.2-1.2-2.5-2.3-4-3.1c-2.1-1.2-4.3-2.2-6.6-2.9c-0.6-0.2-1.1-0.5-1.5-1c-0.4-0.3-0.5-1-0.2-1.4
					c0.2-0.3,0.6-0.4,0.9-0.4C135.6,204.4,138.1,204.2,140.5,203.9z"/>
				<path class="st4" d="M123.6,201.1c-1.4,0-2.6-0.8-3.3-1.9l-3.6-6.1c-0.4-0.4-0.4-1-0.1-1.5c0.4-0.5,1-0.7,1.6-0.4
					c0.4,0.1,0.8,0.3,1.2,0.6c1.8,1.5,3.9,2.7,6.2,3.4c1.7,0.6,3.4,1,5.1,1.4c0.6,0.1,1.2,0.4,1.6,0.9c0.4,0.4,0.4,1,0,1.4
					c-0.2,0.2-0.4,0.3-0.6,0.3l-7.3,1.7C124.1,201,123.9,201.1,123.6,201.1z"/>
				<path class="st4" d="M181.5,274.2c0.1,1.6-0.9,3-2.5,3.2c-1.5,0.1-2.8-0.9-3.1-2.3c-0.5-2.5-1-4.9-1.5-7.4
					c-0.2-0.6-0.2-1.3-0.2-1.9c0.2-1.4,1.3-2.4,2.7-2.5c1.4,0,2.6,0.9,2.9,2.3c0.5,2,0.8,4.1,1.3,6.1
					C181.2,272.7,181.4,273.6,181.5,274.2z"/>
				<path class="st4" d="M158.8,272.6c0,1.4,0,2.8,0,4.1c0.1,1.6-1.2,2.9-2.8,2.9c-1.6,0.1-2.9-1.2-2.9-2.8c0-2.9,0-5.8,0-8.6
					c0.1-1.5,1.3-2.8,2.9-2.8c1.6,0,2.8,1.4,2.8,2.9C158.8,269.8,158.8,271.2,158.8,272.6z"/>
				<path class="st4" d="M183.7,56.3c-0.2,0.9-0.4,2.1-0.7,3.3c-0.4,1.7-0.7,3.4-1.1,5.1c-0.2,1.6-1.7,2.6-3.2,2.4
					c-1.6-0.2-2.6-1.7-2.4-3.2c0.6-2.8,1.1-5.7,1.8-8.5c0.3-1.4,1.7-2.4,3.1-2.2C182.7,53.4,183.8,54.8,183.7,56.3z"/>
				<path class="st4" d="M209.4,265.2c0,1.2-0.8,2.3-1.9,2.7c-1.2,0.4-2.5,0-3.2-1c-0.1-0.2-0.2-0.3-0.3-0.5c-1.2-2.5-2.5-5-3.7-7.5
					c-0.7-1.4-0.2-3.1,1.2-3.9c0.3-0.1,0.6-0.2,0.9-0.3c1.3-0.1,2.6,0.6,3.1,1.8c1.1,2.2,2.2,4.4,3.2,6.6c0.2,0.3,0.3,0.5,0.4,0.8
					C209.2,264.3,209.3,264.8,209.4,265.2z"/>
				<path class="st4" d="M256.9,218.8c-0.5-0.1-0.9-0.2-1.4-0.4c-2.5-1.2-5-2.5-7.4-3.8c-1.1-0.5-1.8-1.7-1.6-2.9
					c0.1-1.1,0.8-2,1.9-2.4c0.7-0.3,1.5-0.2,2.2,0.1c2.6,1.3,5.1,2.6,7.6,3.9c1.2,0.6,1.8,2,1.4,3.3
					C259.3,217.9,258.2,218.7,256.9,218.8z"/>
				<path class="st4" d="M54.5,214.9c0.1-1,0.6-1.9,1.5-2.3c2.6-1.3,5.2-2.6,7.8-3.8c1.4-0.6,3.1,0.1,3.7,1.5c0.6,1.3,0,2.9-1.3,3.6
					c-2.6,1.3-5.1,2.6-7.7,3.8c-1.4,0.7-3.1,0.1-3.8-1.4C54.6,215.9,54.5,215.4,54.5,214.9z"/>
				<path class="st4" d="M202.8,268.1c0,1.6-1.3,2.9-2.8,2.9c-1.2,0-2.3-0.7-2.7-1.8c-0.7-1.7-1.4-3.3-2.1-5
					c-0.4-0.9-0.8-1.9-1.1-2.8c-0.6-1.5,0.1-3.1,1.6-3.7c0.2-0.1,0.5-0.2,0.7-0.2c1.4-0.1,2.6,0.7,3.1,2c1,2.5,2,4.9,3,7.3
					C202.5,267.3,202.7,267.7,202.8,268.1z"/>
				<path class="st4" d="M64.9,121.4c-0.5-0.1-1-0.3-1.5-0.5c-2.4-1.2-4.8-2.4-7.1-3.6c-1.2-0.6-2-1.9-1.7-3.2
					c0.3-1.5,1.8-2.6,3.3-2.2c0.3,0,0.5,0.1,0.7,0.2c1.2,0.6,2.3,1.2,3.4,1.7c1.4,0.7,2.8,1.4,4.2,2.1c1.4,0.7,2,2.4,1.3,3.8
					c-0.2,0.3-0.4,0.6-0.6,0.8C66.3,121,65.6,121.3,64.9,121.4z"/>
				<path class="st4" d="M174.1,275.7c0.1,1.6-1,2.9-2.6,3c-1.5,0.1-2.9-1-3-2.5c-0.4-2.8-0.8-5.5-1.1-8.3c-0.2-1.4,0.6-2.8,2-3.3
					c1.5-0.4,3.1,0.5,3.5,2c0,0.2,0.1,0.3,0.1,0.5c0.4,2.7,0.7,5.5,1.1,8.2C174.1,275.5,174.1,275.6,174.1,275.7z"/>
				<path class="st4" d="M256.6,180.1c0.1-1.6,1.4-2.8,3-2.8c0.1,0,0.1,0,0.2,0c2.8,0.4,5.5,0.7,8.3,1.1c1.6,0.2,2.8,1.6,2.6,3.2
					c0,0.1,0,0.1,0,0.2c-0.4,1.6-1.9,2.6-3.5,2.3c-2.6-0.4-5.2-0.7-7.9-1.1C257.8,182.9,256.6,181.6,256.6,180.1z"/>
				<path class="st4" d="M102.2,251.1c-0.2,0.6-0.4,1.1-0.7,1.7c-1.5,2.3-3.1,4.6-4.7,6.9c-0.6,1-1.8,1.5-2.9,1.2
					c-1.1-0.1-1.9-0.9-2.2-1.9c-0.3-0.8-0.1-1.7,0.4-2.5c1.6-2.4,3.2-4.7,4.8-7c0.7-1,2.1-1.5,3.3-1.1
					C101.3,248.9,102.1,249.9,102.2,251.1z"/>
				<path class="st4" d="M57.9,221.3c0.1-0.9,0.6-1.8,1.4-2.2c2.4-1.4,4.9-2.9,7.4-4.2c1.4-0.8,3.1-0.4,3.9,1
					c0.8,1.4,0.3,3.1-1.1,3.9c0,0,0,0,0,0c-2.4,1.4-4.9,2.9-7.4,4.2c-1.4,0.8-3.1,0.3-3.9-1.1C58,222.4,57.9,221.8,57.9,221.3z"/>
				<path class="st4" d="M246.2,214.9c0.5,0.2,1.1,0.4,1.6,0.6c2.3,1.4,4.7,2.8,7,4.1c1.1,0.6,1.7,1.9,1.5,3.1
					c-0.2,1.1-1.1,2-2.2,2.2c-0.7,0.2-1.5,0-2.1-0.4c-2.4-1.4-4.8-2.8-7.2-4.3c-1-0.6-1.6-1.7-1.4-2.9c0.1-1.1,0.9-2,2-2.3
					C245.6,215,245.9,215,246.2,214.9L246.2,214.9z"/>
				<path class="st4" d="M71,112.6c0.1,1.6-1.2,2.9-2.7,2.9c-0.4,0-0.7,0-1-0.2c-0.2-0.1-0.4-0.2-0.6-0.3c-2.4-1.4-4.8-2.8-7.2-4.3
					c-1-0.5-1.6-1.6-1.4-2.7c0.1-1.6,1.5-2.7,3.1-2.6c0.4,0,0.8,0.2,1.2,0.4c0.6,0.3,1.1,0.6,1.6,1l5.6,3.3
					C70.3,110.7,70.9,111.6,71,112.6z"/>
				<path class="st4" d="M88.4,256.7c-1,0-1.9-0.6-2.3-1.5c-0.5-1-0.4-2.2,0.3-3.1c1.7-2.2,3.5-4.4,5.2-6.6c0.3-0.3,0.6-0.6,1-0.8
					c1.1-0.6,2.5-0.4,3.4,0.6c0.9,1,1,2.5,0.2,3.6c-0.7,1-1.4,1.8-2.2,2.8c-1,1.3-2,2.6-3,3.9C90.4,256.3,89.4,256.8,88.4,256.7z"/>
				<path class="st4" d="M190.9,57.8c-0.2,0.8-0.4,1.6-0.6,2.4c-0.6,2.1-1.2,4.2-1.8,6.3c-0.3,1.1-1.1,1.9-2.2,2.2
					c-1,0.3-2-0.1-2.7-0.8c-0.7-0.7-0.9-1.8-0.6-2.7c0.7-2.7,1.5-5.4,2.3-8.1c0.4-1.3,1.5-2.1,2.8-2.2c1.3,0,2.4,1,2.7,2.3
					c0,0.2,0.1,0.5,0.1,0.7L190.9,57.8z"/>
				<path class="st4" d="M268.2,176.7c-2.8-0.2-5.6-0.4-8.4-0.6c-1.6-0.2-2.7-1.5-2.6-3.1c0.2-1.5,1.5-2.7,3.1-2.6
					c2.4,0.1,4.7,0.3,7.1,0.5c0.5,0,1,0,1.5,0.1c1.6,0.2,2.7,1.6,2.6,3.1c-0.2,1.5-1.5,2.6-3.1,2.5L268.2,176.7z"/>
				<path class="st4" d="M267.7,195.8c0,1.6-1.3,2.8-2.9,2.8c-0.3,0-0.5,0-0.8-0.1c-2.7-0.7-5.4-1.5-8-2.2c-1.5-0.4-2.4-2-2-3.5
					c0.4-1.5,2-2.4,3.5-2c2.7,0.7,5.4,1.5,8,2.3C266.8,193.3,267.7,194.5,267.7,195.8z"/>
				<path class="st4" d="M257.5,113c1.3,0,2.4,0.8,2.8,2c0.4,1.2-0.1,2.5-1.1,3.2c-0.3,0.2-0.6,0.4-0.9,0.5l-6.8,3.3
					c-0.6,0.4-1.4,0.5-2.1,0.4c-1.1-0.2-2-1-2.2-2.1c-0.3-1.1,0.2-2.3,1.1-3c0.2-0.2,0.4-0.3,0.7-0.4c2.3-1.2,4.7-2.3,7-3.4
					C256.4,113.3,256.9,113.1,257.5,113z"/>
				<path class="st4" d="M266,129.4c0,1.2-0.8,2.4-2,2.8c-2.7,0.9-5.3,1.8-8,2.7c-1.5,0.5-3.1-0.3-3.6-1.7c0,0,0,0,0,0
					c-0.5-1.5,0.4-3.1,1.9-3.6c0,0,0,0,0,0c2.6-0.9,5.2-1.8,7.9-2.7c1.5-0.6,3.1,0.2,3.7,1.7C265.9,128.7,266,129,266,129.4z"/>
				<path class="st4" d="M52,204.5c-1.6,0.2-2.9-1-3.1-2.5c-0.1-1.3,0.7-2.5,1.9-2.9c1.2-0.5,2.4-0.8,3.6-1.2c1.5-0.5,2.9-1,4.4-1.5
					c1.4-0.5,3,0.1,3.7,1.4c0.7,1.4,0.1,3.1-1.3,3.8c-0.1,0.1-0.3,0.1-0.4,0.2c-1.8,0.6-3.6,1.2-5.3,1.8c-0.9,0.3-1.9,0.6-2.8,0.9
					C52.4,204.5,52.2,204.5,52,204.5z"/>
				<path class="st4" d="M154,61.8c0.2,1-0.2,1.9-0.8,2.6c-0.7,0.8-1.8,1.1-2.8,0.7c-1.1-0.3-1.8-1.2-1.9-2.3
					c-0.2-1.5-0.3-3-0.4-4.5c-0.1-1.3-0.1-2.7-0.3-4c-0.2-1.6,0.9-3,2.4-3.2c1.6-0.2,3,0.9,3.2,2.4c0,0.2,0,0.3,0,0.5
					C153.7,56.5,153.8,59,154,61.8z"/>
				<path class="st4" d="M97.5,262c0.1-0.5,0.3-1,0.6-1.5c1.4-2.4,2.8-4.8,4.3-7.1c0.5-1,1.6-1.6,2.8-1.4c1.1,0.1,2.1,0.8,2.4,1.9
					c0.3,0.8,0.2,1.6-0.2,2.3c-1.4,2.5-2.9,4.9-4.4,7.4c-0.7,1.1-2,1.6-3.3,1.3C98.4,264.4,97.6,263.3,97.5,262z"/>
				<path class="st4" d="M134,278c-1.6,0-2.8-1.3-2.8-2.9c0-0.2,0-0.4,0.1-0.5c0.5-2.7,1.1-5.4,1.7-8.2c0.3-1.5,1.6-2.5,3.1-2.4
					c1.4,0.1,2.5,1.2,2.6,2.6c0,0.8-0.1,1.6-0.3,2.3c-0.4,2.1-0.9,4.3-1.3,6.4C136.7,276.8,135.5,278,134,278z"/>
				<path class="st4" d="M160.1,268.8c0.1-0.7,0.3-1.4,0.6-2c0.5-1.1,1.7-1.6,2.9-1.4c1.3,0.2,2.2,1.2,2.4,2.5
					c0.2,2.1,0.3,4.3,0.5,6.5c0,0.7,0.1,1.4,0.1,2c0.2,1.6-1,3-2.5,3.1c0,0-0.1,0-0.1,0c-1.6,0.1-3-1.1-3.1-2.7c0-0.1,0-0.1,0-0.2
					c-0.2-2.6-0.3-5.1-0.5-7.7L160.1,268.8z"/>
				<path class="st4" d="M133.4,65.6c0.1,1.5-1,2.8-2.4,3c-1.5,0.1-2.8-0.8-3.2-2.2c-0.5-1.8-1-3.7-1.5-5.6
					c-0.2-0.8-0.4-1.6-0.6-2.4c-0.5-1.5,0.3-3.1,1.9-3.6c0.1,0,0.3-0.1,0.4-0.1c1.4-0.2,2.7,0.7,3.1,2c0.8,2.8,1.5,5.6,2.3,8.4
					C133.4,65.3,133.4,65.5,133.4,65.6z"/>
				<path class="st4" d="M257.6,159.3c0-1.5,1.2-2.7,2.7-2.9c2.8-0.2,5.5-0.4,8.3-0.6c1.4-0.1,2.7,0.7,3.1,2c0.4,1.5-0.4,3.1-2,3.6
					c-0.2,0.1-0.5,0.1-0.7,0.1c-2.8,0.2-5.5,0.4-8.3,0.6c-1.6,0.1-3-1-3.1-2.6C257.6,159.4,257.6,159.4,257.6,159.3z"/>
				<path class="st4" d="M253.2,103.2c0,1-0.4,2-1.3,2.6c-2.3,1.6-4.7,3.1-7,4.6c-1.3,0.9-3.1,0.5-3.9-0.8c-0.9-1.3-0.5-3.1,0.8-3.9
					l0,0c2.3-1.6,4.6-3.1,6.9-4.6c1.3-0.9,3-0.6,4,0.7c0.2,0.3,0.3,0.5,0.4,0.8C253.1,102.8,253.1,103,253.2,103.2z"/>
				<path class="st4" d="M46.6,175.2c-0.6-0.1-1.2-0.2-1.8-0.4c-1.2-0.5-1.9-1.6-1.7-2.9c0.2-1.3,1.2-2.3,2.5-2.5
					c1.3-0.1,2.7-0.2,4-0.3c1.7-0.1,3.3-0.2,5-0.3c1.5,0,2.8,1.3,2.7,2.8c0,0.8-0.4,1.6-1,2.1c-0.6,0.5-1.2,0.7-2,0.7l-7.7,0.5
					C46.6,175.2,46.6,175.2,46.6,175.2z"/>
				<path class="st4" d="M254.7,197c0.3,0,0.7,0.1,1,0.2c2.6,0.9,5.2,1.8,7.8,2.7c1.5,0.4,2.4,2,1.9,3.5c-0.4,1.5-2,2.4-3.5,1.9
					c-0.1,0-0.2-0.1-0.3-0.1c-1.8-0.6-3.7-1.3-5.5-1.9c-0.8-0.3-1.6-0.5-2.4-0.9c-1.5-0.5-2.2-2.2-1.7-3.6
					C252.4,197.7,253.4,197,254.7,197L254.7,197z"/>
				<path class="st4" d="M235.8,228.6c0-1,0.5-2,1.5-2.5c1-0.6,2.3-0.4,3.2,0.3c2,1.5,3.9,3,5.8,4.6c0.3,0.2,0.6,0.4,0.9,0.7
					c1.2,1,1.4,2.8,0.4,4c-1,1.2-2.7,1.4-3.9,0.5c-2.3-1.8-4.6-3.6-6.8-5.4C236.1,230.3,235.8,229.5,235.8,228.6z"/>
				<path class="st4" d="M222,258c0,1.2-0.8,2.3-1.9,2.7c-1.2,0.4-2.5,0-3.3-0.9c-0.3-0.4-0.6-0.8-0.9-1.2c-1.3-2-2.6-3.9-3.9-5.9
					c-0.9-1.3-0.6-3.1,0.7-4s3.1-0.6,4,0.7c1.6,2.4,3.2,4.7,4.7,7.1C221.7,257,221.9,257.5,222,258z"/>
				<path class="st4" d="M209,251.6c0.9,0.1,1.7,0.6,2.1,1.4c1.4,2.5,2.9,4.9,4.3,7.4c0.8,1.4,0.3,3.1-1.1,3.9
					c-1.4,0.8-3.1,0.3-3.9-1.1l0,0c-1.4-2.4-2.9-4.9-4.2-7.3c-0.8-1.4-0.3-3.1,1.1-3.9C207.8,251.7,208.4,251.5,209,251.6z"/>
				<path class="st4" d="M82.5,233.4c0,0.9-0.4,1.8-1.1,2.4c-2.1,1.8-4.2,3.6-6.3,5.4c-0.8,0.7-2,0.9-3,0.5c-1-0.3-1.7-1.2-1.7-2.3
					c-0.1-1,0.3-1.9,1-2.5c2.1-1.8,4.2-3.7,6.3-5.5c1.1-1.1,2.9-1,4,0.1c0.3,0.3,0.5,0.7,0.7,1.2C82.4,233,82.5,233.2,82.5,233.4z"
					/>
				<path class="st4" d="M211,65.6c-0.1,0.4-0.2,0.8-0.3,1.1c-1.3,2.6-2.6,5.2-4,7.8c-0.5,1.1-1.7,1.6-2.9,1.5
					c-1-0.1-1.9-0.8-2.2-1.8c-0.3-0.7-0.2-1.6,0.1-2.3c1.3-2.5,2.6-5.1,3.9-7.6c0.6-1.2,2-1.8,3.4-1.5C210.2,63.3,211,64.4,211,65.6
					z"/>
				<path class="st4" d="M219.8,244.3c0.9,0,1.8,0.4,2.4,1.2c1.7,2.2,3.4,4.4,5,6.6c1,1.2,0.8,3-0.4,4c-0.4,0.3-0.9,0.6-1.5,0.6
					c-1,0.1-2-0.3-2.6-1.1c-1.8-2.3-3.5-4.5-5.2-6.8c-0.7-0.9-0.8-2.1-0.2-3.1C217.8,244.8,218.7,244.2,219.8,244.3z"/>
				<path class="st4" d="M124.1,272.9l0.6-2.1c0.6-2.1,1.2-4.2,1.8-6.3c0.4-1.5,1.9-2.5,3.4-2.1c1.5,0.4,2.5,1.9,2.1,3.4
					c0,0,0,0,0,0.1c-0.7,2.7-1.5,5.4-2.3,8.1c-0.4,1.4-1.8,2.3-3.3,2.1C124.9,275.8,123.9,274.4,124.1,272.9z"/>
				<path class="st4" d="M68.7,236.4c-1.1,0-2.1-0.6-2.5-1.6c-0.5-1-0.3-2.3,0.6-3.1c0.5-0.5,1.1-1,1.7-1.4c1.8-1.3,3.5-2.7,5.3-4
					c1.2-1,3-0.9,4,0.3c0.3,0.4,0.5,0.8,0.6,1.3c0.2,1.2-0.3,2.4-1.3,3l-4.8,3.6c-0.5,0.4-1.1,0.8-1.7,1.2c-0.6,0.3-1.2,0.6-1.8,0.8
					L68.7,236.4z"/>
				<path class="st4" d="M46.9,182.7c-1.6,0.1-2.9-1-3.1-2.6c-0.1-1.6,1-2.9,2.6-3.1c2.8-0.4,5.5-0.8,8.3-1.1c1.5-0.2,3,0.8,3.3,2.3
					c0.3,1.6-0.7,3-2.3,3.3c-0.1,0-0.1,0-0.2,0c-2.8,0.4-5.6,0.7-8.4,1.1L46.9,182.7z"/>
				<path class="st4" d="M71.7,110.1c-0.6-0.2-1.2-0.4-1.7-0.7c-2.3-1.5-4.5-3.1-6.8-4.7c-1.3-0.9-1.6-2.7-0.7-4s2.7-1.6,4-0.7
					c2.3,1.6,4.6,3.1,6.8,4.7c1,0.6,1.5,1.8,1.3,2.9c-0.1,1.1-0.9,1.9-2,2.2c-0.3,0.1-0.5,0.1-0.8,0.1L71.7,110.1z"/>
				<path class="st4" d="M180.9,264.9c-0.1-1.6,1.1-2.9,2.6-3c1.3-0.1,2.5,0.7,2.9,2c0.4,1.3,0.7,2.5,1,3.8c0.4,1.5,0.8,2.9,1.2,4.4
					c0.5,1.5-0.3,3.1-1.8,3.6c-0.3,0.1-0.7,0.2-1.1,0.1c-1.2-0.1-2.2-0.9-2.5-2c-0.8-2.8-1.5-5.6-2.3-8.4
					C180.9,265.2,180.9,265,180.9,264.9z"/>
				<path class="st4" d="M126.9,67.8c0.1,1.6-1.2,2.9-2.7,2.9c-1.3,0-2.4-0.7-2.8-1.9c-0.5-1.4-1-2.9-1.5-4.3
					c-0.4-1.3-0.9-2.6-1.3-3.9c-0.4-1.5,0.4-3.1,1.9-3.5c0.3-0.1,0.6-0.1,0.9-0.1c1.2,0,2.2,0.8,2.6,1.9c1,2.7,1.9,5.4,2.8,8.1
					C126.8,67.2,126.8,67.5,126.9,67.8z"/>
				<path class="st4" d="M119.9,274c-1.6,0-2.8-1.3-2.8-2.9c0-0.3,0.1-0.6,0.2-0.9c0.9-2.7,1.9-5.4,2.9-8.1c0.5-1.5,2.2-2.2,3.6-1.7
					c1.5,0.5,2.2,2.2,1.7,3.6c-0.9,2.7-1.8,5.3-2.8,8C122.2,273.2,121.1,274,119.9,274z"/>
				<path class="st4" d="M103.9,265.3c0.1-0.4,0.2-0.8,0.4-1.2c1.2-2.5,2.5-4.9,3.8-7.4c0.5-1.1,1.6-1.7,2.8-1.6
					c1.1,0,2.1,0.7,2.4,1.8c0.3,0.7,0.3,1.6-0.1,2.3c-1.3,2.6-2.6,5.1-3.9,7.7c-0.6,1.1-1.8,1.7-3,1.5c-1.1-0.2-2-1-2.2-2.1
					C103.9,265.9,103.9,265.6,103.9,265.3z"/>
				<path class="st4" d="M169.6,62.6c0.2-1.7,0.5-3.6,0.8-5.5c0.1-0.9,0.3-1.8,0.4-2.8c0.2-1.5,1.6-2.6,3.1-2.5
					c1.6,0.2,2.7,1.6,2.5,3.1c0,0,0,0,0,0c-0.2,2.2-0.6,4.4-0.9,6.6c-0.1,0.7-0.2,1.3-0.3,1.9c-0.2,1.6-1.6,2.7-3.1,2.5
					c-1.6-0.2-2.7-1.6-2.5-3.1C169.5,62.8,169.6,62.7,169.6,62.6L169.6,62.6z"/>
				<path class="st4" d="M110.4,268.5c0.1-0.4,0.2-0.8,0.3-1.1c1.1-2.5,2.2-5.1,3.3-7.6c0.6-1.5,2.2-2.2,3.7-1.6
					c0.3,0.1,0.5,0.3,0.8,0.5c1,0.8,1.3,2.2,0.7,3.4c-0.7,1.8-1.5,3.5-2.3,5.3c-0.3,0.8-0.7,1.6-1.1,2.5c-0.5,1.1-1.7,1.8-2.9,1.7
					c-1.2-0.1-2.1-0.9-2.4-2C110.4,269.1,110.4,268.8,110.4,268.5z"/>
				<path class="st4" d="M61.7,227.7c0-0.9,0.4-1.8,1.2-2.3c2.4-1.6,4.8-3.3,7.3-4.8c1.3-0.8,3.1-0.4,3.9,0.9c0.8,1.4,0.4,3.1-0.9,4
					c0,0,0,0,0,0c-2,1.4-4,2.7-6,4c-0.4,0.3-0.9,0.6-1.3,0.8c-1.4,0.7-3.1,0.2-3.8-1.2C61.8,228.6,61.7,228.2,61.7,227.7z"/>
				<path class="st4" d="M239.4,105.6c-1.2-0.1-2.3-0.8-2.7-1.9c-0.4-1.2,0-2.5,1-3.3c1.6-1.2,3.2-2.4,4.8-3.6
					c0.7-0.5,1.4-1.1,2.1-1.5c0.9-0.7,2.1-0.7,3.1-0.1c0.9,0.5,1.5,1.5,1.4,2.6c0,0.8-0.4,1.6-1.1,2.1c-2.3,1.7-4.5,3.4-6.8,5.1
					C240.5,105.2,240,105.5,239.4,105.6z"/>
				<path class="st4" d="M83.7,78.3c0.8,0,1.6,0.3,2.2,0.9c1.9,2.2,3.9,4.4,5.7,6.7c1,1.2,0.8,2.9-0.4,3.9c-0.4,0.3-0.9,0.6-1.4,0.6
					c-1,0.2-2-0.2-2.6-1c-1.9-2.1-3.8-4.3-5.6-6.5c-0.8-0.9-0.9-2.1-0.4-3.1C81.7,78.9,82.6,78.3,83.7,78.3z"/>
				<path class="st4" d="M220.6,86.7c-1,0-1.8-0.6-2.2-1.5c-0.6-1-0.5-2.2,0.3-3.1c0.8-1,1.6-2,2.3-3c0.9-1.2,1.9-2.4,2.8-3.6
					c0.7-1,2.1-1.5,3.3-1.1c1.5,0.5,2.3,2.1,1.8,3.6c-0.1,0.4-0.3,0.7-0.5,1c-0.9,1.2-1.8,2.3-2.7,3.5l-2.3,3
					C222.7,86.3,221.7,86.7,220.6,86.7z"/>
				<path class="st4" d="M80.4,249.3c0-0.7,0.2-1.4,0.7-1.9c1.9-2.1,3.7-4.2,5.6-6.3c1-1.2,2.8-1.3,4-0.3c1.2,1,1.3,2.8,0.3,4
					c0,0,0,0,0,0c-1.9,2.2-3.8,4.3-5.8,6.4c-0.8,0.9-2.1,1.2-3.2,0.7C81,251.4,80.4,250.4,80.4,249.3z"/>
				<path class="st4" d="M254.2,138.7c0-1.3,0.9-2.4,2.1-2.7c2.8-0.8,5.6-1.6,8.4-2.3c1.5-0.3,2.9,0.6,3.3,2
					c0.4,1.5-0.6,3.1-2.1,3.5c-1.6,0.4-3.2,0.9-4.7,1.3c-1.2,0.3-2.4,0.7-3.6,0.9c-1.5,0.3-3-0.7-3.3-2.2
					C254.2,139,254.2,138.9,254.2,138.7z"/>
				<path class="st4" d="M54.5,153.1l-4.5-0.6l-3.8-0.5c-1.6-0.2-2.7-1.6-2.5-3.2c0.2-1.6,1.6-2.7,3.2-2.5c2.8,0.4,5.6,0.7,8.4,1.2
					c1.5,0.2,2.6,1.6,2.4,3.2c0,0,0,0,0,0C57.4,152.2,56,153.3,54.5,153.1z"/>
				<path class="st4" d="M192,70.7c-1.6,0-2.8-1.3-2.8-2.8c0-0.3,0.1-0.6,0.2-0.9c0.9-2.7,1.9-5.4,2.9-8.1c0.5-1.5,2.1-2.2,3.6-1.7
					c0,0,0,0,0,0c1.5,0.6,2.2,2.2,1.7,3.7c-0.9,2.7-1.9,5.3-2.8,7.9C194.4,70,193.3,70.8,192,70.7z"/>
				<path class="st4" d="M62.5,130.7c0,1.6-1.3,2.8-2.8,2.8c-0.3,0-0.6-0.1-0.9-0.2c-2.7-0.9-5.4-1.9-8.1-2.9
					c-1.5-0.5-2.3-2.1-1.7-3.6c0,0,0,0,0,0c0.6-1.5,2.2-2.2,3.7-1.7c0,0,0,0,0,0c2.6,0.9,5.2,1.8,7.8,2.8
					C61.7,128.4,62.5,129.5,62.5,130.7z"/>
				<path class="st4" d="M246.7,116.7c-1.2,0-2.3-0.8-2.7-1.9c-0.4-1.2,0-2.4,1-3.2c0.1-0.1,0.3-0.2,0.4-0.3
					c2.4-1.4,4.8-2.8,7.2-4.1c1.3-0.8,3.1-0.4,3.9,1c0.1,0.2,0.2,0.4,0.3,0.6c0.4,1.2-0.1,2.6-1.2,3.2c-2.5,1.5-5,2.9-7.6,4.3
					C247.6,116.5,247.2,116.6,246.7,116.7z"/>
				<path class="st4" d="M242.6,220.4c0.6,0.2,1.2,0.4,1.7,0.7c2.3,1.5,4.5,3.1,6.7,4.6c1,0.6,1.5,1.7,1.3,2.9
					c-0.1,1.1-0.9,2-1.9,2.3c-0.8,0.3-1.8,0.2-2.5-0.3c-2.4-1.6-4.7-3.2-7-4.8c-1.1-0.7-1.5-2.1-1.1-3.3
					C240.3,221.3,241.4,220.5,242.6,220.4z"/>
				<path class="st4" d="M233.3,249.4c0,1.1-0.7,2.1-1.7,2.6c-1.1,0.4-2.4,0.1-3.3-0.7c-0.4-0.5-0.9-1-1.3-1.5
					c-1.4-1.6-2.8-3.3-4.2-4.9c-1.1-1.1-1-2.9,0.1-4c0.3-0.3,0.7-0.5,1.2-0.7c1-0.3,2.2,0,2.9,0.8c1.9,2.1,3.8,4.3,5.6,6.6
					c0.3,0.6,0.6,1.2,0.8,1.8L233.3,249.4z"/>
				<path class="st4" d="M82.7,96.8c0,1.1-0.6,2.1-1.6,2.5c-1.1,0.5-2.4,0.3-3.3-0.5c-1.3-1.1-2.5-2.2-3.8-3.4
					c-0.8-0.8-1.7-1.5-2.5-2.3c-0.8-0.7-1.1-1.9-0.7-2.9c0.3-1,1.2-1.8,2.2-1.9c0.9-0.2,1.7,0.1,2.4,0.7c2.1,1.9,4.2,3.7,6.3,5.6
					C82.4,95.2,82.7,96,82.7,96.8z"/>
				<path class="st4" d="M249.3,206.3c-0.1-1.6,1.1-3,2.7-3.1c0.5,0,1,0.1,1.4,0.3c2.5,1.1,5,2.1,7.5,3.2c0.9,0.3,1.5,1.1,1.8,2
					c0.3,1,0,2.1-0.9,2.8c-0.8,0.8-2.1,0.9-3.1,0.5c-2.1-0.9-4.3-1.8-6.4-2.8c-0.5-0.2-1-0.4-1.4-0.6
					C250,208.2,249.4,207.3,249.3,206.3z"/>
				<path class="st4" d="M229.8,235.6c0.8,0,1.6,0.3,2.2,0.9c2,2,3.9,4,5.9,6c1.1,1.1,1.1,2.9,0,4c-1.1,1.1-2.9,1.1-4,0
					c-2-2-4-4-6-6.1c-0.8-0.8-1-2.1-0.5-3.2C227.7,236.2,228.7,235.6,229.8,235.6z"/>
				<path class="st4" d="M260,155.1c-1.6,0.1-2.9-1-3-2.6c-0.1-1.5,1-2.9,2.5-3c2.8-0.4,5.5-0.8,8.3-1.1c1.5-0.2,3,0.8,3.3,2.3
					c0.2,1.6-0.8,3-2.4,3.3c0,0-0.1,0-0.1,0c-2.7,0.4-5.4,0.7-8.1,1.1L260,155.1z"/>
				<path class="st4" d="M57.2,139.9l-1.8-0.5c-2.2-0.6-4.4-1.2-6.6-1.9c-1.5-0.4-2.5-1.9-2.1-3.4s1.9-2.5,3.4-2.1
					c2.8,0.8,5.5,1.5,8.3,2.3c1.4,0.4,2.3,1.8,2,3.3C60.1,139.1,58.7,140,57.2,139.9z"/>
				<path class="st4" d="M225.9,90.9c-1.1,0-2.1-0.6-2.5-1.6c-0.5-1.1-0.3-2.3,0.5-3.2c1.6-1.9,3.3-3.7,5-5.5
					c0.2-0.3,0.4-0.5,0.7-0.8c1.1-1.2,2.8-1.3,4-0.2s1.3,2.8,0.2,4c-0.6,0.7-1.2,1.3-1.8,2l-3.8,4.2
					C227.7,90.6,226.8,90.9,225.9,90.9z"/>
				<path class="st4" d="M78.5,102.1c0,1-0.6,1.9-1.5,2.3c-1,0.5-2.3,0.4-3.2-0.4c-1.7-1.3-3.4-2.6-5-4c-0.6-0.4-1.2-0.9-1.8-1.4
					c-0.8-0.7-1.1-1.8-0.8-2.8c0.2-1,1-1.7,2-1.9c0.9-0.2,1.8-0.1,2.5,0.5c2.2,1.8,4.5,3.5,6.7,5.3
					C78.2,100.2,78.5,101.2,78.5,102.1z"/>
				<path class="st4" d="M48.1,139l3.5,0.7c1.6,0.3,3.2,0.7,4.9,1c1.6,0.3,2.6,1.7,2.4,3.3c-0.3,1.6-1.7,2.6-3.3,2.4
					c-0.1,0-0.2,0-0.2,0c-2.7-0.5-5.5-1.1-8.2-1.7c-1.5-0.3-2.4-1.7-2.2-3.2C45.2,139.9,46.6,138.9,48.1,139z"/>
				<path class="st4" d="M195.9,270.8c0.1,1.6-1.2,2.9-2.7,2.9c-1.2,0-2.4-0.7-2.8-1.9c-0.5-1.3-0.9-2.6-1.4-3.9s-0.9-2.7-1.4-4
					c-0.6-1.5,0.2-3.2,1.7-3.7c0.2-0.1,0.4-0.1,0.5-0.2c1.3-0.2,2.6,0.6,3.1,1.8c1,2.7,1.9,5.5,2.8,8.3
					C195.8,270.3,195.8,270.5,195.9,270.8z"/>
				<path class="st4" d="M252.6,128.7c-1.6,0-2.8-1.3-2.8-2.8c0-1.1,0.7-2.2,1.7-2.6c1.3-0.6,2.7-1.1,4-1.7c1.3-0.6,2.6-1.1,3.9-1.6
					c1.4-0.6,3.1,0,3.8,1.5c0.6,1.4,0,3.1-1.4,3.7c-2.7,1.2-5.4,2.3-8.1,3.3C253.3,128.6,253,128.6,252.6,128.7z"/>
				<path class="st4" d="M145.3,268.5c-0.2,1.7-0.5,3.6-0.8,5.5c-0.1,0.9-0.3,1.9-0.4,2.8c-0.2,1.6-1.7,2.7-3.3,2.4
					c-1.5-0.2-2.5-1.6-2.4-3.1c0.2-1.9,0.5-3.8,0.8-5.7c0.1-0.9,0.3-1.9,0.4-2.8c0.2-1.6,1.6-2.6,3.2-2.5
					C144.4,265.4,145.5,266.9,145.3,268.5z"/>
				<path class="st4" d="M65,124.2c0.1,1.6-1.1,2.9-2.7,3c-0.4,0-0.9-0.1-1.3-0.2c-1.6-0.7-3.2-1.4-4.8-2.1c-1-0.4-2-0.8-3-1.3
					c-1.1-0.5-1.8-1.6-1.7-2.9c0.1-1.2,1-2.2,2.2-2.4c0.6-0.1,1.2-0.1,1.8,0.1c2.6,1,5.2,2.2,7.7,3.3
					C64.2,122.2,64.9,123.2,65,124.2z"/>
				<path class="st4" d="M111.5,62.3c0-1.6,1.3-2.9,2.9-2.9c1.2,0,2.3,0.7,2.7,1.9c0.8,1.9,1.6,3.9,2.4,5.8c0.3,0.6,0.5,1.2,0.7,1.8
					c0.7,1.5,0,3.2-1.4,3.8c-1.5,0.6-3.1-0.1-3.8-1.6c0,0,0-0.1,0-0.1c-1.1-2.6-2.1-5.1-3.2-7.7C111.7,63.1,111.6,62.7,111.5,62.3z"
					/>
				<path class="st4" d="M227.9,92.7c0-0.8,0.3-1.6,0.9-2.1c2-2,4-4,6-5.9c1.1-1.1,2.9-1.1,4-0.1c0.3,0.3,0.6,0.7,0.7,1.2
					c0.3,1,0.1,2.1-0.7,2.9c-2,2-4,4-6.1,6c-0.8,0.9-2.2,1.1-3.2,0.5C228.5,94.8,227.9,93.8,227.9,92.7z"/>
				<path class="st4" d="M108,62.5c1,0.1,1.9,0.6,2.3,1.5c1.3,2.5,2.6,5.1,3.8,7.6c0.8,1.3,0.4,3.1-0.9,3.9
					c-1.3,0.8-3.1,0.4-3.9-0.9c-0.1-0.2-0.2-0.3-0.2-0.5c-1.3-2.5-2.5-5-3.7-7.6c-0.7-1.4-0.1-3.1,1.3-3.8
					C107,62.5,107.5,62.4,108,62.5z"/>
				<path class="st4" d="M215.4,82.8c-1,0-1.8-0.6-2.3-1.4c-0.5-0.9-0.5-2.1,0.1-3c1-1.5,2-3,3.1-4.4c0.6-0.8,1.1-1.7,1.8-2.5
					c0.6-1,1.8-1.4,2.9-1.2c1,0.1,1.8,0.9,2.1,1.8c0.3,0.8,0.2,1.8-0.3,2.5c-1.6,2.3-3.2,4.7-4.9,7
					C217.4,82.3,216.4,82.8,215.4,82.8z"/>
				<path class="st4" d="M89.3,73.8c0.8,0,1.6,0.3,2.1,0.9c1.8,2.4,3.7,4.7,5.4,7.2c0.9,1.3,0.5,3-0.7,3.9c-0.2,0.2-0.5,0.3-0.8,0.4
					c-1.2,0.3-2.6-0.1-3.3-1.2c-1.6-2.1-3.3-4.3-4.9-6.4c-0.3-0.4-0.5-0.9-0.6-1.4c-0.3-1.5,0.6-2.9,2.1-3.2
					C88.9,73.8,89.1,73.8,89.3,73.8z"/>
				<path class="st4" d="M259,148.2c-1.8,0-3.1-1-3.3-2.3c-0.2-1.5,0.7-2.9,2.2-3.2c2.9-0.6,5.7-1.2,8.6-1.7
					c1.4-0.2,2.8,0.8,3.2,2.2c0.3,1.5-0.6,3-2,3.4c-1.7,0.4-3.4,0.7-5.1,1C261.3,147.8,260,148,259,148.2z"/>
				<path class="st4" d="M240.8,242.2c-0.7,0-1.5-0.3-2-0.8c-2.1-1.9-4.2-3.7-6.2-5.6c-0.9-0.7-1.2-1.9-0.8-3
					c0.3-1.1,1.2-1.8,2.3-1.9c0.8-0.1,1.7,0.1,2.3,0.7c2.2,1.9,4.3,3.8,6.4,5.7c0.9,0.8,1.2,2.1,0.7,3.2
					C242.9,241.6,241.9,242.2,240.8,242.2z"/>
				<path class="st4" d="M162.7,61.8c0.2-2.7,0.4-5.4,0.6-8c0.1-1.5,1.4-2.7,2.9-2.7c1.6,0.1,2.8,1.4,2.7,3c0,0,0,0,0,0
					c-0.1,2.9-0.3,5.7-0.6,8.6c-0.1,1.5-1.4,2.7-2.9,2.7c-0.1,0-0.2,0-0.3,0c-1.5-0.2-2.6-1.6-2.5-3.1
					C162.7,62.1,162.7,62,162.7,61.8L162.7,61.8z"/>
				<path class="st4" d="M48.3,190.1c-1.5,0.2-2.9-0.9-3.2-2.3c-0.2-1.5,0.7-2.9,2.2-3.2c2.8-0.6,5.7-1.2,8.6-1.7
					c1.5-0.2,2.8,0.7,3.2,2.1c0.4,1.5-0.6,3-2.1,3.4c-1.7,0.4-3.4,0.7-5.2,1.1L48.3,190.1z"/>
				<path class="st4" d="M57.7,189.6c1.6-0.1,2.9,1.1,3,2.7c0.1,1.4-0.8,2.6-2.2,2.9c-1.9,0.5-3.8,1-5.6,1.5l-2.3,0.6
					c-1.5,0.5-3.2-0.4-3.7-1.9c-0.4-1.5,0.5-3.1,2.1-3.6c0,0,0.1,0,0.1,0c2.7-0.8,5.4-1.5,8.1-2.2C57.3,189.6,57.5,189.6,57.7,189.6
					z"/>
				<path class="st4" d="M51.5,208.2c0.1-1.1,0.8-2,1.8-2.3c2.6-1.1,5.3-2.2,7.9-3.3c1.5-0.6,3.1,0.2,3.7,1.6
					c0.6,1.5-0.2,3.1-1.6,3.7c-2.3,1-4.6,1.9-7,2.9c-0.5,0.2-1,0.4-1.5,0.5c-1.6,0.2-3-0.8-3.3-2.4
					C51.5,208.7,51.5,208.4,51.5,208.2z"/>
				<path class="st4" d="M99.8,82.4c-0.9-0.1-1.8-0.6-2.3-1.3c-1.6-2.3-3.1-4.7-4.6-7c-0.9-1.3-0.5-3,0.7-3.9c1.3-0.9,3-0.6,3.9,0.7
					c0,0,0,0,0,0c1.7,2.4,3.3,4.8,4.8,7.3c0.8,1.3,0.4,3.1-1,3.9C100.9,82.3,100.3,82.4,99.8,82.4z"/>
				<path class="st4" d="M108.5,76.1c-0.1,1.2-0.9,2.3-2.1,2.7c-1.2,0.4-2.6-0.2-3.2-1.3c-1.5-2.5-2.9-5-4.3-7.6
					c-0.7-1.4-0.2-3.1,1.1-3.8c1.3-0.7,3-0.3,3.8,1c1.5,2.5,2.9,5,4.3,7.5C108.3,75.1,108.4,75.6,108.5,76.1z"/>
				<path class="st4" d="M87.3,92.1c0,1.1-0.6,2.1-1.7,2.5c-1.1,0.5-2.4,0.3-3.2-0.6c-1.3-1.2-2.5-2.5-3.7-3.8
					c-0.8-0.8-1.5-1.5-2.3-2.3c-0.8-0.8-1-1.9-0.6-2.9c0.3-1,1.2-1.7,2.2-1.8c0.9-0.2,1.8,0.1,2.4,0.8c2,2,4,4,6,6.1
					C87,90.6,87.3,91.3,87.3,92.1z"/>
				<path class="st4" d="M241.7,89.2c1.1,0,2.2,0.7,2.6,1.7c0.5,1.1,0.1,2.4-0.8,3.2c-1.2,1.1-2.4,2.1-3.6,3.1
					c-1,0.8-1.9,1.7-2.9,2.4c-1.2,1-3,0.9-4-0.3c-0.3-0.3-0.5-0.7-0.6-1.2c-0.3-1,0-2.1,0.8-2.8c2.2-1.9,4.3-3.8,6.6-5.6
					c0.6-0.3,1.1-0.6,1.8-0.8L241.7,89.2z"/>
				<path class="st4" d="M266.4,191.5l-3.7-0.8c-1.6-0.4-3.3-0.7-5-1c-1.6-0.3-2.6-1.8-2.3-3.4c0,0,0,0,0,0c0.4-1.5,1.9-2.4,3.5-2.1
					c2.7,0.6,5.4,1.1,8.1,1.7c1.3,0.2,2.3,1.4,2.4,2.7c0.1,1.3-0.8,2.5-2.1,2.8C267,191.4,266.7,191.5,266.4,191.5z"/>
				<path class="st4" d="M140.2,54.8c-0.1-1.5,1-2.8,2.4-3c1.5-0.2,3,0.9,3.2,2.4c0,0,0,0,0,0c0.4,2.8,0.8,5.5,1.1,8.3
					c0.2,1.6-0.8,3-2.4,3.3c-1.6,0.2-3-0.8-3.3-2.4c0,0,0-0.1,0-0.1c-0.4-2.8-0.8-5.6-1.1-8.5C140.2,55,140.2,54.9,140.2,54.8z"/>
				<path class="st4" d="M137.3,67.1c-1.4,0-2.5-0.9-2.8-2.3c-0.5-2.2-0.9-4.5-1.4-6.7c-0.2-0.7-0.3-1.4-0.3-2.1
					c-0.1-1.5,1-2.8,2.4-3c1.4-0.2,2.8,0.8,3.1,2.2c0.6,2.8,1.2,5.7,1.7,8.6c0.3,1.5-0.8,3-2.3,3.3C137.6,67,137.5,67.1,137.3,67.1z
					"/>
				<path class="st4" d="M214,66.2c2.7,0,3.9,2.3,2.8,4.3c-0.7,1.3-1.5,2.6-2.3,3.8c-0.7,1.1-1.3,2.2-2,3.3
					c-0.7,1.1-1.9,1.6-3.1,1.4c-1.5-0.4-2.5-1.9-2.1-3.4c0.1-0.3,0.2-0.5,0.3-0.8c1.4-2.5,2.9-5,4.5-7.5
					C212.5,66.8,213.2,66.3,214,66.2z"/>
				<path class="st4" d="M195.4,70.3c0.1-0.4,0.2-0.8,0.4-1.3c1-2.5,2.1-5,3.2-7.5c0.5-1.5,2.2-2.3,3.7-1.7c0.4,0.2,0.8,0.4,1.1,0.7
					c0.8,0.8,1,2,0.5,3c-1.1,2.6-2.2,5.2-3.4,7.8c-0.6,1.3-2,2-3.3,1.7C196.3,72.7,195.4,71.6,195.4,70.3z"/>
				<path class="st4" d="M87,238.4c0,0.8-0.3,1.5-0.8,2.1c-2,2-4,4-6.1,5.9c-1.1,1.1-2.9,1.1-4,0c-1.1-1.1-1.1-2.9,0-4
					c2-2,4-4,6.1-5.9c0.8-0.9,2.1-1.1,3.2-0.6C86.4,236.3,87,237.3,87,238.4z"/>
				<path class="st4" d="M224.1,143.1c1.1,0,2,0.9,2.1,2c0,1.1-0.9,2.1-2.1,2.1s-2.1-0.9-2.1-2.1l0,0
					C222.1,143.9,223,143.1,224.1,143.1z"/>
				<path class="st4" d="M131,212.4c0,1.1-0.9,2.1-2,2.1c-1.1,0-2.1-0.9-2.1-2c0,0,0,0,0,0c0-1.1,0.9-2,2.1-2
					C130.1,210.4,131,211.3,131,212.4z"/>
				<path class="st4" d="M185.7,213.8c-1.1,0-2-1-1.9-2.1s1-2,2.1-1.9c1.1,0,1.9,0.9,1.9,2C187.7,212.9,186.8,213.8,185.7,213.8z"/>
				<path class="st4" d="M249.2,186.4c0,1.1-0.9,2.1-2.1,2.1s-2.1-0.9-2.1-2.1c0-1.1,0.8-2,1.9-2.1c0,0,0.1,0,0.1,0
					C248.3,184.3,249.2,185.2,249.2,186.4z"/>
				<path class="st4" d="M68.8,188.6c0,1.1-0.9,2-2,2.1c-1.1,0-2.1-0.9-2.1-2.1c0-1.1,0.9-2,2-2C67.9,186.6,68.8,187.5,68.8,188.6z"
					/>
				<path class="st4" d="M88.4,231c0-1.1,0.9-2,2-2c1.1,0,2,0.8,2,1.9c0,0,0,0,0,0.1c0,1.1-0.9,2.1-2.1,2.1
					C89.3,233,88.4,232.1,88.4,231z"/>
				<path class="st4" d="M101.5,166.8c-1.1,0-2.1-0.9-2.1-2.1s0.9-2.1,2.1-2.1s2.1,0.9,2.1,2.1S102.6,166.8,101.5,166.8z"/>
				<path class="st4" d="M199.4,231c0,1.1-0.9,2-2,2c-1.1,0-2-0.9-2-2s0.9-2,2-2C198.5,228.9,199.4,229.8,199.4,231
					C199.4,230.9,199.4,231,199.4,231z"/>
				<path class="st4" d="M224.3,228.9c0-1.1,0.9-2,2-2c1.1,0,2,0.8,2,1.9c0,0,0,0,0,0.1c0,1.1-0.9,2.1-2.1,2.1
					C225.1,230.9,224.2,230,224.3,228.9C224.2,228.9,224.2,228.9,224.3,228.9z"/>
				<path class="st4" d="M175.4,232.9c-1.1,0-2-0.9-2-2.1c0-1.1,1-2,2.1-2c1.1,0,2,0.9,2,2c0,0,0,0.1,0,0.1
					C177.5,232.1,176.5,232.9,175.4,232.9C175.4,232.9,175.4,232.9,175.4,232.9z"/>
				<path class="st4" d="M87.6,180.9c1.1,0,2,0.9,2,2c0,1.1-0.9,2-2,2.1c-1.1,0-2.1-0.9-2.1-2c0,0,0,0,0,0
					C85.6,181.7,86.5,180.9,87.6,180.9C87.6,180.9,87.6,180.9,87.6,180.9z"/>
				<path class="st4" d="M205.6,134c1.1,0,2,1,1.9,2.1c0,1.1-1,2-2.1,1.9c-1.1,0-1.9-0.9-1.9-2C203.5,134.9,204.4,134,205.6,134
					C205.5,134,205.6,134,205.6,134z"/>
				<path class="st4" d="M139,230.2c1.1,0,2,0.9,2,2c0,1.1-0.9,2-2.1,2.1c-1.1,0-2.1-0.9-2.1-2.1c0,0,0,0,0,0
					C136.9,231,137.8,230.1,139,230.2C139,230.2,139,230.2,139,230.2z"/>
				<path class="st4" d="M175.3,97.3c0,1.1-0.9,2-2,2c-1.1,0-2-0.9-2.1-2c0-1.1,1-2,2.1-2C174.4,95.3,175.3,96.2,175.3,97.3z"/>
				<path class="st4" d="M195,94.8c1.1,0,2,0.9,2,2s-0.9,2-2,2c-1.1,0-2-0.9-2.1-2C192.9,95.7,193.8,94.8,195,94.8
					C195,94.8,195,94.8,195,94.8z"/>
				<path class="st4" d="M139.3,97.2c0,1.1-0.9,2-2,2c-1.1,0-2-0.8-2.1-1.9c0,0,0-0.1,0-0.1c0-1.1,1-2,2.1-2
					C138.4,95.2,139.3,96.1,139.3,97.2C139.3,97.2,139.3,97.2,139.3,97.2z"/>
				<path class="st4" d="M105.8,212.1c1.1,0,2,0.9,2,2s-0.9,2-2,2s-2-0.9-2-2S104.7,212.1,105.8,212.1z"/>
				<path class="st4" d="M226.2,200.1c1.1,0,2,0.9,2,2c0,1.1-0.9,2.1-2.1,2.1s-2.1-0.9-2.1-2.1c0-1.1,0.9-2,2-2
					C226.1,200.1,226.2,200.1,226.2,200.1z"/>
				<path class="st4" d="M205.7,193.3c-1.1,0-2-0.9-2-2s0.9-2,2-2c1.1,0,2.1,0.9,2.1,2.1v0C207.7,192.4,206.8,193.3,205.7,193.3
					C205.7,193.3,205.7,193.3,205.7,193.3z"/>
				<path class="st4" d="M183.4,254.7c-1.1,0-2-0.9-2-2s0.9-2,2-2s2,0.9,2,2C185.4,253.8,184.5,254.7,183.4,254.7z"/>
				<path class="st4" d="M90.4,101.5c-1.1,0-2-0.9-2-2s0.9-2,2-2s2,0.9,2,2S91.5,101.5,90.4,101.5z"/>
				<path class="st4" d="M90.4,146.6c0,1.1-0.8,2-1.9,2.1c0,0,0,0-0.1,0c-1.1,0-2.1-0.9-2.1-2.1s0.9-2.1,2.1-2.1l0,0
					C89.5,144.6,90.4,145.5,90.4,146.6C90.4,146.6,90.4,146.6,90.4,146.6z"/>
				<path class="st4" d="M105.7,112.8c1.1,0,2,0.9,2,2s-0.9,2-2,2c-1.1,0-2.1-0.9-2.1-2c0,0,0,0,0,0
					C103.6,113.6,104.5,112.7,105.7,112.8C105.7,112.8,105.7,112.8,105.7,112.8z"/>
				<path class="st4" d="M155.2,220.6c0-1.1,0.9-2,2-2s2,0.9,2,2s-0.9,2-2,2S155.2,221.8,155.2,220.6z"/>
				<path class="st4" d="M135,253.9c0,1.1-0.8,2-1.9,2c0,0,0,0-0.1,0c-1.1,0-2-0.9-2-2s0.9-2,2-2C134.1,251.9,135,252.8,135,253.9
					C135,253.9,135,253.9,135,253.9z"/>
				<path class="st4" d="M116,99.6c-1.1,0-2-0.9-2-2s0.9-2,2-2s2,0.9,2,2S117.1,99.6,116,99.6z"/>
				<path class="st4" d="M154.8,82.9c1.1,0,2,0.9,2,2s-0.9,2-2,2s-2-0.9-2-2S153.7,82.9,154.8,82.9z"/>
				<path class="st4" d="M107.8,190.3c1.1,0,2,0.9,2,2c0,0,0,0,0,0.1c0,1.1-0.9,2-2.1,2c-1.1,0-2-0.9-2-2c0-1.1,0.8-2,1.9-2.1
					C107.7,190.3,107.8,190.3,107.8,190.3z"/>
				<path class="st4" d="M117.7,234.4c-1.1,0-2-0.9-2-2s0.9-2,2-2s2,0.9,2,2S118.8,234.4,117.7,234.4z"/>
				<path class="st4" d="M88.7,128.7c-1.1,0-2-0.9-2-2c0-1.1,0.8-2,1.9-2.1c0,0,0.1,0,0.1,0c1.1,0,2,0.9,2,2c0,1.1-0.8,2-1.9,2.1
					C88.8,128.7,88.8,128.7,88.7,128.7z"/>
				<path class="st4" d="M224.5,182.7c-1.1,0-2-0.9-2-2s0.9-2,2-2s2,0.9,2,2S225.6,182.7,224.5,182.7z"/>
				<path class="st4" d="M90.3,204.7c0,1.1-0.9,2-2,2c-1.1,0-2-0.9-2-2c0-1.1,0.9-2,2-2C89.3,202.7,90.3,203.5,90.3,204.7
					C90.3,204.7,90.3,204.7,90.3,204.7z"/>
				<path class="st4" d="M207.8,114.2c0,1.1-0.9,2-2,2c-1.1,0-2.1-0.9-2.1-2c0-1.1,0.9-2,2-2c0,0,0,0,0.1,0
					C206.8,112.2,207.7,113.1,207.8,114.2C207.7,114.2,207.8,114.2,207.8,114.2z"/>
				<path class="st4" d="M215.1,163.4c0,1.1-0.9,2-2,2c-1.1,0-2-0.9-2-2s0.9-2,2-2C214.2,161.3,215.1,162.2,215.1,163.4
					C215.1,163.3,215.1,163.4,215.1,163.4z"/>
				<path class="st4" d="M243,138.3c0-1.1,0.9-2,2-2s2,0.9,2,2s-0.9,2-2,2S243,139.4,243,138.3z"/>
				<path class="st4" d="M69.8,141c0,1.1-1,2-2.1,1.9s-2-1-1.9-2.1c0-1.1,0.9-1.9,2-1.9C68.9,138.9,69.8,139.8,69.8,141
					C69.8,141,69.8,141,69.8,141z"/>
				<path class="st4" d="M220.8,101.3c-1.1,0-2-0.9-2-2s0.9-2,2-2s2,0.9,2,2S221.9,101.3,220.8,101.3z"/>
				<path class="st4" d="M76.5,164.9c0-1.1,0.9-2,2-2c0,0,0.1,0,0.1,0c1.1,0,2,1,2,2.1c0,1.1-1,2-2.1,2
					C77.4,167,76.5,166.1,76.5,164.9C76.5,164.9,76.5,164.9,76.5,164.9z"/>
				<path class="st4" d="M235.5,164.8c-1.1,0-2-0.9-2-2c-0.1-1.1,0.8-2.1,1.9-2.2c1.1-0.1,2.1,0.8,2.2,1.9c0,0.1,0,0.2,0,0.3
					c0,1.1-0.9,2-2,2C235.6,164.8,235.5,164.8,235.5,164.8z"/>
				<path class="st4" d="M209.5,211.9c0,1.1-0.9,2-2,2s-2-0.9-2-2c0-1.1,0.9-2,2-2c0,0,0,0,0.1,0
					C208.6,209.9,209.5,210.8,209.5,211.9z"/>
				<path class="st4" d="M132.2,78.9c-1.1,0-2-0.8-2.1-1.9c0,0,0,0,0-0.1c0-1.1,0.9-2,2-2.1s2,0.9,2.1,2
					C134.2,77.9,133.4,78.8,132.2,78.9C132.2,78.9,132.2,78.9,132.2,78.9z"/>
				<path class="st4" d="M106.1,137.1c0-1.1,0.9-2,2-2s2,0.9,2,2c0,1.1-0.9,2-2,2C107,139.1,106.1,138.2,106.1,137.1
					C106.1,137.1,106.1,137.1,106.1,137.1z"/>
				<path class="st4" d="M160,241.6c0,1.1-0.9,2-2,2s-2-0.9-2-2s0.9-2,2-2S160,240.4,160,241.6z"/>
				<path class="st4" d="M181.1,76.1c0,1.1-0.9,2-2,2s-2-0.9-2-2s0.9-2,2-2S181.1,75,181.1,76.1z"/>
				<path class="st4" d="M153.1,176.1c-1.2-2.7-2.4-5.3-3.5-7.8c-0.4-1-0.9-2-1.3-3c-0.1-0.2-0.2-0.3-0.4-0.4c-1.1,0-2.3,0-3.4,0
					V176h-5.2v-25.3h0.7c3.4,0,6.8,0,10.1,0c0.5,0,1.1,0.1,1.5,0.4c1.7,1.1,3.1,2.8,3.7,4.7c0.7,2.3,0,4.8-1.7,6.6
					c-0.4,0.4-0.5,1-0.2,1.5c1.5,3.2,2.9,6.4,4.3,9.6c0.1,0.1,0.1,0.3,0.2,0.5L153.1,176.1z M144.5,159.7c1.2,0,2.3-0.1,3.4,0
					c0.9,0.1,1.7-0.3,2.1-1.1c0.4-0.5,0.5-1.2,0.2-1.7c-0.4-0.6-0.7-1.2-1.6-1.1c-0.8,0-1.5,0-2.3,0h-1.8L144.5,159.7z"/>
				<path class="st4" d="M118.9,164.2c0-1.7,0-3.5,0-5.2c0.3-4.9,4.6-8.6,9.4-8.3c4.7,0.3,8.3,4.2,8.3,8.9c0,3,0,6.1,0,9.1
					c0.1,4.4-3,8.1-7.3,8.9c-4.8,0.9-9.3-2.2-10.3-7c0-0.1,0-0.2,0-0.3c-0.2-1.9-0.2-3.9-0.2-5.8L118.9,164.2L118.9,164.2z
					 M131.4,164.3L131.4,164.3c0-1.3,0-2.5,0-3.8c0-0.6,0-1.2-0.1-1.8c-0.4-2-2.4-3.3-4.4-2.8c-1.7,0.4-2.9,1.9-2.9,3.6
					c0,3.1,0,6.3,0,9.4c0,0.4,0.1,0.8,0.2,1.2c0.6,1.9,2.7,3,4.6,2.4c1.5-0.5,2.5-1.8,2.6-3.4C131.4,167.5,131.4,165.9,131.4,164.3z
					"/>
				<path class="st4" d="M194.9,163.8c0,1.8,0.1,3.7,0,5.5c-0.4,4.9-4.6,8.5-9.5,8.1c-3.9-0.3-7.1-3.1-7.9-6.9
					c-0.1-0.6-0.2-1.2-0.2-1.9c0-3.4-0.1-6.8,0-10.2c0.3-4.9,4.4-8.6,9.3-8.4c4,0.2,7.3,3,8.2,6.9c0.2,0.8,0.3,1.7,0.2,2.6
					C195,160.9,195,162.3,194.9,163.8L194.9,163.8z M189.8,163.8c0-1.6,0-3.2,0-4.8c0.1-2-1.5-3.8-3.5-3.9s-3.8,1.5-3.9,3.5
					c0,0.1,0,0.3,0,0.4c0,3.1,0,6.3,0,9.4c-0.1,2,1.5,3.8,3.5,3.9s3.8-1.5,3.9-3.5c0-0.1,0-0.3,0-0.4
					C189.8,166.9,189.8,165.4,189.8,163.8L189.8,163.8z"/>
				<path class="st4" d="M158.4,150.3h15.2v5.2h-10v4.8h7.8v5.2h-7.8v5.9h9.9v5.2h-15L158.4,150.3z"/>
				<path class="st4" d="M147.8,180.9c0.9,0.2,1.8,0.3,2.6,0.4c2.7,0.3,5.3,0.4,8,0.2c2.7-0.2,5.4-0.6,8.1-0.9
					c0.8-0.2,1.7-0.1,2.5,0.3c0.3,0.2,0.6,0.5,0.7,0.8c-0.1,0.4-0.3,0.7-0.6,0.9c-2.9,1.6-5.7,3.2-8.6,4.7c-1.9,1-4.1,1-6,0.1
					c-2.8-1.3-5.6-2.8-8.4-4.1c-0.4-0.2-0.9-0.5-0.8-1c0.1-0.5,0.5-0.9,0.9-1C146.7,181.1,147.2,181,147.8,180.9z"/>
				<path class="st4" d="M157,140.5c1.2,0,2.3,0.3,3.3,0.8c2.6,1.4,5.2,2.8,7.8,4.2c0.5,0.3,1,0.5,1,1.1s-0.6,0.9-1.2,1.1
					c-0.9,0.2-1.9,0.2-2.8,0c-1.6-0.3-3.1-0.5-4.7-0.7c-3.5-0.3-6.9-0.2-10.4,0.2c-1,0.1-2,0.3-3.1,0.3c-0.6,0-1.2-0.2-1.7-0.4
					c-0.8-0.4-0.8-1.2,0-1.6c2.9-1.5,5.9-3,8.8-4.4c0.9-0.3,1.9-0.6,2.9-0.8C157,140.5,157,140.5,157,140.5z"/>
			</g>
		</g>
		<path class="st1" d="M220.9,147c1.2-1.9,6.9-10.9,9.6-10.5s9,2.3,7.7,5.3s-0.1,3.1-2,5.3s-4.2,3.9-5.3,3.4s-4.1,1.4-5.1,0.1
			S220.9,147,220.9,147z"/>
		<path class="st1" d="M260.3,79.3c0,0,8.4-13.6,9.5-15.3s13.2-5.3,13.2-5.3s5.2,5.2,6.1,7.1s0.8,4.6,0.7,7s-3.7,3.7-5.6,4.2
			c-2.4,0.6-4.8,0.8-7.3,0.7c-1-0.2-2.5,1.8-4,0.6s-6,3.7-7.3,4.2S258.6,82.1,260.3,79.3z"/>
		<path class="st1" d="M261.2,133.2c0,0,9.6,4.3,11.3,7.7s3.4,11.7,3,12.7s-2.3-0.3-4.3,0s-7-0.3-7.3-2.3s-1.3-6.3-2.7-7.6
			s-1.3-5.7-1.7-7S258.8,132,261.2,133.2z"/>
		<path class="st1" d="M224.5,187.5c1.3-1.7,9.4-8.1,10.7-6.7s6.3,5.3,6.3,6.7s0.5,5.5-3.2,5.3s-6.3,7.1-8.7,3.6
			C227.7,193.6,226,190.6,224.5,187.5z"/>
		
			<image style="overflow:visible;opacity:0.1;enable-background:new    ;" width="56" height="68" xlink:href="A6572C1E.png"  transform="matrix(1 0 0 1 273.09 151.83)">
		</image>
		<path class="st1" d="M294.5,194.9c0,0-3.3-14.3-4.3-17s-2.3-9.7,0-10.3s6.3,0.3,8,2.7s2.7,5.7,5,7.3s4.3,1.1,6.3,3.6
			s4,2.4,4.3,4.8s-0.3,6.7,0,7.7s0,1.5-1,3.9c-1,2.5-2.2,4.9-3.7,7.1C308.2,205.9,294.5,194.9,294.5,194.9z"/>
		<path class="st1" d="M262.1,232.2c0,0,1.6-8.7,2.2-9s6.4,0.7,8.1,2s6.4,4,6.8,7s0.3,8.7-1.7,9.3s-2.5,2-5.1,2.3s-7.1,0-8.1-2.3
			S262.1,232.2,262.1,232.2z"/>
		<path class="st2" d="M259.5,194.9c-0.3-3.7,4.2-6,4.8-2.7s5.9,3.8,1.3,5.2S259.5,194.9,259.5,194.9z"/>
		
			<image style="overflow:visible;opacity:0.1;enable-background:new    ;" width="80" height="59" xlink:href="A6572C22.png"  transform="matrix(1 0 0 1 251.09 79.83)">
		</image>
		<path class="st5" d="M288.9,103.9c0,0,7.6-6.7,10.6-7.3s11.7-2,12.7,2s3.7,7.7,3.3,11s-6.3,11-6.3,11s-1.3,3.3-3.7,2.3
			s-5.3-4-7-4.3s-1-0.3-8,0.3s-7.3-0.7-10-0.7s-8.7,0.7-11.7,0s-2.2-0.7-1.4-4s6.4-6.7,6.8-7.7s2.6-2.7,3.3-4.3s5.3-6.4,5.3-6.4
			S288.9,93.5,288.9,103.9z"/>
	</g>
</g>
</svg>
