<?xml version="1.0" encoding="utf-8"?>
<!-- Generator: Adobe Illustrator 24.0.1, SVG Export Plug-In . SVG Version: 6.00 Build 0)  -->
<svg version="1.1" id="Capa_1" xmlns="http://www.w3.org/2000/svg" xmlns:xlink="http://www.w3.org/1999/xlink" x="0px" y="0px"
	 viewBox="0 0 313.6 314.7" style="enable-background:new 0 0 313.6 314.7;" xml:space="preserve">
<style type="text/css">
	.st0{fill:#1D1D1B;}
	.st1{fill:#FFFFFF;}
	.st2{clip-path:url(#SVGID_2_);}
	.st3{fill-rule:evenodd;clip-rule:evenodd;fill:#262626;}
	.st4{fill:#262626;}
</style>
<title>logo</title>
<g>
	<g id="Capa_1_1_">
		<path class="st0" d="M223.6,76.1c0,0,9.1,2.4,11.3,11.2s-2.4,18.9-23.1,27.9s-18.4,20.5-22.8,29.8s-6.7,15.3,1.8,24.7
			s17.5,11.5,19.4,23.2s8.1,25.1,13.6,26s15.6,12,11.6,17.2s-46.8-10.9-48.8-13s-24.6-68.8-25.2-72.1s5.3-37,6-42
			s25.4-30.9,26.8-32.9S223.6,76.1,223.6,76.1z"/>
		<path class="st1" d="M219,68.2c0,0,13.2,5,15.5,14.9s-1.6,19.5-15.5,25.4s-23.2,13.6-23.2,17.7c0,4.1-3.9,23.7-8.4,28.2
			s2,7,5.3,17s2.7,12.5,13.2,16.7s10.3,11.5,12.5,17.7s4.3,15.2,9.4,19.5s11.1,12.9,7.4,13.1s-45.9,4.2-54.7-9.6s-20.1-56-22.1-71.1
			s10-37.3,10-43s18-25.6,19-28.6S219,68.2,219,68.2z"/>
		<g>
			<defs>
				<path id="SVGID_1_" d="M236.7,63.8c0.6,2.9-11.9,33.2-18.5,36.5s-20.6,6.6-20.6,11s-2.9,4.4-3.4,10.7c-0.5,6.2-3.3,15-5.9,18.5
					s-3.6,6.2-3.4,8.8s-6.6,6.6,0.2,12.2s7,8.2,8.9,14.1s-1.1,13.7,1.8,14.3s16.3,9.9,16,12.6s6.4,16.5,9.4,18.6s5,2.3,11.7,8.5
					s11.1,11,11.1,11s-12.9,24.7-13.4,27.5s-21.5,27.4-41,32.8s-63.2,6.7-76.7,6S-6,251.2,9.4,154.6c0,0-16.7-97.9,78-133.9
					S230.2,32.8,236.7,63.8z"/>
			</defs>
			<clipPath id="SVGID_2_">
				<use xlink:href="#SVGID_1_"  style="overflow:visible;"/>
			</clipPath>
			<g class="st2">
				<path class="st0" d="M269.5,157.7c-0.3-0.8-0.7-1.5-1.3-2c0-0.8,0-1.5,0-2.3c1.6-1.6,1.6-4.1,0-5.7c-0.1-0.1-0.2-0.2-0.4-0.3
					c-0.1-0.8-0.1-1.5-0.2-2.2c0.7-0.9,1-2.1,0.9-3.2c-0.2-1.1-0.7-2-1.6-2.7c-0.1-0.7-0.2-1.5-0.4-2.2c0.7-0.9,0.9-2.1,0.6-3.3
					c-0.2-1-0.9-1.9-1.8-2.5c-0.2-0.7-0.3-1.5-0.5-2.2c0.6-0.9,0.7-2,0.5-3.1c-0.3-1.1-1-2-2-2.5c-0.2-0.7-0.4-1.4-0.6-2.1
					c0.3-0.6,0.4-1.2,0.5-1.9c0-1.6-0.9-3-2.3-3.6c-0.2-0.7-0.5-1.3-0.7-2c0,0,0-0.1,0-0.1c0.4-1,0.4-2.1-0.1-3.1
					c-0.4-1-1.2-1.7-2.2-2.1c-0.3-0.6-0.6-1.3-0.9-1.9c0.3-0.8,0.3-1.7,0.1-2.6c-0.4-1.3-1.4-2.2-2.7-2.7c-0.3-0.6-0.6-1.1-0.9-1.7
					c0.6-2.2-0.6-4.4-2.7-5c-0.1,0-0.1,0-0.2-0.1c-0.3-0.5-0.7-1.1-1-1.6c0.1-0.3,0.1-0.7,0.1-1v-0.1v-0.2c0-0.2-0.1-0.5-0.1-0.7
					c-0.4-1.5-1.7-2.6-3.3-2.9l-1-1.4c0-0.2,0-0.3,0.1-0.5c0.1-1.5-0.6-3-2-3.8c-0.5-0.3-1.1-0.5-1.7-0.5c-0.4-0.4-0.7-0.9-1.1-1.3
					c0.1-0.7,0-1.4-0.3-2.1c-0.5-1.3-1.6-2.2-3-2.4l-0.3-0.6l-0.7,0.3l-0.9-1c0-0.5,0-1-0.2-1.5c-0.5-1.7-2.1-2.9-3.9-2.9h-0.3
					l-1.1-1c0-1.2-0.4-2.3-1.3-3.1c-0.7-0.6-1.7-1-2.7-1c-0.2,0-0.4,0-0.6,0l-1.1-0.9c0-0.4-0.1-0.8-0.2-1.2
					c-0.4-1.2-1.4-2.2-2.6-2.6c-0.7-0.2-1.4-0.2-2.1-0.1l-1.1-0.8c0-0.3-0.1-0.7-0.2-1c-0.4-1.4-1.6-2.5-3.1-2.7
					c-0.6-0.1-1.3-0.1-1.9,0.1l-1.1-0.7c-0.1-0.5-0.2-1-0.5-1.4c-0.8-1.4-2.4-2.2-4-2.1c-0.4,0-0.7,0.1-1,0.3l-1.1-0.6
					c-0.3-1.5-1.4-2.7-2.9-3.1c-0.4-0.1-0.8-0.2-1.1-0.2c-0.6,0-1.2,0.1-1.8,0.4l-1.2-0.5c-0.2-0.6-0.5-1.2-0.9-1.7
					c-0.8-0.9-1.9-1.4-3-1.4c-0.7,0-1.4,0.2-2,0.5L191,45c-0.6-2.1-2.9-3.3-5-2.7c-0.4,0.1-0.8,0.3-1.1,0.5l-1.4-0.4
					c-0.6-1.5-2.1-2.5-3.7-2.6h-0.1c-0.9,0-1.7,0.3-2.4,0.8l-1.5-0.4c-0.6-1.2-1.7-2.1-3.1-2.3c-1.1-0.1-2.2,0.2-3.1,0.9l-1.6-0.3
					c-0.6-1.1-1.8-1.9-3.1-2c-1.2-0.1-2.3,0.3-3.2,1.1l-1.8-0.2c-0.7-1-1.9-1.6-3.1-1.7c-1.2-0.1-2.3,0.4-3.1,1.2l-2.2-0.1
					c-0.4-0.5-1-0.9-1.6-1.1l-0.1-0.1l-0.4-0.2h-1.8l-0.2,0.1c-0.8,0.3-1.5,0.7-2.1,1.3l-2.3,0.1c-0.8-0.8-1.9-1.3-3.1-1.2
					c-1.1,0.1-2.1,0.6-2.8,1.4l-0.1,0.1l-2.2,0.2c-0.9-0.7-2-1-3.1-0.9c-1.1,0.1-2.1,0.7-2.8,1.7l-2.2,0.4c-0.7-0.5-1.5-0.8-2.4-0.8
					c-0.2,0-0.4,0-0.6,0c-1.2,0.2-2.3,0.9-2.9,1.9c-0.7,0.1-1.4,0.3-2,0.5c-0.6-0.4-1.4-0.6-2.1-0.6c-0.2,0-0.4,0-0.7,0
					c-1.2,0.2-2.2,0.9-2.8,1.8l-0.2,0.3c-0.7,0.2-1.3,0.4-1.9,0.6c-0.5-0.3-1.1-0.4-1.7-0.5c-1.4-0.1-2.7,0.5-3.5,1.6
					c-0.2,0.2-0.3,0.5-0.5,0.8l-1.8,0.7c-0.5-0.3-1.1-0.4-1.7-0.4c-0.3,0-0.6,0-0.8,0.1c-1.4,0.3-2.5,1.3-3,2.6
					c-0.6,0.2-1.1,0.5-1.6,0.7c-0.4-0.2-0.9-0.3-1.3-0.3c-1.5,0-2.9,0.7-3.7,2c-0.2,0.3-0.3,0.6-0.4,1l-1.5,0.8
					c-0.4-0.1-0.9-0.2-1.3-0.2c-2,0-3.7,1.4-4,3.3l-1.3,0.8c-0.4-0.1-0.7-0.2-1.1-0.2c-2.1,0-3.9,1.6-4.1,3.7L76.8,60
					c-0.3-0.1-0.7-0.1-1-0.1c-1.2,0-2.4,0.5-3.2,1.5c-0.6,0.7-0.9,1.6-0.9,2.5l-1.1,0.9c-0.3-0.1-0.5-0.1-0.8-0.1h-0.1
					c-1.5,0-2.9,0.9-3.5,2.3c-0.3,0.6-0.5,1.3-0.4,2.1L65,69.8c-0.4-0.1-0.8-0.1-1.2,0C62.3,70,61,71,60.5,72.4
					c-0.2,0.6-0.3,1.3-0.2,1.9l-0.8,0.8c-0.4,0-0.7,0-1.1,0c-1.5,0.2-2.8,1.3-3.2,2.8c-0.2,0.7-0.3,1.5-0.1,2.2L54.5,81
					c-0.4,0-0.8,0-1.2,0.1c-1.4,0.3-2.6,1.4-2.9,2.8c-0.2,0.8-0.2,1.6,0,2.4L49.9,87l0,0c-1.3,0-2.6,0.7-3.4,1.8
					c-0.8,1.1-0.9,2.6-0.4,3.8c-0.2,0.3-0.3,0.5-0.5,0.8c-2.3,0.1-4,2.1-3.9,4.3c0,0.5,0.2,1,0.4,1.5l-0.4,0.8
					c-1.8,0.2-3.2,1.5-3.6,3.2c-0.2,1,0,2,0.5,2.9l-0.4,0.8c-0.1,0-0.2,0-0.3,0c-1.7,0.4-3,1.8-3.2,3.6c-0.1,0.9,0.2,1.9,0.7,2.7
					c-0.1,0.3-0.2,0.6-0.3,0.8c-2.2,0.5-3.6,2.7-3.1,4.9c0.1,0.3,0.1,0.5,0.3,0.8c0.1,0.3,0.3,0.6,0.5,0.8c-0.1,0.3-0.2,0.6-0.3,0.9
					c-1,0.3-1.8,1-2.4,1.9c-0.6,1.1-0.7,2.4-0.3,3.5c0.2,0.5,0.4,0.9,0.8,1.2c-0.1,0.4-0.2,0.7-0.3,1.1c-1.4,0.5-2.4,1.7-2.6,3.1
					c-0.2,1.3,0.3,2.6,1.2,3.5c-0.1,0.4-0.1,0.7-0.2,1.1c-1.2,0.6-2.1,1.7-2.3,3.1c-0.2,1.4,0.3,2.7,1.3,3.6c0,0.4-0.1,0.9-0.1,1.3
					c-0.9,0.6-1.6,1.4-1.9,2.4l-0.1,0.2v2l0.3,0.3c0.3,0.7,0.7,1.3,1.2,1.8c0,0.8-0.1,1.5-0.1,2.3c-0.6,0.5-1.1,1.2-1.4,2l-0.1,0.2
					v1.6l0.2,0.4c0,0.1,0.1,0.3,0.2,0.4c0.2,0.6,0.6,1,1,1.5c0,0.7,0,1.5,0.1,2.2c-0.6,0.6-1,1.5-1.2,2.3c-0.2,1.4,0.4,2.8,1.5,3.7
					c0.1,0.7,0.1,1.5,0.2,2.2c-0.7,0.9-1.1,2-0.9,3.2c0.1,1.1,0.8,2.2,1.7,2.8c0.1,0.7,0.2,1.4,0.4,2.2c-0.6,0.9-0.9,1.9-0.7,3
					c0.2,1.2,0.9,2.2,1.9,2.7c0.2,0.7,0.3,1.4,0.5,2.1c0,0-0.1,0.1-0.1,0.2c-0.5,0.9-0.7,2.1-0.4,3.1c0.3,1.1,1,1.9,2,2.5
					c0.2,0.7,0.4,1.3,0.6,2c-0.5,0.8-0.6,1.7-0.4,2.7c0.2,1.3,1.1,2.4,2.3,2.9l0.7,1.8c-0.2,0.5-0.3,0.9-0.3,1.4
					c0,1.2,0.4,2.4,1.3,3.2c0.4,0.4,0.9,0.7,1.4,0.9l0.8,1.6c-0.2,0.4-0.3,0.8-0.3,1.2v0.1c0,1.2,0.4,2.3,1.2,3.1
					c0.5,0.5,1.1,0.9,1.8,1.1c0.3,0.5,0.5,1,0.8,1.5c-0.1,0.3-0.2,0.7-0.2,1c0,1.2,0.4,2.3,1.3,3.2c0.6,0.6,1.3,1,2.1,1.1
					c0.3,0.5,0.5,0.9,0.8,1.3c-0.1,0.4-0.1,0.7-0.2,1.1c0,1.1,0.4,2.2,1.2,2.9c0.7,0.6,1.5,1,2.4,1.1l0.8,1.2
					c-0.2,0.9-0.1,1.8,0.3,2.7c0.5,1.2,1.7,2.1,3,2.3l0.3,0.5l0.5-0.2c0.2,0.3,0.4,0.5,0.7,0.8c-0.1,0.4-0.1,0.8,0,1.2
					c0.1,1.5,1.1,2.8,2.5,3.3c0.5,0.2,1,0.3,1.6,0.3h0.2l0.8,0.9c-0.4,2.2,1.1,4.2,3.3,4.6c0.2,0,0.5,0.1,0.7,0.1l0,0
					c0.2,0,0.4,0,0.6,0l0.8,0.8c0,0.1,0,0.2,0,0.4c0,1.6,0.9,3.1,2.4,3.8c0.5,0.2,1.1,0.3,1.7,0.3l0,0c0.3,0,0.6,0,0.9-0.1l0.8,0.7
					c0,0.7,0.1,1.4,0.4,2c0.6,1.3,1.9,2.2,3.3,2.2h0.1c0.5,0,0.9-0.1,1.4-0.2l0.8,0.6c0,0.4,0.1,0.8,0.2,1.2
					c0.4,1.5,1.7,2.6,3.2,2.8c0.2,0,0.5,0.1,0.8,0.1c0.5,0,1-0.1,1.4-0.3l0.7,0.4c0.1,1.7,1.3,3.2,3,3.8c0.4,0.1,0.8,0.2,1.2,0.2
					l0,0c0.6,0,1.2-0.1,1.8-0.4l0.8,0.5c0,0.2,0,0.4,0.1,0.5c0.4,1.6,1.7,2.7,3.2,3c0.2,0,0.5,0.1,0.7,0.1c0.7,0,1.4-0.2,2-0.6
					l0.8,0.4c0,0.1,0.1,0.3,0.1,0.4c0.4,1.6,1.8,2.8,3.5,3h0.4l0,0c0.8,0,1.6-0.3,2.3-0.7l0.9,0.3c0.1,0.5,0.3,1,0.7,1.5
					c0.7,1.1,2,1.7,3.3,1.7l0,0c0.9,0,1.8-0.3,2.5-0.9l1,0.3c0.4,1.4,1.6,2.5,3.1,2.8c0.2,0,0.5,0.1,0.7,0.1c1,0,2-0.3,2.7-1l1,0.3
					c0.6,1.6,2.1,2.6,3.8,2.6l0,0c1.1,0,2.1-0.4,2.9-1.2c0.4,0.1,0.8,0.2,1.2,0.2c0.6,1.2,1.7,2.1,3.1,2.3c0.2,0,0.4,0,0.5,0l0,0
					c1.2,0,2.3-0.5,3.1-1.3c0.4,0,0.9,0.1,1.3,0.2c0.1,0.2,0.3,0.5,0.5,0.7c0.4,0.3,0.8,0.6,1.3,0.9l0.5,0.3l0.3,0.2h2.1l0.3-0.3
					c0.7-0.3,1.3-0.7,1.8-1.3c0.5,0,1.1,0,1.6,0.1c0.6,0.6,1.3,0.9,2.1,1.1c0.2,0,0.5,0.1,0.7,0.1l0,0c1,0,2-0.4,2.7-1.1
					c1,0,2,0,2.9-0.1c0.7,0.6,1.6,0.9,2.5,0.8h0.2c1,0,1.9-0.4,2.6-1.1l3.1-0.3c0.6,0.4,1.4,0.6,2.2,0.6h0.3c1-0.1,2-0.5,2.6-1.3
					c1-0.2,2.1-0.3,3.1-0.5c0.6,0.3,1.2,0.5,1.9,0.5l0,0h0.4c1-0.1,1.9-0.6,2.5-1.4c1-0.2,2.1-0.5,3.1-0.7c0.4,0.2,0.9,0.3,1.3,0.3
					h0.2c1.3,0,2.4-0.5,3.2-1.5c1-0.3,2.1-0.6,3.1-0.9c0.4,0.1,0.8,0.2,1.2,0.2l0,0c1.3,0,2.5-0.6,3.3-1.7c1-0.4,2-0.7,3-1.1
					c0.3,0.1,0.6,0.1,0.9,0.1l0,0c0.3,0,0.6,0,0.8-0.1c1.1-0.2,2.1-0.9,2.7-1.9c1-0.4,1.9-0.8,2.9-1.3c0.2,0,0.5,0.1,0.7,0.1l0,0
					c0.5,0,0.9-0.1,1.4-0.2c1-0.3,1.8-1.1,2.3-2c0.9-0.5,1.8-0.9,2.6-1.4c0.2,0,0.3,0,0.5,0l0,0c1.6,0,3.1-1,3.7-2.5l2.5-1.5h0.3
					c0.5,0,1-0.1,1.4-0.3c1.2-0.4,2.1-1.4,2.5-2.5l2.2-1.6c0.2,0,0.4,0,0.6,0c1.4-0.2,2.7-1.1,3.3-2.4c0.1-0.2,0.1-0.4,0.2-0.6
					l2.1-1.7c0.5,0,1-0.1,1.4-0.3c1.3-0.5,2.2-1.7,2.4-3l0.6-0.2l-0.1-0.3l1.4-1.3c2-0.1,3.6-1.7,3.7-3.7c0.6-0.6,1.1-1.2,1.7-1.8
					c1.4-0.2,2.7-1.1,3.3-2.4c0.2-0.5,0.3-1,0.3-1.6c0.5-0.6,1-1.2,1.5-1.8c1-0.2,1.9-0.7,2.5-1.5c0.6-0.8,0.9-1.8,0.9-2.8
					c0.4-0.6,0.9-1.2,1.3-1.8c0.1,0,0.2,0,0.3-0.1c1.5-0.4,2.6-1.7,2.8-3.3c0.1-0.4,0.1-0.8,0-1.2c0.4-0.6,0.8-1.2,1.1-1.8
					c1.5-0.4,2.6-1.6,2.8-3.1c0.1-0.6,0.1-1.1,0-1.7l1-1.8c1.3-0.4,2.3-1.5,2.6-2.8c0.2-0.8,0.2-1.6,0-2.4c0.3-0.6,0.6-1.2,0.9-1.8
					c0.4-0.2,0.8-0.4,1.2-0.7c1.2-1,1.7-2.6,1.3-4.1c0-0.2-0.1-0.3-0.2-0.5c0.3-0.7,0.5-1.3,0.8-1.9c2-0.9,2.9-3.3,2-5.3
					c0-0.1-0.1-0.1-0.1-0.2c0.2-0.7,0.4-1.3,0.6-2c2-1.1,2.7-3.6,1.6-5.5c0,0,0,0,0,0c0.2-0.7,0.4-1.4,0.5-2.1
					c1.2-0.8,1.9-2.1,1.8-3.6c0-0.7-0.3-1.4-0.7-2c0.1-0.8,0.3-1.5,0.4-2.3c0.8-0.6,1.4-1.5,1.5-2.5c0.2-1.1-0.1-2.2-0.7-3.1l0,0
					c0.1-0.8,0.2-1.6,0.3-2.4c0.8-0.6,1.2-1.6,1.3-2.5c0.1-1.1-0.2-2.2-0.9-3c0-0.7,0.1-1.5,0.1-2.2c0.6-0.6,1.1-1.2,1.4-2l0.1-0.2
					v-1.8L269.5,157.7z"/>
				<path class="st0" d="M267.6,165.9c-0.3-0.8-0.7-1.5-1.3-2c0-0.8,0-1.5,0-2.3c0.2-0.2,0.3-0.3,0.5-0.5c0.7-1,0.9-2.3,0.6-3.5
					c-0.2-0.8-0.7-1.5-1.4-2c-0.1-0.8-0.1-1.5-0.2-2.2c0.7-0.9,1.1-2.1,0.9-3.2c-0.1-1.1-0.7-2-1.6-2.7c-0.1-0.7-0.2-1.5-0.4-2.2
					c0.7-0.9,0.9-2.1,0.6-3.3c-0.2-1-0.9-1.9-1.8-2.5c-0.2-0.7-0.3-1.5-0.5-2.2c0.6-0.9,0.7-2.1,0.5-3.1c-0.3-1.1-1-2-2-2.5
					c-0.2-0.7-0.4-1.4-0.6-2.1c0.3-0.6,0.4-1.2,0.5-1.9c0-1.6-0.9-3-2.3-3.6c-0.2-0.7-0.5-1.3-0.7-2c0,0,0-0.1,0-0.1
					c0.4-1,0.4-2.1-0.1-3.2c-0.4-1-1.2-1.7-2.2-2.1c-0.3-0.6-0.6-1.3-0.9-1.9c0.3-0.8,0.3-1.7,0.1-2.6c-0.4-1.3-1.4-2.2-2.7-2.7
					c-0.3-0.6-0.6-1.1-0.9-1.7c0.6-2.2-0.6-4.4-2.7-5c-0.1,0-0.1,0-0.2-0.1c-0.3-0.5-0.7-1.1-1-1.6c0.1-0.3,0.1-0.7,0.1-1v-0.1V100
					c0-0.2-0.1-0.5-0.1-0.7c-0.4-1.5-1.7-2.6-3.3-2.8l-1-1.4c0-0.1,0-0.3,0.1-0.5c0.1-1.5-0.6-3-2-3.8c-0.5-0.3-1.1-0.5-1.7-0.6
					c-0.4-0.4-0.7-0.9-1.1-1.3c0.1-0.7,0-1.4-0.3-2.1c-0.5-1.3-1.6-2.2-3-2.4l-0.3-0.6l-0.7,0.3c-0.3-0.3-0.6-0.6-0.9-0.9
					c0-0.5,0-1-0.2-1.5c-0.5-1.7-2.1-2.9-3.9-2.9h-0.3l-1.1-1c0-1.2-0.5-2.4-1.3-3.2c-0.7-0.6-1.7-1-2.7-1c-0.2,0-0.4,0-0.6,0
					l-1.1-0.9c0-0.4-0.1-0.8-0.2-1.2c-0.4-1.2-1.4-2.2-2.6-2.6c-0.7-0.2-1.4-0.3-2.1-0.1l-1.1-0.8c0-0.3-0.1-0.7-0.2-1
					c-0.4-1.4-1.6-2.5-3.1-2.7c-0.7-0.1-1.4-0.1-2,0.1l-1.1-0.7c-0.1-0.5-0.2-1-0.5-1.4c-0.8-1.4-2.4-2.2-4-2.1
					c-0.4,0-0.7,0.1-1.1,0.2l-1.1-0.6c-0.3-1.5-1.4-2.7-2.9-3.2c-1-0.3-2-0.2-2.9,0.2l-1.2-0.5c-0.2-0.6-0.5-1.2-0.9-1.7
					c-0.8-0.9-1.9-1.4-3-1.4c-0.7,0-1.4,0.2-2,0.5l-1.3-0.5c-0.4-1.2-1.3-2.1-2.4-2.6c-1.2-0.5-2.6-0.3-3.6,0.4l-1.4-0.4
					c-0.6-1.5-2.1-2.5-3.7-2.6h-0.1c-0.9,0-1.7,0.3-2.4,0.8l-1.5-0.4c-0.6-1.2-1.7-2.1-3.1-2.3c-1.1-0.1-2.2,0.2-3.1,0.9l-1.6-0.3
					c-0.6-1.1-1.8-1.9-3.1-2c-1.2-0.1-2.3,0.3-3.2,1.1l-1.8-0.2c-0.7-1-1.9-1.7-3.1-1.7c-1.2-0.1-2.3,0.4-3.1,1.2
					c-0.7,0-1.4-0.1-2.2-0.1c-0.4-0.5-1-0.9-1.6-1.1l-0.1-0.1l-0.4-0.2h-1.8l-0.2,0.1c-0.8,0.3-1.5,0.7-2.1,1.3
					c-0.7,0-1.5,0-2.3,0.1c-0.8-0.8-1.9-1.3-3.1-1.2c-1.1,0.1-2.1,0.6-2.8,1.4l-0.1,0.1c-0.8,0.1-1.5,0.1-2.2,0.2
					c-0.9-0.7-2-1-3.1-0.9c-1.1,0.1-2.2,0.7-2.8,1.7c-0.7,0.1-1.4,0.2-2.2,0.4c-0.7-0.5-1.5-0.8-2.4-0.8c-0.2,0-0.4,0-0.6,0
					c-1.2,0.1-2.3,0.8-2.9,1.9l-2,0.5c-0.6-0.4-1.4-0.6-2.1-0.6c-0.2,0-0.4,0-0.7,0.1c-1.1,0.2-2.2,0.9-2.8,1.8
					c-0.1,0.1-0.1,0.2-0.2,0.3l-2,0.6c-0.5-0.3-1.1-0.4-1.7-0.5c-1.3-0.1-2.6,0.5-3.4,1.6c-0.2,0.2-0.3,0.5-0.5,0.8l-1.8,0.7
					c-0.8-0.4-1.7-0.5-2.6-0.3c-1.4,0.3-2.5,1.3-3,2.6c-0.6,0.2-1.1,0.5-1.6,0.7c-0.4-0.2-0.9-0.3-1.3-0.3c-1.5,0-2.9,0.7-3.7,2
					c-0.2,0.3-0.3,0.6-0.4,1l-1.6,0.8c-0.4-0.2-0.9-0.2-1.3-0.2c-2,0-3.6,1.4-4,3.3c-0.5,0.3-0.9,0.5-1.3,0.8
					c-0.4-0.1-0.7-0.2-1.1-0.2c-0.8,0-1.7,0.3-2.3,0.7c-1,0.7-1.6,1.7-1.7,2.9l-1.2,0.9c-0.3-0.1-0.7-0.1-1-0.1
					c-1.2,0-2.4,0.5-3.2,1.5c-0.6,0.7-0.9,1.6-0.9,2.5c-0.4,0.3-0.7,0.6-1.1,0.9c-0.3-0.1-0.5-0.1-0.8-0.1h-0.1
					c-1.5,0-2.9,0.9-3.5,2.3c-0.3,0.6-0.5,1.3-0.4,2.1L63,77.9c-0.4-0.1-0.8-0.1-1.2,0c-1.5,0.2-2.8,1.2-3.3,2.7
					c-0.2,0.6-0.3,1.3-0.2,1.9l-0.8,0.8c-0.3,0-0.7,0-1,0c-1.5,0.3-2.7,1.4-3.1,2.8c-0.2,0.7-0.3,1.4-0.1,2.2
					c-0.2,0.3-0.5,0.5-0.7,0.8c-0.4,0-0.8,0-1.2,0.1c-1.4,0.3-2.6,1.4-2.9,2.8c-0.2,0.8-0.2,1.6,0,2.4c-0.2,0.3-0.4,0.5-0.5,0.8l0,0
					c-1.3,0-2.6,0.6-3.4,1.7c-0.8,1.1-0.9,2.6-0.4,3.8l-0.5,0.8c-2.3,0.1-4,2-3.9,4.3c0,0.6,0.2,1.1,0.4,1.6
					c-0.1,0.3-0.3,0.5-0.4,0.8c-1.8,0.2-3.2,1.5-3.6,3.2c-0.2,1,0,2,0.5,2.9l-0.4,0.8c-0.1,0-0.2,0-0.2,0c-1.7,0.4-3,1.8-3.2,3.6
					c-0.1,0.9,0.2,1.9,0.7,2.7c-0.1,0.3-0.2,0.6-0.3,0.8c-2.2,0.5-3.6,2.7-3.1,4.9c0.1,0.3,0.1,0.5,0.3,0.8c0.1,0.3,0.3,0.6,0.5,0.8
					c-0.1,0.3-0.2,0.6-0.3,0.9c-1,0.3-1.8,0.9-2.4,1.8c-0.6,1.1-0.7,2.4-0.3,3.5c0.2,0.5,0.4,0.9,0.8,1.2l-0.3,1.1
					c-1.4,0.5-2.4,1.7-2.6,3.2c-0.2,1.3,0.3,2.6,1.2,3.5c-0.1,0.4-0.1,0.7-0.2,1.1c-1.2,0.6-2.1,1.7-2.3,3.1
					c-0.2,1.4,0.3,2.7,1.3,3.6l-0.2,1.3c-0.9,0.6-1.6,1.4-1.9,2.4l-0.1,0.2v2l0.3,0.3c0.3,0.7,0.7,1.2,1.2,1.7
					c0,0.8-0.1,1.5-0.1,2.3c-0.6,0.5-1.1,1.2-1.4,2l-0.1,0.2v1.6l0.2,0.4c0,0.1,0.1,0.3,0.2,0.4c0.2,0.5,0.6,1,1,1.5
					c0,0.7,0,1.5,0.1,2.2c-0.6,0.6-1,1.5-1.2,2.4c-0.2,1.4,0.4,2.8,1.5,3.7c0.1,0.7,0.1,1.5,0.2,2.2c-0.7,0.9-1.1,2-0.9,3.2
					c0.1,1.1,0.8,2.1,1.7,2.8c0.1,0.7,0.2,1.5,0.4,2.2c-0.6,0.9-0.9,1.9-0.7,3c0.2,1.1,0.9,2.2,1.9,2.7c0.2,0.7,0.3,1.4,0.5,2.1
					c0,0.1-0.1,0.1-0.1,0.2c-0.5,0.9-0.7,2.1-0.4,3.1c0.3,1.1,1,2,2,2.5c0.2,0.7,0.4,1.3,0.6,1.9c-0.5,0.8-0.6,1.8-0.4,2.7
					c0.2,1.3,1.1,2.4,2.3,2.9l0.7,1.8c-0.2,0.5-0.3,0.9-0.4,1.4c0,1.3,0.4,2.5,1.3,3.4c0.4,0.4,0.9,0.7,1.4,0.9
					c0.2,0.5,0.5,1.1,0.8,1.6c-0.2,0.4-0.3,0.8-0.3,1.2v0.1c0,1.2,0.4,2.3,1.3,3.2c0.5,0.5,1.1,0.8,1.8,1c0.3,0.5,0.5,1,0.8,1.5
					c-0.1,0.3-0.2,0.7-0.2,1.1c0,1.2,0.4,2.3,1.2,3.2c0.6,0.6,1.3,1,2.1,1.1c0.3,0.5,0.5,0.9,0.8,1.3c-0.1,0.4-0.1,0.7-0.2,1.1
					c0,1.1,0.4,2.1,1.2,2.9c0.7,0.7,1.5,1.1,2.5,1.2l0.9,1.2c-0.2,0.9-0.1,1.8,0.3,2.7c0.5,1.2,1.7,2.1,3,2.3l0.3,0.5l0.5-0.2
					c0.2,0.3,0.4,0.5,0.7,0.8c-0.1,0.4-0.1,0.8,0,1.2c0.1,1.5,1.1,2.8,2.5,3.3c0.5,0.2,1,0.3,1.6,0.3h0.2l0.8,0.9
					c-0.4,2.2,1.1,4.2,3.3,4.6c0.2,0,0.5,0.1,0.7,0.1l0,0c0.2,0,0.4,0,0.6,0l0.8,0.8c0,0.1,0,0.2,0,0.4c0,1.6,0.9,3.1,2.4,3.8
					c0.5,0.2,1.1,0.3,1.7,0.3l0,0c0.3,0,0.6,0,0.9-0.1c0.3,0.2,0.5,0.4,0.8,0.7c0,0.7,0.1,1.4,0.4,2c0.6,1.3,1.9,2.1,3.3,2.2H73
					c0.5,0,0.9-0.1,1.4-0.2l0.8,0.6c0,0.4,0.1,0.8,0.2,1.2c0.4,1.5,1.7,2.6,3.2,2.8c0.2,0,0.5,0.1,0.8,0.1c0.5,0,1-0.1,1.4-0.3
					l0.7,0.4c0.1,1.7,1.3,3.2,3,3.8c0.4,0.1,0.8,0.2,1.2,0.2l0,0c0.6,0,1.2-0.1,1.8-0.4l0.8,0.5c0,0.2,0.1,0.4,0.1,0.5
					c0.4,1.6,1.6,2.7,3.2,3c0.2,0,0.5,0.1,0.7,0.1c0.7,0,1.4-0.2,2-0.5l0.8,0.4c0,0.1,0.1,0.3,0.1,0.4c0.4,1.6,1.8,2.8,3.5,3h0.4
					l0,0c0.8,0,1.6-0.3,2.3-0.7l0.9,0.3c0.1,0.5,0.3,1,0.7,1.5c0.7,1.1,2,1.7,3.3,1.7l0,0c0.9,0,1.8-0.3,2.5-0.9l1,0.3
					c0.4,1.4,1.6,2.5,3,2.8c0.2,0,0.5,0.1,0.7,0.1c1,0,2-0.3,2.7-1l1,0.2c0.2,0.4,0.4,0.8,0.6,1.1c0.8,1,1.9,1.5,3.1,1.5l0,0
					c1.1,0,2.1-0.4,2.9-1.2l1.2,0.2c0.6,1.2,1.7,2.1,3,2.3h0.6l0,0c1.2,0,2.3-0.5,3.1-1.3l1.3,0.2c0.1,0.2,0.3,0.5,0.5,0.7
					c0.4,0.3,0.8,0.6,1.3,0.9c0.2,0.1,0.3,0.2,0.5,0.3l0.3,0.2h2.1l0.3-0.3c0.7-0.3,1.3-0.7,1.8-1.3c0.5,0,1.1,0,1.6,0.1
					c0.6,0.6,1.3,0.9,2.1,1.1c0.2,0,0.5,0.1,0.7,0.1l0,0c1,0,2-0.4,2.7-1.1c1,0,2,0,2.9-0.1c0.7,0.6,1.6,0.9,2.5,0.8h0.2
					c1,0,1.9-0.4,2.6-1.1c1-0.1,2-0.2,3.1-0.3c0.6,0.4,1.3,0.6,2.1,0.6h0.3c1-0.1,1.9-0.5,2.6-1.3c1-0.2,2.1-0.3,3.1-0.5
					c0.6,0.3,1.2,0.5,1.9,0.5l0,0h0.4c1-0.1,1.9-0.6,2.5-1.4c1.1-0.2,2.1-0.5,3.1-0.7c0.4,0.2,0.9,0.3,1.3,0.3h0.2
					c1.3,0,2.4-0.5,3.2-1.5c1-0.3,2-0.6,3.1-0.9c0.4,0.1,0.8,0.2,1.2,0.2l0,0c0.3,0,0.5,0,0.8-0.1c1-0.2,1.9-0.8,2.5-1.7
					c1-0.3,2-0.7,2.9-1.1c0.3,0.1,0.7,0.1,1,0.1l0,0c0.3,0,0.6,0,0.8-0.1c1.1-0.2,2.1-0.9,2.7-1.9c1-0.4,1.9-0.8,2.9-1.3
					c0.2,0,0.5,0.1,0.7,0.1l0,0c0.5,0,0.9-0.1,1.4-0.2c1-0.3,1.8-1.1,2.3-2c0.9-0.5,1.8-0.9,2.6-1.4c0.2,0,0.3,0,0.5,0l0,0
					c1.6,0,3.1-1,3.7-2.5c0.8-0.5,1.7-1,2.5-1.6h0.3c0.5,0,1-0.1,1.4-0.3c1.2-0.4,2.1-1.4,2.5-2.5c0.7-0.5,1.5-1,2.2-1.6
					c0.2,0,0.4,0,0.6,0c1.4-0.2,2.7-1.1,3.3-2.4c0.1-0.2,0.1-0.4,0.2-0.6c0.7-0.5,1.4-1.1,2.1-1.7c1.9,0,3.5-1.4,3.9-3.3l0.6-0.3
					l-0.1-0.3l1.4-1.3c1-0.1,1.9-0.5,2.6-1.2c0.7-0.7,1.1-1.6,1.1-2.5c0.6-0.6,1.1-1.2,1.7-1.8c1.4-0.2,2.7-1.1,3.3-2.4
					c0.2-0.5,0.3-1,0.3-1.6l1.5-1.8c1-0.2,1.9-0.7,2.5-1.5c0.6-0.8,0.9-1.8,0.9-2.8c0.4-0.6,0.9-1.2,1.3-1.8c0.1,0,0.2,0,0.3-0.1
					c1.5-0.4,2.6-1.7,2.8-3.3c0.1-0.4,0.1-0.8,0-1.2c0.4-0.6,0.8-1.2,1.1-1.8c1.5-0.4,2.6-1.6,2.9-3.2c0.1-0.6,0.1-1.1,0-1.7l1-1.8
					c1.3-0.4,2.3-1.4,2.7-2.7c0.2-0.8,0.2-1.6,0-2.4c0.3-0.6,0.6-1.2,0.9-1.8c0.4-0.2,0.8-0.4,1.2-0.7c1.2-1,1.7-2.6,1.3-4.1
					c0-0.2-0.1-0.3-0.2-0.5c0.3-0.6,0.5-1.3,0.8-1.9c1-0.5,1.8-1.4,2.2-2.5c0.3-1,0.2-2.1-0.2-3c0.2-0.7,0.4-1.3,0.6-2
					c1.3-0.7,2.1-2,2.1-3.5c0-0.7-0.2-1.4-0.5-2c0.2-0.7,0.4-1.4,0.5-2.1c1.2-0.8,1.9-2.1,1.8-3.5c0-0.7-0.3-1.4-0.7-2
					c0.1-0.8,0.3-1.5,0.4-2.3c0.8-0.6,1.4-1.5,1.5-2.5c0.2-1.1-0.1-2.2-0.7-3.1l0,0c0.1-0.8,0.2-1.6,0.3-2.4
					c0.8-0.6,1.2-1.6,1.3-2.5c0.1-1.1-0.2-2.2-0.9-3c0-0.7,0.1-1.5,0.1-2.2c0.6-0.5,1-1.2,1.3-2l0.1-0.2v-1.8L267.6,165.9z"/>
				<path class="st3" d="M262.3,159.3c-0.3,1-1.2,1.8-2.3,2.1c-0.1,0-0.3,0.1-0.4,0.1c-3,0-5.9,0-8.9,0c-1.2-0.1-2.3-0.9-2.6-2.1
					c-0.3-1.1,0.1-2.4,1.1-3c0.5-0.3,1.2-0.5,1.8-0.6c2.7-0.1,5.5,0,8.2,0c1.4,0,2.6,0.9,3,2.3L262.3,159.3z"/>
				<path class="st3" d="M33,156.2c0.5-1.5,2-2.5,3.7-2.3c2.4,0,4.8,0,7.3,0c0.5,0,1,0.1,1.5,0.3c1.3,0.5,2,1.8,1.7,3.2
					c-0.3,1.3-1.4,2.3-2.7,2.3c-2.9,0-5.8,0-8.7,0c-1.1,0-2.2-0.7-2.6-1.8c-0.1-0.2-0.2-0.3-0.2-0.5L33,156.2z"/>
				<path class="st3" d="M33,148.2c0.8-1.8,1.7-2.3,3.8-2.2c2.5,0.2,4.9,0.3,7.4,0.5c1.6,0,3,1.2,3.1,2.8c0,1.6-1.2,2.8-2.7,2.9
					c0,0,0,0-0.1,0c-1.5,0-3-0.2-4.5-0.3c-1.3-0.1-2.7-0.2-4-0.3c-1.3,0-2.4-0.8-2.8-2.1c0,0-0.1-0.1-0.1-0.1L33,148.2z"/>
				<path class="st3" d="M149.2,42.9c0.1,0.1,0.2,0.1,0.3,0.2c1.1,0.4,1.9,1.5,1.8,2.7c0,2.8,0,5.6,0,8.4c0,1.6-1.2,2.9-2.8,2.9
					c-1.6,0-2.9-1.2-2.9-2.8c0,0,0,0,0-0.1c-0.1-2.8-0.1-5.7,0-8.5c0-1.4,1-2.5,2.3-2.9H149.2z"/>
				<path class="st3" d="M138.4,272.2c-0.5-0.3-1-0.6-1.5-1c-0.5-0.5-0.8-1.3-0.7-2c0.2-2.8,0.4-5.7,0.6-8.6c0.1-1.6,1.4-2.7,3-2.7
					c1.6,0.2,2.7,1.5,2.6,3.1c-0.1,1.6-0.2,3.1-0.3,4.7c-0.1,1.2-0.2,2.4-0.3,3.7c0,1.2-0.9,2.3-2.1,2.7c0,0-0.1,0.1-0.1,0.1
					L138.4,272.2z"/>
				<path class="st3" d="M144.1,125.8V121h-23.4v-4.3h23.4v-5.3h-16.8V107H144v-7h4.3v6.9h17.7v4.4h-17.6v5.3h23.9v4.3h-23.9v4.8
					c0.3,0,0.6,0,0.9,0c8.1,0.1,16.1,1.7,23.6,4.7c5.7,2.2,10.9,5.6,15.2,9.9c3.1,3.1,5.3,7.1,6.3,11.4c1.1,5.2,0.1,10.7-2.7,15.2
					c-2.7,4.2-6.3,7.8-10.5,10.3c-5.7,3.5-11.9,6-18.4,7.3c-6.3,1.4-12.7,1.9-19.1,1.6c-8.5-0.3-16.9-2.2-24.7-5.7
					c-5.1-2.2-9.7-5.5-13.5-9.6c-2.8-3-4.7-6.6-5.6-10.6c-1.2-5.4-0.1-11.1,3-15.7c2.6-4,6.1-7.3,10.1-9.8c6-3.8,12.7-6.4,19.7-7.7
					C136.5,126.4,140.3,126,144.1,125.8z M147.3,182.1c5.3,0,10.6-0.6,15.7-1.8c5.7-1.2,11.1-3.5,16-6.5c3.7-2.2,6.9-5.3,9.2-9
					c2.1-3.3,3-7.4,2.3-11.3c-0.7-3.6-2.4-6.9-4.9-9.5c-3.6-3.9-8-6.9-12.9-8.9c-7.9-3.3-16.3-5-24.9-5c-4.8-0.1-9.6,0.4-14.3,1.3
					c-6,1.1-11.7,3.3-17,6.3c-3.7,2.1-7,5-9.5,8.5c-3.1,4.5-4.2,9.3-2.6,14.6c1.2,3.7,3.5,7,6.5,9.5c4,3.5,8.6,6.1,13.6,7.9
					C131.9,180.8,139.5,182.1,147.3,182.1z"/>
				<path class="st3" d="M142.8,196.5c0.8-0.9,1.5-1.9,2.3-2.7c0.5-0.6,1.1-1.1,1.8-1.5c0.4-0.3,0.9-0.3,1.3,0
					c0.9,0.8,1.7,1.5,2.5,2.3c0.6,0.6,1.1,1.3,1.6,1.9c0.6-1,1.1-2,1.8-3c0.4-0.8,1.1-1.4,2-1.6c0.4-0.1,0.8-0.1,1.2,0
					c0.9,0,1.8,0.1,2.6,0.2c0.3,0,0.7,0.1,0.7,0.3c0,0.3-0.1,0.6-0.2,0.8c-0.1,0.2-0.3,0.4-0.5,0.5c-2.6,1.7-4.8,4-6.5,6.6
					c-1.5,2.1-2.8,4.3-4.3,6.4c-0.3,0.5-0.6,0.9-1,1.3c-0.3,0.4-1,0.5-1.4,0.2c-0.1-0.1-0.2-0.2-0.2-0.3c-0.2-0.3-0.4-0.6-0.6-1
					c-2.3-4.3-5.2-8.2-8.7-11.6c-0.6-0.5-1.2-1-1.9-1.4c-0.3-0.2-0.5-0.4-0.7-0.7c-0.2-0.2-0.4-0.6-0.3-0.8c0.2-0.2,0.5-0.4,0.8-0.4
					c0.7-0.1,1.4,0,2-0.2c2-0.5,3.2,0.5,4.1,2.1L142.8,196.5z M146.5,197.1c0.2,1,0.4,2,0.6,2.9c0.1,0.2,0.4,0.4,0.6,0.6
					c0.2-0.2,0.5-0.4,0.5-0.6c0.6-1.9,0.6-4,0-5.9c-0.1-0.2-0.4-0.4-0.6-0.6c-0.2,0.2-0.5,0.4-0.5,0.6
					C146.8,195.2,146.7,196.2,146.5,197.1L146.5,197.1z"/>
				<path class="st3" d="M53,156.7c0.2-3.1,0.3-6.3,0.5-9.4c0.1-1.1,0.2-2.2,0.3-3.2c0.1-1.1,1.1-1.9,2.2-1.8
					c1.1,0.1,1.9,1.1,1.8,2.2c-0.2,2-0.3,4-0.5,5.9c-0.3,3.2-0.4,6.4-0.1,9.7c0.2,3,0.5,6,0.8,9c0,0.3,0.1,0.5,0.2,0.8
					c0.3,1.1-0.4,2.2-1.5,2.5c-0.1,0-0.1,0-0.2,0c-1.1,0.1-2.2-0.7-2.3-1.8c0,0,0-0.1,0-0.1C53.5,165.9,53.2,161.3,53,156.7
					L53,156.7z"/>
				<path class="st3" d="M217.6,98.8c0-0.8,0.5-1.6,1.3-1.9c0.8-0.3,1.7-0.1,2.3,0.6c0.9,1.1,1.6,2.2,2.4,3.3
					c3.9,5.4,7.3,11.1,10.1,17.1c0.4,0.9,0.8,1.7,1.1,2.6c0.4,1-0.1,2.2-1.1,2.7c-1,0.4-2.2-0.1-2.7-1.1l0,0
					c-2.2-5.4-5-10.5-8.2-15.4c-1.4-2.2-3.1-4.2-4.6-6.3c-0.3-0.5-0.6-1-0.8-1.5L217.6,98.8z"/>
				<path class="st3" d="M207.3,228.3c0,0.7-0.4,1.4-1,1.8c-2,1.4-3.9,2.8-5.9,4.2c-5.2,3.6-10.8,6.6-16.6,9.1
					c-1,0.4-2.2-0.1-2.7-1.1c-0.4-1,0.1-2.2,1.1-2.7c4.8-2,9.4-4.4,13.7-7.1c2.7-1.7,5.3-3.7,7.9-5.7c0.6-0.6,1.5-0.7,2.3-0.4
					C206.8,226.8,207.3,227.5,207.3,228.3z"/>
				<path class="st3" d="M205.8,84.6c0,1.1-1,2-2.1,2c-0.5,0-0.9-0.2-1.3-0.5c-0.9-0.7-1.8-1.4-2.8-2.1c-5.7-4-11.8-7.3-18.3-10
					c-0.3-0.1-0.7-0.2-1-0.4c-1-0.3-1.6-1.5-1.3-2.5c0,0,0-0.1,0-0.1c0.4-1,1.5-1.6,2.6-1.2c0.1,0,0.1,0,0.2,0.1
					c7.8,3.2,15.2,7.3,22.1,12.2c0.4,0.3,0.7,0.5,1.1,0.8C205.6,83.3,205.8,83.9,205.8,84.6z"/>
				<path class="st3" d="M148.2,250.2l-11.1-0.7c-0.5,0-1-0.1-1.5-0.2c-1-0.2-1.8-1.1-1.7-2.2c0.1-1.1,1-1.9,2.1-1.9
					c2,0.1,4,0.3,6,0.5c2.9,0.3,5.8,0.4,8.6,0.2c3.4-0.2,6.8-0.6,10.1-0.8c0.5-0.1,1-0.2,1.5-0.2c1.1,0,2,0.9,2,2c0,1.1-0.9,2-2,2
					c-2.9,0.3-5.9,0.6-8.8,0.8c-1.8,0.1-3.5,0.2-5.3,0.2C148.2,250.1,148.2,250.1,148.2,250.2z"/>
				<path class="st3" d="M74,216.4c-0.7,0-1.4-0.4-1.8-1c-1.9-2.7-3.9-5.4-5.7-8.2c-3-4.5-5.5-9.3-7.6-14.3c-0.4-1,0-2.2,1.1-2.7
					c1-0.4,2.2,0,2.7,1.1c3.1,7.5,7.3,14.6,12.3,21c0.2,0.3,0.5,0.6,0.8,0.9c0.7,0.9,0.5,2.1-0.4,2.8
					C74.9,216.3,74.5,216.4,74,216.4L74,216.4z"/>
				<path class="st3" d="M88,187c-0.5-0.1-1.2-0.3-2-0.5c-2.9-0.5-5.8,0.2-8.2,1.9c-0.9,0.6-1.7,1.3-2.4,2c-0.7,0.9-2,0.9-2.9,0.2
					c-0.1-0.1-0.2-0.2-0.3-0.4c-0.4-0.5-0.4-1.2-0.1-1.8c1.6-2.8,3.1-5.5,4.7-8.3c0.9-1.6,2.9-2.2,4.6-1.3c0,0,0.1,0,0.1,0.1
					c2.6,1.4,5.2,2.9,7.8,4.3c0.9,0.4,1.4,1.4,1.2,2.4C90.1,186.5,89.4,187,88,187z"/>
				<path class="st3" d="M94.2,97.6v4.5c0.1,1.9-1.4,3.5-3.3,3.6c-0.1,0-0.1,0-0.2,0c-3,0.1-5.9,0.1-8.9,0.3
					c-1.1,0.1-2.1-0.7-2.2-1.8c0-0.2,0-0.5,0-0.7c0.2-0.8,0.9-1.4,1.7-1.6c4.9-1.2,7.4-4.5,8.8-9c0.2-0.5,0.5-1,0.8-1.4
					c0.5-0.5,1.3-0.7,1.9-0.3c0.7,0.2,1.1,0.9,1.1,1.6c0,1.6,0,3.2,0,4.8L94.2,97.6z"/>
				<path class="st3" d="M125.9,222.8c-0.1,1.2-0.7,2.3-1.8,3l-7.4,4.8c-0.9,0.7-2.2,0.6-2.9-0.2c0,0,0,0,0,0
					c-0.7-0.9-0.5-2.2,0.4-3c0.8-0.9,1.5-1.8,2.2-2.9c1.6-2.9,1.5-6,0.7-9.2c-0.1-0.5-0.2-1-0.1-1.6c0.2-1,1.2-1.6,2.2-1.4
					c0.5,0.1,0.9,0.4,1.1,0.8c1.7,2.7,3.4,5.3,5,7.9C125.5,221.6,125.7,222.2,125.9,222.8z"/>
				<path class="st3" d="M160.3,87.7c0,1.2-0.7,2.2-1.7,2.9c-2.7,1.6-5.3,3.2-8,4.8c-0.9,0.5-2,0.3-2.7-0.5
					c-0.6-0.9-0.4-2.2,0.4-2.9c1.2-1.1,2.2-2.5,2.8-4c0.9-2.6,1.1-5.4,0.4-8c-0.1-0.5-0.1-1.1,0-1.6c0.2-0.7,0.7-1.2,1.4-1.3
					c0.8-0.2,1.5,0.2,1.9,0.9c1.6,2.7,3.2,5.4,4.8,8.1C159.9,86.6,160.1,87.2,160.3,87.7z"/>
				<path class="st3" d="M139.1,79.2c-0.1,0.5-0.3,1.2-0.4,1.8c-0.5,2.9,0.2,6,1.9,8.4c0.6,0.8,1.2,1.6,1.9,2.3
					c0.5,0.5,0.8,1.1,0.8,1.8c0,1-0.9,1.8-1.9,1.7c-0.3,0-0.6-0.1-0.8-0.2c-2.7-1.5-5.4-3-8.1-4.5c-1.6-0.9-2.3-2.9-1.4-4.5
					c0-0.1,0.1-0.1,0.1-0.2c1.4-2.6,2.8-5.2,4.3-7.8c0.4-0.9,1.5-1.4,2.4-1.1C138.6,77.2,139.2,77.9,139.1,79.2z"/>
				<path class="st3" d="M186.3,108.1h4.6c1.9-0.1,3.4,1.4,3.5,3.3c0,0,0,0.1,0,0.1c0.1,2.9,0.2,5.9,0.3,8.8
					c0.1,0.6-0.1,1.2-0.5,1.7c-0.5,0.6-1.3,0.9-2,0.7c-0.9-0.2-1.5-0.9-1.6-1.8c-0.5-2.1-1.5-3.9-3.1-5.4c-1.7-1.5-3.7-2.6-5.9-3.2
					c-0.5-0.2-1-0.4-1.4-0.8c-0.6-0.5-0.7-1.3-0.4-2c0.3-0.7,0.9-1.1,1.7-1.1h4.8L186.3,108.1z"/>
				<path class="st3" d="M76.6,100.6c-0.1,0.4-0.3,0.8-0.6,1.2c-4.9,6.4-8.9,13.4-11.9,20.8c-0.2,0.4-0.3,0.8-0.5,1.2
					c-0.3,1.1-1.4,1.7-2.5,1.4c-0.1,0-0.1,0-0.2-0.1c-1-0.4-1.6-1.5-1.2-2.5c0-0.1,0-0.1,0.1-0.2c1.3-3,2.7-6,4.2-8.9
					c2.5-4.9,5.4-9.6,8.7-14c1.1-1.4,2.9-1.4,3.6,0.1C76.4,99.9,76.5,100.3,76.6,100.6z"/>
				<path class="st3" d="M196,194.7c0,1.5,0,3,0,4.5c0.1,1.9-1.4,3.5-3.3,3.6c-0.1,0-0.1,0-0.2,0l-8.9,0.3c-1.1,0.2-2.1-0.6-2.3-1.7
					c-0.1-1.1,0.6-2.1,1.7-2.3c4.9-1.2,7.5-4.5,8.8-9.1c0.2-1.1,1.3-1.9,2.4-1.7c0.1,0,0.2,0,0.3,0.1c0.7,0.2,1.1,0.9,1.1,1.6
					c0,1.6,0,3.3,0,4.9L196,194.7z"/>
				<path class="st3" d="M213,176.2c1.2,0.1,2.4,0.7,3,1.8c1.6,2.5,3.2,4.9,4.7,7.4c0.7,0.8,0.6,2.1-0.2,2.8c0,0,0,0-0.1,0.1
					c-0.9,0.6-2.1,0.5-2.9-0.3c-0.4-0.3-0.7-0.7-1.1-1c-2.1-1.7-4.7-2.6-7.4-2.4c-1.3,0.1-2.6,0.3-3.8,0.6c-1.5,0.3-2.8-0.5-2.8-1.8
					c0-0.6,0.3-1.2,0.8-1.5c2.7-1.7,5.4-3.4,8-5C211.8,176.6,212.4,176.4,213,176.2z"/>
				<path class="st3" d="M105.4,204.9h-4.5c-1.9,0.1-3.5-1.3-3.6-3.2c0-0.1,0-0.2,0-0.2c-0.1-3-0.2-5.9-0.3-8.9c0-0.5,0.2-1,0.4-1.5
					c0.4-0.7,1.2-1,2-0.7c0.9,0.2,1.5,1,1.7,1.8c0.3,1.3,0.9,2.6,1.7,3.7c1.8,2.4,4.4,4.1,7.4,4.8c0.5,0.1,0.9,0.4,1.3,0.7
					c0.6,0.5,0.7,1.3,0.4,2c-0.3,0.7-0.9,1.2-1.7,1.1h-4.8L105.4,204.9z"/>
				<path class="st3" d="M115.5,99.6c0.1-0.5,0.3-1.2,0.5-1.9c0.5-2.9-0.2-5.9-1.9-8.3c-0.6-0.8-1.3-1.6-1.9-2.4
					c-0.6-0.6-0.9-1.4-0.7-2.2c0.2-1,1.2-1.6,2.2-1.3c0.2,0,0.3,0.1,0.4,0.2c2.7,1.5,5.5,3,8.2,4.6c1.6,0.9,2.3,2.9,1.4,4.5
					c0,0-0.1,0.1-0.1,0.1c-1.4,2.6-2.9,5.2-4.3,7.8c-0.4,0.9-1.4,1.4-2.4,1.2C116.1,101.7,115.5,100.9,115.5,99.6z"/>
				<path class="st3" d="M130.7,221.3c-1.2-0.1-2.3-0.7-2.9-1.8c-1.6-2.5-3.1-5-4.8-7.4c-0.7-0.9-0.6-2.1,0.3-2.9
					c0.9-0.7,2.2-0.5,2.9,0.3c1.1,1.2,2.5,2.1,4,2.6c2.6,0.9,5.5,1,8.2,0.2c0.5-0.1,1-0.2,1.6-0.1c1,0.2,1.6,1.2,1.4,2.2
					c-0.1,0.5-0.4,0.9-0.8,1.1c-2.7,1.7-5.3,3.4-8,5C131.9,220.9,131.3,221.2,130.7,221.3z"/>
				<path class="st3" d="M127.2,227.8c1.2-0.1,2.4,0.5,3.1,1.5c1.7,2.6,3.4,5.2,5,7.8c0.6,0.9,0.4,2-0.4,2.7
					c-0.9,0.6-2.2,0.5-2.9-0.4c-1.4-1.5-3.2-2.5-5.2-3c-2.3-0.5-4.7-0.4-6.9,0.2c-0.5,0.1-1.1,0.1-1.6,0c-0.7-0.1-1.3-0.7-1.3-1.5
					c-0.1-0.7,0.2-1.4,0.8-1.8c2.7-1.7,5.3-3.4,8-5C126.2,228.1,126.7,227.9,127.2,227.8z"/>
				<path class="st3" d="M125.3,86.2c-0.5-0.2-1-0.3-1.5-0.6c-2.6-1.4-5.1-2.8-7.7-4.2c-1-0.4-1.5-1.6-1.1-2.6c0,0,0,0,0-0.1
					c0.5-1,1.7-1.5,2.7-1.1c1.9,0.6,4,0.7,6,0.2c2.3-0.7,4.3-1.9,6-3.6c0.5-0.6,1.3-0.9,2.1-0.8c1,0.1,1.7,1,1.5,2
					c0,0.2-0.1,0.4-0.2,0.6c-1.5,2.7-3,5.5-4.6,8.2C127.8,85.5,126.6,86.2,125.3,86.2z"/>
				<path class="st3" d="M205.3,104.9h-4.5c-1.9,0.1-3.5-1.4-3.6-3.3c0-0.1,0-0.2,0-0.2c-0.1-2.9-0.2-5.8-0.3-8.8
					c-0.2-1.1,0.5-2.1,1.6-2.3c1.1-0.2,2.2,0.6,2.4,1.7c1.2,4.9,4.5,7.4,9.1,8.8c1.4,0.4,2.2,1.6,1.7,2.8c-0.3,0.7-0.9,1.1-1.6,1.1
					h-4.8V104.9z"/>
				<path class="st3" d="M166.7,91.1c0-1.1,0.6-2.2,1.6-2.8c2.7-1.7,5.4-3.3,8.2-4.9c0.8-0.4,1.7-0.3,2.3,0.3
					c0.6,0.5,0.8,1.4,0.4,2.1c-0.2,0.4-0.5,0.8-0.8,1.1c-2.9,2.7-3.7,6-3.4,9.8c0.1,0.8,0.3,1.6,0.4,2.4c0.3,1.1-0.3,2.2-1.3,2.5
					c-0.2,0.1-0.4,0.1-0.7,0.1c-0.6,0-1.1-0.4-1.4-0.9c-1.6-2.7-3.2-5.4-4.8-8.1C167,92.2,166.8,91.7,166.7,91.1z"/>
				<path class="st3" d="M188.1,205.7h4.6c1.8,0,3.3,1.4,3.4,3.3c0.1,3,0.2,6.1,0.3,9.2c0.1,1.1-0.7,2.1-1.8,2.1c-0.1,0-0.3,0-0.4,0
					c-0.9-0.1-1.6-0.8-1.8-1.7c-1.2-4.8-4.5-7.4-9.1-8.7c-0.4-0.1-0.8-0.4-1.1-0.6c-0.6-0.5-0.9-1.3-0.6-2.1c0.2-0.7,1-1.2,1.8-1.2
					c0.8,0,1.6-0.1,2.4-0.1s1.6,0,2.4,0L188.1,205.7z"/>
				<path class="st3" d="M94.4,196.9c0,1.5,0,3,0,4.5c0.1,1.9-1.4,3.5-3.3,3.6c-0.1,0-0.1,0-0.2,0l-8.7,0.3
					c-1.1,0.2-2.1-0.6-2.3-1.7c-0.1-1.1,0.6-2.1,1.7-2.3c4.8-1.1,7.3-4.5,8.7-8.9c0.1-0.4,0.3-0.8,0.6-1.2c0.4-0.7,1.2-1,2-0.7
					c0.8,0.2,1.4,0.9,1.3,1.8c0,1.6,0,3.2,0,4.8L94.4,196.9z"/>
				<path class="st3" d="M132.4,225.8c0.1-1.2,0.7-2.2,1.6-2.8c2.6-1.7,5.2-3.3,7.8-5c0.9-0.6,2-0.4,2.7,0.4c0.7,0.9,0.5,2.2-0.4,3
					c-1.5,1.3-2.5,3.1-3,5c-0.6,2.3-0.5,4.8,0.1,7.1c0.1,0.5,0.1,1.1,0,1.6c-0.1,0.7-0.7,1.3-1.5,1.3c-0.7,0.2-1.4-0.2-1.8-0.8
					c-1.7-2.7-3.4-5.3-5-8C132.7,227,132.5,226.4,132.4,225.8z"/>
				<path class="st3" d="M97.7,215.6c0-1.4,0-2.9,0-4.3c-0.2-1.9,1.3-3.6,3.2-3.7c0.1,0,0.2,0,0.4,0c2.9-0.1,5.8-0.2,8.7-0.3
					c1.1-0.2,2.2,0.5,2.4,1.7c0,0,0,0,0,0.1c0,1.1-0.8,2.1-1.9,2.3c-2.2,0.5-4.2,1.7-5.7,3.4c-1.4,1.6-2.4,3.6-2.9,5.7
					c-0.2,1.1-1.3,1.9-2.5,1.7c-0.8-0.2-1.4-0.9-1.4-1.8c0-1.6,0-3.2,0-4.8H97.7z"/>
				<path class="st3" d="M176.1,234.8c-0.2,0-0.4-0.1-0.6-0.1c-3.3-1.1-7-0.5-9.8,1.6c-0.8,0.6-1.6,1.2-2.3,1.8
					c-0.5,0.5-1.1,0.7-1.7,0.8c-1,0-1.8-0.8-1.8-1.8c0-0.3,0.1-0.6,0.2-0.9c1.5-2.7,3-5.5,4.6-8.2c0.9-1.6,2.9-2.3,4.6-1.4
					c0,0,0,0,0.1,0c2.7,1.4,5.3,2.9,7.9,4.3c0.9,0.4,1.4,1.4,1.1,2.4C178,234.3,177.1,234.9,176.1,234.8z"/>
				<path class="st3" d="M203.1,167.5c-0.2-1.2-0.4-2.5-0.7-3.8c-0.2-0.7-0.1-1.5,0.3-2.1c0.6-0.8,1.7-1,2.5-0.5
					c0.2,0.1,0.4,0.3,0.5,0.5c1.7,2.7,3.3,5.3,5,7.9c1,1.6,0.6,3.7-1,4.7c0,0-0.1,0.1-0.1,0.1c-2.5,1.6-4.9,3.2-7.4,4.8
					c-0.9,0.7-2.2,0.6-2.9-0.2c-0.7-0.9-0.5-2.3,0.4-3c1.5-1.4,2.5-3.2,3-5.2C202.9,169.6,203,168.7,203.1,167.5z"/>
				<path class="st3" d="M90.7,128.6c0,0.6-0.3,1.2-0.9,1.5c-2.7,1.7-5.3,3.4-8,5c-1.5,1-3.6,0.6-4.6-1c0,0,0-0.1-0.1-0.1
					c-1.6-2.5-3.2-5-4.8-7.5c-0.7-0.9-0.6-2.1,0.2-2.9c0.9-0.7,2.2-0.5,3,0.3c1.1,1.2,2.4,2.1,3.9,2.6c2.7,0.9,5.6,1,8.3,0.2
					c1-0.4,2.1,0,2.6,0.8C90.6,127.9,90.7,128.2,90.7,128.6z"/>
				<path class="st3" d="M194.3,97v4.5c0.1,1.9-1.4,3.5-3.3,3.5c0,0-0.1,0-0.1,0l-8.8,0.3c-1.1,0.2-2.1-0.5-2.3-1.6c0,0,0,0,0,0
					c-0.1-1.1,0.6-2.1,1.7-2.4c4.8-1.1,7.3-4.5,8.7-9c0.2-0.5,0.5-1,0.9-1.4c0.5-0.6,1.3-0.7,2-0.3c0.7,0.3,1.1,0.9,1.1,1.6V97
					L194.3,97z"/>
				<path class="st3" d="M105.2,105.5h-4.5c-1.9,0.1-3.5-1.4-3.6-3.3c0-0.1,0-0.1,0-0.2c-0.1-2.9-0.2-5.8-0.3-8.7
					c-0.2-1.1,0.5-2.1,1.6-2.3c1.1-0.2,2.2,0.6,2.4,1.7c1.2,4.9,4.5,7.4,9,8.7c1.4,0.4,2.2,1.6,1.7,2.8c-0.2,0.7-0.9,1.1-1.6,1.1
					h-4.8V105.5z"/>
				<path class="st3" d="M237,190.6c-0.1,0.3-0.1,0.6-0.3,0.8c-3.1,7.7-7.2,15-12,21.8c-0.3,0.4-0.6,0.8-0.9,1.2
					c-0.7,0.9-1.9,1.1-2.8,0.4c0,0,0,0-0.1,0c-0.9-0.7-1.1-1.9-0.4-2.8c0,0,0.1-0.1,0.1-0.1c3.2-4.2,6.1-8.6,8.5-13.4
					c1.4-2.8,2.6-5.7,3.9-8.6c0.3-1,1.3-1.7,2.4-1.5C236.4,188.7,237.1,189.6,237,190.6z"/>
				<path class="st3" d="M207.4,205h4.2c1.1-0.1,2.1,0.6,2.3,1.6c0.1,1.1-0.6,2.2-1.7,2.4c-4.9,1.2-7.4,4.5-8.8,9.1
					c-0.2,1.1-1.1,1.8-2.2,1.8c-0.9,0-1.7-0.8-1.7-1.7c-0.1-3.1-0.2-6.3-0.2-9.4c-0.1-1.9,1.3-3.5,3.2-3.6c0.1,0,0.1,0,0.2,0
					c0.8,0,1.6,0,2.4-0.1s1.6-0.1,2.3-0.1L207.4,205z"/>
				<path class="st3" d="M163.7,219.9c-0.6-0.2-1.1-0.4-1.7-0.6c-2.6-1.4-5.2-2.8-7.8-4.2c-1-0.4-1.5-1.6-1.1-2.6c0,0,0,0,0,0
					c0.5-1,1.6-1.5,2.7-1.1c1.7,0.5,3.4,0.7,5.1,0.4c2.7-0.5,5.1-1.8,7-3.8c0.5-0.6,1.3-0.9,2.1-0.8c1,0.1,1.7,1,1.5,2
					c0,0.2-0.1,0.5-0.2,0.7c-1.5,2.8-3,5.5-4.6,8.3C166,219.1,164.9,219.8,163.7,219.9z"/>
				<path class="st3" d="M216.5,169.7c-1.3,0.1-2.5-0.6-3.2-1.7c-1.6-2.5-3.1-4.9-4.8-7.4c-0.7-0.9-0.6-2.2,0.3-2.9
					c0.9-0.7,2.2-0.5,2.9,0.4c1,1,2.2,1.9,3.5,2.5c2.7,1.1,5.8,1.2,8.6,0.4c0.6-0.1,1.2-0.1,1.8,0c0.7,0.2,1.2,0.8,1.2,1.5
					c0.1,0.7-0.2,1.3-0.8,1.7c-2.7,1.7-5.4,3.4-8.1,5C217.5,169.4,217,169.6,216.5,169.7z"/>
				<path class="st3" d="M157.5,100.9c-1.3,0.2-2.5,0.4-3.7,0.6c-0.6,0.1-1.1,0.1-1.7-0.1c-0.7-0.2-1.1-0.7-1.2-1.4
					c-0.2-0.7,0.2-1.4,0.8-1.8c2.7-1.6,5.5-3.3,8.2-4.8c1.6-0.9,3.7-0.4,4.6,1.3c0,0,0,0,0,0c1.5,2.5,3.1,5.1,4.6,7.6
					c0.7,0.9,0.5,2.2-0.3,2.9c-1,0.7-2.3,0.5-3-0.4c-1.2-1.4-2.8-2.5-4.6-3C160,101.2,158.7,101.1,157.5,100.9z"/>
				<path class="st3" d="M97.5,116.2c0-1.4,0-2.9,0-4.3c-0.2-1.8,1.2-3.5,3-3.7c0.1,0,0.2,0,0.3,0c3.1-0.2,6.3-0.2,9.4-0.3
					c0.8,0,1.5,0.5,1.8,1.3c0.3,0.7,0.2,1.5-0.4,2c-0.3,0.3-0.8,0.6-1.2,0.8c-4.7,1.2-7.3,4.4-8.6,8.9c-0.4,1.3-1.1,2-2.2,2
					c-0.9,0-1.7-0.7-1.8-1.7c0,0,0,0,0,0c0-1.7,0-3.3,0-5L97.5,116.2z"/>
				<path class="st3" d="M86.3,108.6h4.5c1.9,0,3.5,1.4,3.5,3.3c0,0,0,0.1,0,0.1c0.1,3,0.2,5.9,0.3,8.9c0.1,1.1-0.6,2.1-1.7,2.2
					c-0.2,0-0.4,0-0.5,0c-0.9-0.1-1.6-0.8-1.8-1.7c-1.2-4.8-4.5-7.3-9-8.7c-0.5-0.2-1-0.4-1.4-0.8c-0.6-0.5-0.7-1.3-0.3-2
					c0.3-0.7,0.9-1.1,1.7-1.1h4.8L86.3,108.6z"/>
				<path class="st3" d="M217.4,135.1c0.1-0.5,0.3-1,0.5-1.4c1.4-2.6,2.8-5.2,4.3-7.8c0.4-1,1.5-1.5,2.5-1.1c1,0.4,1.5,1.5,1.3,2.5
					c-0.1,0.7-0.4,1.4-0.5,2.2c-0.4,2.8,0.4,5.6,2,7.9c0.5,0.8,1.2,1.5,1.8,2.3c0.3,0.3,0.5,0.7,0.7,1.1c0.3,0.7,0.1,1.6-0.5,2.1
					c-0.6,0.5-1.5,0.6-2.1,0.2l-7-3.9c-0.4-0.2-0.8-0.5-1.3-0.7C218,137.7,217.3,136.4,217.4,135.1z"/>
				<path class="st3" d="M204,125.5c0.5,0.1,1.3,0.3,2.1,0.5c2.6,0.4,5.2-0.1,7.4-1.5c1.1-0.7,2.1-1.5,3-2.3
					c0.6-0.7,1.5-0.9,2.4-0.7c0.9,0.3,1.4,1.3,1.1,2.2c0,0.1-0.1,0.2-0.1,0.3c-1.5,2.8-3.1,5.5-4.6,8.3c-0.9,1.6-3,2.2-4.6,1.3
					c0,0,0,0-0.1,0c-2.6-1.4-5.3-2.9-7.9-4.3c-0.9-0.4-1.4-1.4-1.2-2.3C201.9,126,202.7,125.5,204,125.5z"/>
				<path class="st3" d="M129.9,92.6c0.5,0.1,0.9,0.3,1.4,0.5c2.6,1.4,5.2,2.8,7.8,4.2c1,0.4,1.5,1.5,1.1,2.5
					c-0.4,1-1.4,1.5-2.4,1.3c-0.7-0.1-1.4-0.4-2.2-0.5c-3.1-0.4-6.2,0.5-8.7,2.5c-0.6,0.5-1.2,0.9-1.7,1.5c-0.8,0.9-2.1,0.9-3,0.1
					c-0.1,0-0.1-0.1-0.1-0.1c-0.5-0.6-0.6-1.4-0.2-2c1.5-2.8,3-5.5,4.6-8.2C127.2,93.1,128.5,92.4,129.9,92.6z"/>
				<path class="st3" d="M74.6,177.4c-0.1,0.5-0.3,0.9-0.5,1.4c-1.4,2.6-2.8,5.2-4.3,7.8c-0.4,1-1.6,1.5-2.6,1.1
					c-0.9-0.4-1.4-1.4-1.2-2.3c0.1-0.8,0.4-1.5,0.5-2.2c0.4-2.8-0.3-5.6-1.9-7.9c-0.6-0.9-1.3-1.7-2-2.5c-0.9-0.8-0.9-2.1-0.2-2.9
					c0.1-0.1,0.2-0.2,0.3-0.3c0.5-0.4,1.3-0.5,1.9-0.2c2.8,1.5,5.6,3.1,8.3,4.7C74,174.8,74.7,176,74.6,177.4z"/>
				<path class="st3" d="M211.1,139.2c-0.2,0.6-0.4,1.2-0.6,1.8c-1.4,2.5-2.7,5-4.1,7.5c-0.7,1.2-1.7,1.7-2.7,1.3
					c-1.1-0.5-1.5-1.8-1.1-2.9c0.8-2.5,0.6-5.2-0.4-7.5c-0.7-1.6-1.7-3.1-3-4.4c-0.5-0.5-0.8-1.2-0.8-1.9c0-1,0.9-1.8,1.9-1.7
					c0.2,0,0.5,0.1,0.7,0.2c2.9,1.5,5.7,3.1,8.5,4.8C210.4,136.9,211,138,211.1,139.2z"/>
				<path class="st3" d="M197.6,115.7c0-1.5,0-2.9,0-4.4c-0.1-1.9,1.3-3.5,3.2-3.6c0.1,0,0.2,0,0.3,0c2.9-0.1,5.9-0.2,8.8-0.3
					c1.1-0.2,2.1,0.6,2.3,1.6c0.1,1.1-0.7,2.1-1.7,2.4c-1,0.3-2,0.7-3,1.1c-3.1,1.7-4.8,4.5-5.7,7.8c-0.4,1.3-1.1,2-2.2,2
					c-0.9,0-1.7-0.7-1.7-1.7c0-1.6,0-3.3,0-4.9L197.6,115.7z"/>
				<path class="st3" d="M67.7,163.4c0.5,0.1,1.2,0.3,1.9,0.5c2.9,0.5,5.9-0.2,8.3-1.9c0.8-0.6,1.6-1.2,2.4-1.9
					c0.8-0.9,2.1-0.9,3-0.2c0.1,0.1,0.2,0.2,0.3,0.3c0.4,0.5,0.4,1.2,0.1,1.8c-1.5,2.8-3.1,5.5-4.7,8.3c-0.9,1.6-3,2.2-4.6,1.3
					c0,0,0,0,0,0c-2.6-1.4-5.3-2.9-7.9-4.3c-0.9-0.4-1.4-1.4-1.2-2.3C65.5,163.9,66.3,163.4,67.7,163.4z"/>
				<path class="st3" d="M217.9,174.3c0.1-1.2,0.7-2.3,1.8-3l7.5-4.8c0.9-0.7,2.1-0.6,2.9,0.3c0.6,0.9,0.5,2.1-0.3,2.9
					c-0.4,0.5-0.9,0.9-1.2,1.4c-1.8,2.3-2.5,5.3-2.1,8.2c0.1,1,0.3,2,0.6,2.9c0.4,1-0.2,2.2-1.2,2.5c-0.2,0.1-0.5,0.1-0.8,0.1
					c-0.6,0-1.1-0.3-1.4-0.8c-1.7-2.6-3.4-5.3-5-7.9C218.2,175.5,218,174.9,217.9,174.3z"/>
				<path class="st3" d="M177.3,212.8c0,0.2-0.1,0.3-0.1,0.5c-1.2,3.8-0.3,7.3,2,10.4c0.5,0.6,1,1.2,1.5,1.7c0.9,0.7,1,2,0.3,2.8
					c-0.1,0.2-0.3,0.3-0.5,0.4c-0.5,0.3-1.2,0.4-1.7,0c-2.7-1.5-5.5-3-8.2-4.6c-1.6-0.8-2.3-2.9-1.5-4.5c0-0.1,0.1-0.1,0.1-0.2
					c1.4-2.6,2.9-5.2,4.3-7.8c0.4-0.9,1.4-1.4,2.4-1.1C176.9,210.9,177.4,211.8,177.3,212.8z"/>
				<path class="st3" d="M81.9,140.5c0-1.3,0.6-2.5,1.7-3.2c2.5-1.6,5-3.2,7.4-4.8c0.9-0.7,2.2-0.6,2.9,0.3c0,0,0,0,0,0
					c0.6,0.9,0.5,2.2-0.4,2.9c-0.9,0.9-1.7,1.9-2.3,3.1c-1.3,2.8-1.5,5.9-0.6,8.9c0.1,0.5,0.2,1,0.1,1.5c-0.1,0.8-0.7,1.5-1.5,1.6
					c-0.7,0.2-1.5-0.2-1.9-0.8c-1.7-2.6-3.4-5.3-5-7.9C82.2,141.5,82,141,81.9,140.5z"/>
				<path class="st3" d="M153.7,233.2c0.1-0.5,0.3-1.3,0.5-2c0.4-2.5-0.1-5.2-1.4-7.3c-0.7-1.1-1.6-2-2.3-3.1
					c-0.4-0.5-0.7-1.1-0.8-1.7c-0.1-1,0.6-1.8,1.6-1.9c0.4,0,0.7,0,1.1,0.2c2.7,1.5,5.5,3,8.2,4.5c1.6,0.9,2.3,2.9,1.4,4.6
					c0,0,0,0.1-0.1,0.1c-1.4,2.6-2.9,5.3-4.3,7.9c-0.4,0.9-1.4,1.4-2.4,1.1C154.2,235.4,153.7,234.6,153.7,233.2z"/>
				<path class="st3" d="M149.3,63.8c3.4,0.3,6.9,0.6,10.4,0.9c1.1,0.1,1.9,1.1,1.8,2.2c0,0,0,0,0,0.1c-0.1,1.1-1.1,1.9-2.2,1.8
					c0,0-0.1,0-0.1,0c-4.3-0.6-8.7-0.9-13.1-0.8c-3.9,0-7.9,0.4-11.7,0.9c-0.3,0.1-0.6,0.1-0.9,0.1c-1.1,0.1-2.1-0.7-2.2-1.8
					s0.7-2.1,1.8-2.2c1.5-0.2,3-0.4,4.6-0.5C141.5,64.2,145.4,64,149.3,63.8z"/>
				<path class="st3" d="M75.2,137c0.1,1.2-0.5,2.4-1.4,3.1c-2.7,1.7-5.3,3.4-8,5.1c-0.9,0.5-2,0.3-2.6-0.5
					c-0.6-0.9-0.5-2.1,0.3-2.8c0.4-0.5,0.9-1,1.3-1.5c1.7-2.2,2.4-5,2.1-7.8c-0.1-1.1-0.3-2.1-0.6-3.2c-0.4-1.7,0.8-3,2.3-2.6
					c0.4,0.1,0.8,0.4,1,0.7c1.7,2.7,3.4,5.3,5.1,8C74.9,136,75.1,136.4,75.2,137z"/>
				<path class="st3" d="M206.9,202.6h-4.4c-1.9,0.1-3.5-1.4-3.6-3.3c0-0.1,0-0.2,0-0.3c-0.1-2.9-0.2-5.8-0.3-8.6
					c0-1.3,0.6-2.2,1.6-2.3c1.1-0.1,2.2,0.7,2.4,1.8c0.6,2.7,2.2,5.1,4.6,6.6c1.4,0.9,2.9,1.6,4.6,2.1c1.2,0.2,1.9,1.3,1.7,2.5
					c0,0,0,0,0,0c-0.2,0.8-0.9,1.4-1.7,1.4h-4.9L206.9,202.6z"/>
				<path class="st3" d="M72.6,150.4c-0.7,0.1-2.1,0.4-3.4,0.6c-0.5,0.1-1,0.1-1.5,0c-0.7-0.2-1.3-0.8-1.3-1.5
					c-0.1-0.7,0.2-1.4,0.8-1.8c2.6-1.6,5.2-3.3,7.8-4.9c1.5-1,3.6-0.6,4.7,0.9c0,0.1,0.1,0.1,0.1,0.2c1.6,2.5,3.2,5,4.8,7.4
					c0.7,0.9,0.5,2.1-0.3,2.9c-0.9,0.6-2.2,0.5-2.9-0.3c-1.1-1.2-2.4-2.1-3.9-2.6C75.9,150.7,74.3,150.4,72.6,150.4z"/>
				<path class="st3" d="M94.8,216c0,1.4,0,2.8,0,4.2c0.1,1.1-0.5,2.1-1.6,2.3c-1.1,0.1-2.2-0.6-2.4-1.7c-0.4-1.7-1.2-3.4-2.3-4.7
					c-1.8-2-4.1-3.4-6.7-4c-1.1-0.2-1.9-1.1-1.8-2.2c0.1-0.9,0.8-1.6,1.7-1.7c3.1-0.1,6.2-0.2,9.3-0.2c1.9-0.2,3.5,1.2,3.7,3.1
					c0,0.2,0,0.4,0,0.6c0,1.5,0,2.9,0,4.3L94.8,216z"/>
				<path class="st3" d="M224.7,149c-0.5-0.1-1.3-0.3-2-0.5c-2.9-0.5-5.8,0.2-8.2,1.9c-0.8,0.5-1.5,1.2-2.3,1.8
					c-0.4,0.3-0.9,0.6-1.4,0.8c-0.7,0.2-1.5,0-1.9-0.7c-0.5-0.5-0.5-1.3-0.2-1.9c1.5-2.8,3-5.5,4.6-8.2c0.9-1.6,2.9-2.3,4.6-1.4
					c0,0,0.1,0,0.1,0c2.7,1.4,5.3,2.9,7.9,4.3c0.9,0.4,1.4,1.4,1.1,2.4C226.8,148.5,226,149,224.7,149z"/>
				<path class="st3" d="M165.5,86.4c-1.3,0.1-2.5-0.5-3.1-1.6c-1.6-2.7-3.2-5.3-4.8-8c-0.5-0.9-0.3-2,0.5-2.6
					c0.9-0.6,2.1-0.5,2.9,0.3c0.6,0.6,1.2,1.2,1.9,1.7c2.2,1.6,4.9,2.3,7.6,2c1-0.1,2-0.3,2.9-0.5c1.6-0.3,3,0.8,2.6,2.3
					c-0.1,0.4-0.4,0.8-0.8,1.1c-2.7,1.6-5.4,3.2-8.2,4.8C166.4,86.1,165.9,86.3,165.5,86.4z"/>
				<path class="st3" d="M89.6,164.6c0,0.2-0.1,0.4-0.1,0.6c-1.2,3.8-0.3,7.3,2,10.4c0.4,0.6,1,1.1,1.4,1.7c0.6,0.6,0.9,1.5,0.6,2.3
					c-0.3,0.9-1.3,1.4-2.2,1.1c-0.1,0-0.2-0.1-0.3-0.1c-2.8-1.5-5.5-3-8.2-4.6c-1.6-0.9-2.2-2.9-1.4-4.5c0,0,0-0.1,0.1-0.1
					c1.4-2.6,2.9-5.3,4.3-7.9c0.4-0.9,1.4-1.4,2.4-1.1C89.1,162.7,89.7,163.6,89.6,164.6z"/>
				<path class="st3" d="M115.1,243.8c0,1.1-0.9,2-2,2c-0.3,0-0.5-0.1-0.8-0.2c-1.3-0.5-2.7-1.1-4-1.7c-6.1-2.7-11.8-6-17.3-9.8
					c-0.7-0.5-1.3-1-2-1.5c-0.9-0.6-1.1-1.9-0.5-2.8c0,0,0.1-0.1,0.1-0.1c0.7-0.9,2-1,2.9-0.3c0,0,0,0,0,0
					c6.1,4.8,12.9,8.7,20.1,11.6c0.7,0.3,1.4,0.5,2.1,0.8C114.5,242.1,115.1,242.9,115.1,243.8z"/>
				<path class="st3" d="M242.3,158.2c0,3.6-0.2,7.1-0.6,10.7c0,0.3-0.1,0.5-0.1,0.8c-0.2,1.1-1.2,1.8-2.3,1.6
					c-1.1-0.2-1.8-1.1-1.7-2.2c0.8-5.2,1-10.5,0.7-15.8c-0.2-3.2-0.6-6.3-1-9.5c-0.3-1.2,0.4-2.3,1.6-2.6c0,0,0.1,0,0.1,0
					c1.1-0.2,2.2,0.6,2.4,1.8c0,0.1,0,0.1,0,0.2C242,148.1,242.3,153.1,242.3,158.2z"/>
				<path class="st3" d="M114.2,72.3c0.1,0.9-0.5,1.6-1.3,1.9c-4.5,1.8-8.8,4-12.9,6.6c-3.1,1.9-6.1,4-8.9,6.3
					c-0.7,0.7-1.8,0.8-2.6,0.3c-0.9-0.6-1.2-1.8-0.7-2.7c0.1-0.2,0.3-0.4,0.5-0.6c1.4-1.1,2.9-2.2,4.4-3.3
					c4.9-3.5,10.2-6.5,15.7-9.1c1-0.4,1.9-0.9,2.9-1.3c1-0.4,2.2,0,2.6,1.1C114.1,71.7,114.2,72,114.2,72.3z"/>
				<path class="st3" d="M183.3,121.6c1.3,0,2.6,0.7,3.3,1.9l3.6,6.1c0.3,0.4,0.4,1,0.1,1.4c-0.4,0.5-1,0.7-1.5,0.5
					c-0.5-0.1-0.9-0.3-1.3-0.6c-1.6-1.3-3.3-2.3-5.2-3.1c-1.9-0.8-4-1.4-6.1-1.9c-0.6-0.1-1.1-0.4-1.5-0.9c-0.4-0.4-0.4-1-0.1-1.4
					c0.2-0.2,0.4-0.3,0.6-0.3c2.4-0.6,4.9-1.1,7.4-1.7C182.8,121.6,183,121.6,183.3,121.6z"/>
				<path class="st3" d="M109.4,121.7l3.2,0.6l4.4,0.9c0.6,0.1,1.1,0.3,1.2,0.9c0.1,0.6-0.1,1.2-0.7,1.5c-0.4,0.3-0.9,0.5-1.4,0.5
					c-2,0.3-3.9,0.9-5.7,1.9c-1.8,0.9-3.5,2.1-5.3,3.2c-0.5,0.4-1.1,0.6-1.8,0.6c-0.5,0.1-1-0.3-1.1-0.9c0-0.2,0-0.5,0.2-0.7
					c1.2-2.2,2.4-4.5,3.7-6.7C106.8,122.4,108.1,121.7,109.4,121.7z"/>
				<path class="st3" d="M180.9,192.9l-2.7-0.7l-4.7-1.2c-0.6-0.2-1.1-0.4-1.2-1.1c0-0.6,0.3-1.2,0.9-1.4c0.3-0.2,0.7-0.3,1.1-0.3
					c2.4-0.2,4.7-0.9,6.9-2c1.6-0.7,3.1-1.7,4.6-2.5c0.6-0.4,1.3-0.6,2-0.5c0.5,0.1,0.9,0.6,0.8,1.1c0,0.2-0.1,0.3-0.2,0.5
					c-1.3,2.2-2.7,4.3-4.1,6.4C183.6,192.3,182.3,193,180.9,192.9z"/>
				<path class="st3" d="M169.7,196.2c1.2,0,2.5,0,3.7,0c0.6-0.1,1.2,0.3,1.3,1c0,0.3-0.1,0.7-0.3,0.9c-0.4,0.5-0.9,0.9-1.5,1.1
					c-1.6,0.5-3.1,1.3-4.5,2.3c-2,1.3-3.9,2.8-5.5,4.6c-0.4,0.6-1.1,0.9-1.8,0.9c-0.6,0-1-0.4-1.1-0.9c0-0.1,0-0.3,0.1-0.4
					c0.8-2.4,1.7-4.9,2.6-7.3c0.6-1.4,2-2.3,3.6-2.3c0.6,0,1.2,0.1,1.8,0.1s1.2,0,1.8,0L169.7,196.2z"/>
				<path class="st3" d="M130.7,196.1c1.6-0.1,3.1,0.7,3.9,2.1c1,2.2,2,4.4,3,6.7c0.2,0.4,0.2,0.9-0.1,1.3c-0.3,0.4-0.9,0.6-1.3,0.4
					c-0.5-0.2-1-0.5-1.4-0.8c-1.2-1.2-2.5-2.3-4-3.1c-2.1-1.2-4.3-2.2-6.5-2.9c-0.6-0.2-1.1-0.5-1.5-1c-0.4-0.3-0.5-1-0.2-1.4
					c0.2-0.3,0.6-0.4,0.9-0.4C125.8,196.6,128.4,196.3,130.7,196.1z"/>
				<path class="st3" d="M113.8,193.2c-1.4,0-2.6-0.8-3.3-1.9l-3.6-6.1c-0.4-0.4-0.4-1-0.1-1.5c0.4-0.5,1-0.7,1.6-0.4
					c0.4,0.1,0.8,0.3,1.2,0.6c1.8,1.5,3.9,2.7,6.2,3.5c1.7,0.6,3.4,1,5.1,1.5c0.6,0.1,1.2,0.4,1.6,0.9c0.4,0.4,0.4,1,0,1.4
					c-0.2,0.2-0.4,0.3-0.6,0.3l-7.3,1.7C114.3,193.2,114.1,193.2,113.8,193.2z"/>
				<path class="st3" d="M171.7,266.4c0.1,1.6-0.9,3-2.5,3.2c-1.5,0.1-2.8-0.9-3.1-2.3c-0.5-2.5-1-4.9-1.5-7.4
					c-0.2-0.6-0.2-1.3-0.2-1.9c0.2-1.4,1.3-2.4,2.7-2.5c1.4,0,2.6,0.9,2.9,2.3c0.5,2,0.8,4.1,1.3,6.2
					C171.4,264.9,171.6,265.8,171.7,266.4z"/>
				<path class="st3" d="M149,264.8c0,1.4,0,2.8,0,4.1c0.1,1.6-1.2,2.9-2.8,2.9c-1.6,0.1-2.9-1.2-2.9-2.8l0,0c0-2.9,0-5.8,0-8.7
					c0.1-1.5,1.3-2.8,2.9-2.8c1.6,0,2.8,1.4,2.8,2.9C149,262,149,263.4,149,264.8z"/>
				<path class="st3" d="M173.9,48.5c-0.2,0.9-0.4,2.1-0.7,3.3c-0.4,1.7-0.7,3.4-1.1,5.1c-0.2,1.6-1.7,2.6-3.2,2.4s-2.6-1.7-2.4-3.2
					c0.6-2.9,1.1-5.7,1.8-8.5c0.3-1.4,1.7-2.4,3.1-2.2C172.9,45.5,174,46.9,173.9,48.5z"/>
				<path class="st3" d="M199.6,257.3c0,1.2-0.8,2.3-1.9,2.7c-1.2,0.4-2.5,0-3.2-1c-0.1-0.2-0.2-0.3-0.3-0.5c-1.2-2.5-2.5-5-3.7-7.5
					c-0.7-1.4-0.2-3.1,1.2-3.9c0.3-0.1,0.6-0.2,0.9-0.3c1.3-0.1,2.6,0.6,3.1,1.8c1.1,2.2,2.2,4.4,3.2,6.6c0.2,0.3,0.3,0.5,0.4,0.8
					C199.4,256.5,199.5,256.9,199.6,257.3z"/>
				<path class="st3" d="M247.1,211c-0.5-0.1-0.9-0.2-1.4-0.4c-2.5-1.2-5-2.5-7.4-3.8c-1.1-0.5-1.8-1.7-1.6-2.9
					c0.1-1.1,0.8-2,1.9-2.4c0.7-0.3,1.5-0.2,2.2,0.1c2.6,1.3,5.1,2.6,7.6,3.9c1.2,0.6,1.8,2,1.4,3.3
					C249.5,210.1,248.4,210.9,247.1,211z"/>
				<path class="st3" d="M44.7,207.1c0.1-1,0.6-1.9,1.5-2.3c2.6-1.3,5.2-2.6,7.8-3.8c1.4-0.6,3.1,0.1,3.7,1.5c0.6,1.3,0,2.9-1.3,3.6
					c-2.6,1.3-5.1,2.6-7.7,3.8c-1.4,0.7-3.1,0.1-3.8-1.4C44.8,208.1,44.7,207.6,44.7,207.1z"/>
				<path class="st3" d="M193,260.3c0,1.6-1.3,2.9-2.8,2.9c-1.2,0-2.3-0.7-2.7-1.8c-0.7-1.7-1.4-3.3-2.1-5c-0.4-0.9-0.8-1.8-1.1-2.8
					c-0.6-1.5,0.1-3.1,1.6-3.7c0.2-0.1,0.5-0.2,0.7-0.2c1.4-0.1,2.6,0.7,3.1,2c1,2.5,2,4.9,3,7.3C192.7,259.4,192.9,259.9,193,260.3
					z"/>
				<path class="st3" d="M55.1,113.5c-0.5-0.1-1-0.3-1.5-0.5c-2.4-1.2-4.8-2.4-7.1-3.6c-1.2-0.6-2-1.9-1.7-3.2
					c0.3-1.5,1.8-2.6,3.3-2.2c0.3,0,0.5,0.1,0.7,0.2c1.2,0.5,2.3,1.2,3.4,1.7c1.4,0.7,2.8,1.4,4.2,2.1c1.4,0.7,2,2.4,1.3,3.8
					c-0.2,0.3-0.4,0.6-0.6,0.8C56.5,113.2,55.8,113.5,55.1,113.5z"/>
				<path class="st3" d="M164.3,267.8c0.1,1.6-1,2.9-2.6,3c-1.5,0.1-2.9-1-3-2.5c-0.4-2.8-0.8-5.5-1.1-8.3c-0.2-1.4,0.6-2.8,2-3.3
					c1.5-0.4,3.1,0.5,3.5,2c0,0.2,0.1,0.3,0.1,0.5c0.4,2.7,0.7,5.5,1.1,8.2C164.3,267.6,164.3,267.7,164.3,267.8z"/>
				<path class="st3" d="M246.8,172.3c0.1-1.6,1.4-2.8,3-2.8c0.1,0,0.1,0,0.2,0c2.8,0.4,5.5,0.7,8.3,1.2c1.6,0.2,2.8,1.6,2.6,3.2
					c0,0.1,0,0.1,0,0.2c-0.4,1.6-1.9,2.6-3.5,2.3c-2.6-0.4-5.2-0.7-7.9-1.1C248,175.1,246.8,173.8,246.8,172.3z"/>
				<path class="st3" d="M92.4,243.3c-0.2,0.6-0.4,1.1-0.7,1.7c-1.5,2.3-3.1,4.6-4.7,6.9c-0.6,1-1.8,1.5-2.9,1.2
					c-1.1-0.2-1.9-0.9-2.2-2c-0.3-0.8-0.1-1.7,0.4-2.5c1.6-2.3,3.2-4.7,4.8-7c0.7-1,2.1-1.5,3.3-1.1C91.6,241,92.3,242.1,92.4,243.3
					z"/>
				<path class="st3" d="M48.1,213.5c0.1-0.9,0.6-1.8,1.4-2.2c2.4-1.4,4.9-2.8,7.4-4.2c1.4-0.8,3.1-0.4,3.9,1
					c0.8,1.4,0.3,3.1-1.1,3.9c0,0,0,0,0,0c-2.4,1.5-4.9,2.9-7.4,4.2c-1.4,0.8-3.1,0.3-3.9-1.1C48.2,214.5,48.1,214,48.1,213.5z"/>
				<path class="st3" d="M236.4,207.1c0.5,0.2,1.1,0.4,1.6,0.6c2.3,1.4,4.7,2.8,7,4.2c1.1,0.6,1.7,1.9,1.5,3.1
					c-0.2,1.1-1.1,2-2.2,2.2c-0.7,0.2-1.5,0-2.1-0.4c-2.4-1.4-4.8-2.8-7.2-4.3c-1-0.6-1.6-1.7-1.4-2.9c0.1-1.1,0.9-2,2-2.3
					C235.8,207.2,236.1,207.2,236.4,207.1L236.4,207.1z"/>
				<path class="st3" d="M61.2,104.7c0.1,1.6-1.2,2.9-2.7,2.9c-0.4,0-0.7,0-1-0.2c-0.2-0.1-0.4-0.2-0.6-0.3
					c-2.4-1.4-4.8-2.8-7.2-4.3c-1-0.5-1.6-1.6-1.4-2.7c0.1-1.6,1.5-2.7,3.1-2.6c0.4,0,0.8,0.2,1.2,0.4c0.6,0.3,1.1,0.6,1.6,1
					l5.6,3.3C60.5,102.8,61.1,103.7,61.2,104.7z"/>
				<path class="st3" d="M78.6,248.9c-1,0-1.9-0.6-2.3-1.5c-0.5-1-0.4-2.2,0.3-3.1c1.7-2.2,3.5-4.4,5.2-6.6c0.3-0.3,0.6-0.6,1-0.8
					c1.1-0.6,2.5-0.4,3.4,0.6c0.9,1,1,2.5,0.2,3.6c-0.7,1-1.4,1.8-2.2,2.8c-1,1.3-2,2.6-3,3.9C80.6,248.5,79.6,249,78.6,248.9z"/>
				<path class="st3" d="M181.1,50c-0.2,0.8-0.4,1.6-0.6,2.4c-0.6,2.1-1.2,4.2-1.8,6.3c-0.3,1.1-1.1,1.9-2.2,2.2
					c-1,0.3-2-0.1-2.7-0.8c-0.7-0.7-0.9-1.8-0.6-2.7c0.7-2.7,1.5-5.4,2.3-8.1c0.4-1.3,1.5-2.2,2.8-2.2c1.3,0,2.4,1,2.7,2.3
					C181,49.5,181,49.7,181.1,50L181.1,50z"/>
				<path class="st3" d="M258.4,168.9c-2.8-0.2-5.6-0.4-8.4-0.6c-1.6-0.2-2.7-1.5-2.6-3.1c0.2-1.5,1.5-2.7,3.1-2.6
					c2.4,0.1,4.7,0.3,7.1,0.5c0.5,0,1,0,1.5,0.1c1.6,0.2,2.7,1.6,2.6,3.2c-0.2,1.5-1.5,2.6-3.1,2.5H258.4z"/>
				<path class="st3" d="M257.9,188c0,1.6-1.3,2.8-2.9,2.8c-0.3,0-0.5,0-0.8-0.1c-2.7-0.7-5.4-1.5-8-2.2c-1.5-0.4-2.4-2-2-3.5
					s2-2.4,3.5-2l0,0c2.7,0.7,5.4,1.5,8,2.3C257,185.5,257.9,186.6,257.9,188z"/>
				<path class="st3" d="M247.7,105.2c1.3,0,2.4,0.8,2.8,2c0.4,1.2-0.1,2.5-1.1,3.2c-0.3,0.2-0.6,0.4-0.9,0.5l-6.8,3.3
					c-0.6,0.4-1.4,0.5-2.1,0.4c-1.1-0.2-2-1-2.2-2.1c-0.3-1.1,0.2-2.3,1.1-3c0.2-0.2,0.4-0.3,0.7-0.4c2.3-1.2,4.7-2.3,7-3.4
					C246.6,105.4,247.1,105.3,247.7,105.2z"/>
				<path class="st3" d="M256.2,121.5c0,1.2-0.8,2.4-2,2.8c-2.7,0.9-5.3,1.8-8,2.7c-1.5,0.5-3.1-0.3-3.6-1.7c0,0,0,0,0,0
					c-0.5-1.5,0.4-3.1,1.9-3.6c0,0,0,0,0,0c2.6-0.9,5.2-1.8,7.9-2.7c1.5-0.6,3.1,0.2,3.7,1.7C256.1,120.9,256.2,121.2,256.2,121.5z"
					/>
				<path class="st3" d="M42.2,196.6c-1.6,0.2-2.9-1-3.1-2.5c-0.1-1.3,0.7-2.5,1.9-2.9c1.2-0.5,2.4-0.8,3.6-1.2
					c1.5-0.5,2.9-1,4.4-1.5c1.4-0.5,3,0.1,3.7,1.4c0.7,1.4,0.1,3.1-1.3,3.8c-0.1,0.1-0.3,0.1-0.4,0.2c-1.8,0.6-3.6,1.2-5.3,1.8
					c-0.9,0.3-1.9,0.6-2.8,0.9C42.6,196.6,42.4,196.6,42.2,196.6z"/>
				<path class="st3" d="M144.2,54c0.2,1-0.2,1.9-0.8,2.6c-0.7,0.8-1.8,1.1-2.8,0.7c-1.1-0.3-1.8-1.2-1.9-2.3
					c-0.2-1.5-0.3-3-0.4-4.5c-0.1-1.3-0.1-2.7-0.3-4c-0.2-1.6,0.9-3,2.4-3.2c1.6-0.2,3,0.9,3.2,2.4c0,0.2,0,0.3,0,0.5
					C143.9,48.7,144,51.2,144.2,54z"/>
				<path class="st3" d="M87.7,254.2c0.1-0.5,0.3-1,0.6-1.5c1.4-2.4,2.8-4.8,4.3-7.1c0.5-1,1.6-1.6,2.8-1.4c1.1,0.1,2.1,0.8,2.4,1.9
					c0.3,0.8,0.2,1.6-0.2,2.3c-1.4,2.5-2.9,4.9-4.4,7.3c-0.7,1.1-2,1.6-3.3,1.3C88.6,256.5,87.8,255.4,87.7,254.2z"/>
				<path class="st3" d="M124.2,270.2c-1.6,0-2.8-1.3-2.8-2.9c0-0.2,0-0.4,0.1-0.5c0.5-2.7,1.1-5.4,1.7-8.2c0.3-1.5,1.6-2.5,3.1-2.4
					c1.4,0.1,2.5,1.2,2.5,2.6c0,0.8-0.1,1.6-0.3,2.3c-0.4,2.2-0.9,4.3-1.3,6.4C126.9,269,125.7,270.1,124.2,270.2z"/>
				<path class="st3" d="M150.3,260.9c0.1-0.7,0.3-1.4,0.6-2c0.5-1.1,1.7-1.6,2.9-1.4c1.3,0.2,2.2,1.2,2.4,2.5
					c0.2,2.1,0.3,4.3,0.5,6.5c0,0.7,0.1,1.4,0.1,2c0.2,1.6-1,3-2.5,3.1c0,0-0.1,0-0.1,0c-1.6,0.1-3-1.1-3.1-2.7c0-0.1,0-0.1,0-0.2
					c-0.2-2.6-0.3-5.1-0.5-7.7L150.3,260.9z"/>
				<path class="st3" d="M123.6,57.8c0.1,1.5-1,2.8-2.4,3c-1.5,0.1-2.8-0.8-3.2-2.2c-0.5-1.9-1-3.7-1.5-5.6
					c-0.2-0.8-0.4-1.6-0.6-2.4c-0.5-1.5,0.3-3.1,1.9-3.6c0.1,0,0.3-0.1,0.4-0.1c1.4-0.2,2.7,0.7,3.1,2c0.8,2.8,1.5,5.6,2.3,8.4
					C123.6,57.5,123.6,57.6,123.6,57.8z"/>
				<path class="st3" d="M247.8,151.5c0-1.5,1.2-2.7,2.7-2.8c2.8-0.2,5.5-0.4,8.3-0.6c1.4-0.1,2.7,0.7,3.1,2c0.4,1.5-0.4,3.1-2,3.6
					c-0.2,0.1-0.5,0.1-0.7,0.1c-2.8,0.2-5.5,0.4-8.3,0.5c-1.6,0.1-3-1-3.1-2.6C247.8,151.6,247.8,151.5,247.8,151.5z"/>
				<path class="st3" d="M243.4,95.4c0,1-0.4,2-1.3,2.6c-2.3,1.6-4.7,3.1-7,4.6c-1.3,0.9-3.1,0.5-3.9-0.8s-0.5-3.1,0.8-3.9
					c2.3-1.5,4.6-3.1,6.9-4.6c1.3-0.9,3-0.6,4,0.7c0.2,0.3,0.3,0.5,0.4,0.8C243.3,95,243.3,95.2,243.4,95.4z"/>
				<path class="st3" d="M36.8,167.4c-0.6-0.1-1.2-0.2-1.8-0.3c-1.2-0.5-1.9-1.6-1.7-2.9c0.2-1.3,1.2-2.3,2.5-2.5
					c1.3-0.1,2.7-0.2,4-0.3c1.7-0.1,3.3-0.2,5-0.3c1.5,0,2.8,1.3,2.7,2.8c0,0.8-0.4,1.6-1,2.1c-0.6,0.5-1.2,0.7-2,0.7l-7.7,0.5
					C36.8,167.3,36.8,167.4,36.8,167.4z"/>
				<path class="st3" d="M244.9,189.2c0.3,0,0.7,0.1,1,0.2c2.6,0.9,5.2,1.8,7.8,2.7c1.5,0.4,2.4,2,1.9,3.5c-0.4,1.5-2,2.4-3.5,1.9
					c-0.1,0-0.2-0.1-0.3-0.1c-1.8-0.6-3.7-1.3-5.5-1.9c-0.8-0.3-1.6-0.5-2.4-0.9c-1.5-0.5-2.2-2.2-1.7-3.6
					C242.6,189.9,243.6,189.1,244.9,189.2L244.9,189.2z"/>
				<path class="st3" d="M226,220.8c0-1,0.5-2,1.5-2.5c1-0.6,2.3-0.4,3.2,0.3c2,1.5,3.9,3,5.8,4.6c0.3,0.2,0.6,0.5,0.9,0.7
					c1.2,1,1.4,2.8,0.4,4c-1,1.2-2.7,1.4-3.9,0.5c-2.3-1.8-4.6-3.6-6.8-5.4C226.3,222.5,226,221.6,226,220.8z"/>
				<path class="st3" d="M212.2,250.2c0,1.2-0.8,2.3-1.9,2.7c-1.2,0.4-2.5,0-3.3-0.9c-0.3-0.4-0.6-0.8-0.9-1.2
					c-1.3-2-2.6-3.9-3.9-5.9c-0.9-1.3-0.6-3.1,0.7-4c1.3-0.9,3.1-0.6,4,0.7c1.6,2.4,3.2,4.7,4.7,7.1
					C211.9,249.1,212.1,249.6,212.2,250.2z"/>
				<path class="st3" d="M199.2,243.8c0.9,0.1,1.7,0.6,2.1,1.4c1.4,2.5,2.9,4.9,4.3,7.4c0.8,1.4,0.3,3.1-1.1,3.9
					c-1.4,0.8-3.1,0.3-3.9-1.1c-1.4-2.4-2.9-4.9-4.2-7.3c-0.8-1.4-0.3-3.1,1.1-3.9C198,243.8,198.6,243.7,199.2,243.8z"/>
				<path class="st3" d="M72.7,225.6c0,0.9-0.4,1.8-1.1,2.4c-2.1,1.8-4.2,3.6-6.3,5.4c-0.8,0.7-2,0.9-3,0.5c-1-0.3-1.7-1.2-1.7-2.3
					c-0.1-1,0.3-1.9,1-2.5c2.1-1.8,4.2-3.7,6.3-5.5c1.1-1.1,2.9-1,4,0.1c0.3,0.3,0.5,0.7,0.7,1.2C72.6,225.2,72.7,225.4,72.7,225.6z
					"/>
				<path class="st3" d="M201.2,57.8c-0.1,0.4-0.2,0.8-0.3,1.1c-1.3,2.6-2.6,5.2-4,7.8c-0.5,1.1-1.7,1.6-2.9,1.4
					c-1-0.1-1.9-0.8-2.2-1.8c-0.3-0.7-0.2-1.6,0.1-2.3c1.3-2.5,2.6-5.1,3.9-7.6c0.6-1.2,2-1.8,3.4-1.4
					C200.4,55.4,201.2,56.5,201.2,57.8z"/>
				<path class="st3" d="M210,236.4c0.9,0,1.8,0.4,2.4,1.2c1.7,2.2,3.4,4.4,5,6.6c1,1.2,0.8,3-0.4,4c-0.4,0.3-0.9,0.6-1.5,0.6
					c-1,0.1-2-0.3-2.6-1.1c-1.8-2.3-3.5-4.5-5.2-6.8c-0.7-0.9-0.8-2.1-0.2-3.1C208,236.9,208.9,236.4,210,236.4z"/>
				<path class="st3" d="M114.3,265.1l0.6-2.1c0.6-2.1,1.2-4.2,1.8-6.3c0.4-1.5,1.9-2.5,3.4-2.1c1.5,0.4,2.5,1.9,2.1,3.4
					c0,0,0,0,0,0.1c-0.7,2.7-1.5,5.4-2.3,8.1c-0.4,1.4-1.8,2.3-3.3,2.1C115.1,268,114.1,266.6,114.3,265.1z"/>
				<path class="st3" d="M58.9,228.5c-1.1,0-2.1-0.6-2.5-1.6c-0.5-1-0.3-2.3,0.6-3.1c0.5-0.5,1.1-1,1.7-1.4c1.8-1.3,3.5-2.7,5.3-4
					c1.2-1,3-0.9,4,0.3c0.3,0.4,0.5,0.8,0.6,1.3c0.2,1.2-0.3,2.4-1.3,3l-4.8,3.6c-0.5,0.4-1.1,0.8-1.7,1.2c-0.6,0.3-1.2,0.6-1.8,0.8
					L58.9,228.5z"/>
				<path class="st3" d="M37.1,174.9c-1.6,0.1-2.9-1-3.1-2.6c-0.1-1.6,1-2.9,2.6-3.1c2.8-0.4,5.5-0.8,8.3-1.1c1.5-0.2,3,0.8,3.3,2.3
					c0.3,1.6-0.7,3-2.3,3.3c-0.1,0-0.1,0-0.2,0c-2.8,0.4-5.6,0.7-8.4,1.1L37.1,174.9z"/>
				<path class="st3" d="M61.9,102.2c-0.6-0.2-1.2-0.4-1.7-0.7c-2.3-1.5-4.5-3.1-6.8-4.7c-1.3-0.9-1.6-2.7-0.7-4s2.7-1.6,4-0.7l0,0
					c2.3,1.6,4.6,3.1,6.8,4.7c1,0.6,1.5,1.8,1.3,2.9c-0.1,1.1-0.9,1.9-2,2.2c-0.3,0.1-0.5,0.1-0.8,0.1L61.9,102.2z"/>
				<path class="st3" d="M171.1,257c-0.1-1.6,1.1-2.9,2.6-3c1.3-0.1,2.5,0.7,2.9,2c0.4,1.3,0.7,2.5,1,3.8c0.4,1.5,0.8,2.9,1.2,4.3
					c0.5,1.5-0.3,3.1-1.8,3.6c-0.3,0.1-0.7,0.2-1.1,0.1c-1.2-0.1-2.2-0.9-2.5-2c-0.8-2.8-1.5-5.6-2.3-8.4
					C171.1,257.4,171.1,257.2,171.1,257z"/>
				<path class="st3" d="M117.1,59.9c0.1,1.6-1.2,2.9-2.7,2.9c-1.3,0-2.4-0.7-2.8-1.9c-0.5-1.4-1-2.9-1.5-4.3
					c-0.4-1.3-0.9-2.6-1.3-3.9c-0.4-1.5,0.4-3.1,1.9-3.5c0.3-0.1,0.6-0.1,0.9-0.1c1.2,0,2.2,0.8,2.6,1.9c1,2.7,1.9,5.4,2.8,8.1
					C117,59.4,117,59.7,117.1,59.9z"/>
				<path class="st3" d="M110.1,266.2c-1.6,0-2.8-1.3-2.8-2.9c0-0.3,0.1-0.6,0.2-0.9c0.9-2.7,1.9-5.4,2.9-8.1
					c0.5-1.5,2.2-2.2,3.6-1.7c1.5,0.5,2.2,2.2,1.7,3.6c-0.9,2.7-1.8,5.3-2.8,8C112.4,265.4,111.3,266.2,110.1,266.2z"/>
				<path class="st3" d="M94.1,257.5c0.1-0.4,0.2-0.8,0.4-1.2c1.2-2.5,2.5-4.9,3.8-7.4c0.5-1.1,1.6-1.7,2.8-1.7
					c1.1,0,2.1,0.7,2.4,1.8c0.3,0.7,0.3,1.6-0.1,2.3c-1.3,2.6-2.6,5.1-3.9,7.7c-0.6,1.1-1.8,1.7-3,1.5c-1.1-0.2-2-1-2.2-2.1
					C94.1,258.1,94.1,257.8,94.1,257.5z"/>
				<path class="st3" d="M159.8,54.8c0.2-1.7,0.5-3.6,0.8-5.5c0.1-0.9,0.3-1.9,0.4-2.8c0.2-1.5,1.6-2.6,3.1-2.5
					c1.6,0.2,2.7,1.6,2.5,3.1c0,0,0,0,0,0c-0.2,2.2-0.6,4.4-0.9,6.6c-0.1,0.6-0.2,1.3-0.3,1.9c-0.2,1.6-1.6,2.7-3.1,2.5
					c-1.6-0.2-2.7-1.6-2.5-3.1C159.7,55,159.8,54.9,159.8,54.8L159.8,54.8z"/>
				<path class="st3" d="M100.6,260.6c0.1-0.4,0.2-0.8,0.3-1.1c1.1-2.5,2.2-5.1,3.3-7.7c0.6-1.5,2.2-2.2,3.7-1.6
					c0.3,0.1,0.5,0.3,0.8,0.5c1,0.8,1.3,2.2,0.7,3.4c-0.7,1.8-1.5,3.5-2.3,5.3c-0.3,0.8-0.7,1.7-1.1,2.5c-0.5,1.1-1.7,1.8-2.9,1.7
					c-1.1-0.1-2.1-0.9-2.4-2C100.7,261.3,100.6,261,100.6,260.6z"/>
				<path class="st3" d="M51.9,219.9c0-0.9,0.4-1.8,1.2-2.3c2.4-1.6,4.8-3.3,7.3-4.8c1.3-0.8,3.1-0.4,3.9,0.9c0.8,1.4,0.4,3.1-0.9,4
					c0,0,0,0,0,0c-2,1.3-4,2.7-6,4c-0.4,0.3-0.9,0.6-1.3,0.8c-1.4,0.7-3.1,0.2-3.8-1.2C52,220.8,51.9,220.3,51.9,219.9z"/>
				<path class="st3" d="M229.6,97.8c-1.2-0.1-2.3-0.8-2.7-1.9c-0.4-1.2,0-2.5,1-3.3c1.6-1.2,3.2-2.4,4.8-3.6
					c0.7-0.5,1.4-1.1,2.1-1.5c0.9-0.7,2.1-0.7,3.1-0.1c0.9,0.5,1.5,1.5,1.4,2.6c0,0.8-0.4,1.6-1.1,2.1c-2.3,1.7-4.5,3.5-6.8,5.1
					C230.8,97.4,230.2,97.6,229.6,97.8z"/>
				<path class="st3" d="M73.9,70.5c0.8,0,1.6,0.3,2.2,0.9c1.9,2.2,3.9,4.4,5.7,6.6c1,1.2,0.8,2.9-0.4,3.9c-0.4,0.3-0.9,0.6-1.4,0.6
					c-1,0.2-2-0.2-2.6-1c-1.9-2.1-3.8-4.3-5.6-6.5c-0.8-0.9-0.9-2.1-0.4-3.1C71.9,71,72.8,70.4,73.9,70.5z"/>
				<path class="st3" d="M210.9,78.8c-1,0-1.8-0.6-2.2-1.5c-0.6-1-0.5-2.2,0.3-3.1c0.8-1,1.6-2,2.3-3c0.9-1.2,1.9-2.4,2.8-3.5
					c0.7-1,2.1-1.5,3.3-1.1c1.5,0.5,2.3,2.1,1.8,3.6c-0.1,0.3-0.3,0.7-0.5,0.9c-0.9,1.2-1.8,2.3-2.7,3.5l-2.3,3
					C212.9,78.4,211.9,78.9,210.9,78.8z"/>
				<path class="st3" d="M70.6,241.5c0-0.7,0.2-1.4,0.7-1.9c1.9-2.1,3.7-4.2,5.6-6.3c1-1.2,2.8-1.3,4-0.3c1.2,1,1.3,2.8,0.3,4
					c0,0,0,0,0,0c-1.9,2.2-3.8,4.3-5.8,6.4c-0.8,0.9-2.1,1.2-3.2,0.7C71.2,243.6,70.6,242.6,70.6,241.5z"/>
				<path class="st3" d="M244.4,130.9c0-1.3,0.9-2.4,2.1-2.7c2.8-0.8,5.6-1.5,8.4-2.3c1.5-0.3,2.9,0.6,3.3,2
					c0.4,1.5-0.6,3.1-2.1,3.5c-1.6,0.5-3.2,0.8-4.7,1.3c-1.2,0.3-2.4,0.7-3.6,0.9c-1.5,0.3-3-0.7-3.3-2.2
					C244.4,131.2,244.4,131,244.4,130.9z"/>
				<path class="st3" d="M44.7,145.3l-4.5-0.6l-3.8-0.5c-1.6-0.2-2.7-1.6-2.5-3.2c0.2-1.6,1.6-2.7,3.2-2.5c2.8,0.4,5.6,0.7,8.4,1.2
					c1.5,0.2,2.6,1.6,2.4,3.2c0,0,0,0,0,0C47.6,144.4,46.2,145.5,44.7,145.3z"/>
				<path class="st3" d="M182.2,62.9c-1.6,0-2.8-1.3-2.8-2.8c0-0.3,0.1-0.6,0.1-0.9c0.9-2.7,1.9-5.4,2.9-8.1
					c0.5-1.5,2.1-2.2,3.6-1.7c0,0,0,0,0,0c1.5,0.6,2.2,2.2,1.7,3.7c-0.9,2.6-1.9,5.3-2.8,7.9C184.6,62.1,183.4,62.9,182.2,62.9z"/>
				<path class="st3" d="M52.7,122.9c0,1.6-1.3,2.8-2.8,2.8c-0.3,0-0.6-0.1-0.9-0.2c-2.7-0.9-5.4-1.8-8.1-2.8
					c-1.5-0.5-2.3-2.1-1.7-3.6c0,0,0,0,0,0c0.6-1.5,2.2-2.2,3.7-1.7c0,0,0,0,0,0c2.6,0.9,5.2,1.8,7.8,2.8
					C51.9,120.5,52.7,121.6,52.7,122.9z"/>
				<path class="st3" d="M236.9,108.8c-1.2,0-2.3-0.8-2.7-1.9c-0.4-1.2,0-2.4,1-3.2c0.1-0.1,0.3-0.2,0.4-0.3
					c2.4-1.4,4.8-2.8,7.2-4.1c1.3-0.8,3.1-0.4,3.9,1c0.1,0.2,0.2,0.4,0.3,0.6c0.4,1.2-0.1,2.6-1.2,3.2c-2.5,1.5-5,2.9-7.6,4.3
					C237.8,108.6,237.4,108.7,236.9,108.8z"/>
				<path class="st3" d="M232.8,212.6c0.6,0.2,1.2,0.4,1.7,0.7c2.3,1.5,4.5,3.1,6.7,4.6c1,0.6,1.5,1.7,1.3,2.8
					c-0.1,1.1-0.9,2-1.9,2.3c-0.8,0.3-1.8,0.2-2.5-0.3c-2.4-1.6-4.7-3.2-7-4.8c-1.1-0.7-1.5-2.1-1.1-3.3
					C230.5,213.4,231.6,212.6,232.8,212.6z"/>
				<path class="st3" d="M223.5,241.6c0,1.1-0.7,2.1-1.7,2.6c-1.1,0.4-2.4,0.1-3.3-0.7c-0.4-0.5-0.9-1-1.3-1.5
					c-1.4-1.6-2.8-3.3-4.2-4.9c-1.1-1.1-1-2.9,0.1-4c0.3-0.3,0.7-0.5,1.2-0.7c1-0.3,2.2,0,2.9,0.8c1.9,2.2,3.8,4.3,5.6,6.5
					c0.3,0.6,0.6,1.2,0.8,1.8L223.5,241.6z"/>
				<path class="st3" d="M72.9,89c0,1.1-0.6,2.1-1.6,2.5C70.3,92,69,91.8,68.1,91c-1.3-1.1-2.5-2.2-3.8-3.4
					c-0.8-0.8-1.7-1.5-2.5-2.3c-0.8-0.7-1.1-1.9-0.7-2.9c0.3-1,1.2-1.8,2.2-1.9c0.9-0.2,1.7,0.1,2.4,0.7c2.1,1.9,4.2,3.7,6.3,5.6
					C72.6,87.4,72.9,88.2,72.9,89z"/>
				<path class="st3" d="M239.5,198.4c-0.1-1.6,1.1-3,2.7-3.1c0.5,0,1,0.1,1.4,0.3c2.5,1.1,5,2.1,7.5,3.2c0.9,0.3,1.5,1.1,1.8,2
					c0.3,1,0,2.1-0.9,2.8c-0.8,0.8-2.1,0.9-3.1,0.5c-2.1-0.9-4.3-1.8-6.4-2.8c-0.5-0.2-1-0.4-1.4-0.6
					C240.2,200.3,239.6,199.4,239.5,198.4z"/>
				<path class="st3" d="M220,227.8c0.8,0,1.6,0.3,2.2,0.9c2,2,3.9,4,5.9,6c1.1,1.1,1.1,2.9,0,4c-1.1,1.1-2.9,1.1-4,0
					c-2-2-4-4-6-6.1c-0.8-0.8-1-2.1-0.5-3.2C217.9,228.4,218.9,227.8,220,227.8z"/>
				<path class="st3" d="M250.2,147.3c-1.6,0.1-2.9-1-3-2.6c-0.1-1.5,1-2.9,2.5-3c2.8-0.4,5.5-0.8,8.3-1.1c1.5-0.2,3,0.8,3.3,2.4
					c0.2,1.6-0.8,3-2.4,3.3c0,0-0.1,0-0.1,0c-2.7,0.4-5.4,0.7-8.2,1.1L250.2,147.3z"/>
				<path class="st3" d="M47.4,132l-1.8-0.5c-2.2-0.6-4.4-1.2-6.6-1.8c-1.5-0.4-2.5-1.9-2.1-3.4c0.4-1.5,1.9-2.5,3.4-2.1
					c2.8,0.8,5.5,1.5,8.3,2.3c1.4,0.4,2.3,1.8,2,3.3C50.3,131.2,48.9,132.2,47.4,132z"/>
				<path class="st3" d="M216.1,83.1c-1.1,0-2.1-0.6-2.5-1.6c-0.5-1.1-0.3-2.3,0.5-3.2c1.6-1.9,3.3-3.7,5-5.5
					c0.2-0.3,0.4-0.5,0.7-0.8c1.1-1.2,2.8-1.3,4-0.2c1.2,1.1,1.3,2.8,0.2,4c-0.6,0.7-1.2,1.3-1.8,2l-3.8,4.2
					C217.9,82.7,217,83.1,216.1,83.1z"/>
				<path class="st3" d="M68.7,94.3c0,1-0.6,1.9-1.5,2.3c-1,0.5-2.3,0.4-3.2-0.4c-1.7-1.3-3.4-2.6-5-4c-0.6-0.4-1.2-0.9-1.8-1.4
					c-0.8-0.7-1.1-1.8-0.8-2.8c0.2-1,1-1.7,2-1.9c0.9-0.2,1.8-0.1,2.5,0.5c2.2,1.8,4.5,3.5,6.7,5.3C68.4,92.4,68.7,93.3,68.7,94.3z"
					/>
				<path class="st3" d="M38.3,131.2l3.5,0.7l4.9,1c1.6,0.3,2.6,1.7,2.4,3.3c-0.3,1.6-1.7,2.6-3.3,2.4c-0.1,0-0.2,0-0.2,0
					c-2.7-0.5-5.5-1.1-8.2-1.7c-1.5-0.3-2.4-1.7-2.2-3.2C35.4,132.1,36.8,131,38.3,131.2z"/>
				<path class="st3" d="M186.1,262.9c0.1,1.6-1.2,2.9-2.7,2.9c-1.2,0-2.4-0.7-2.8-1.9c-0.5-1.3-0.9-2.6-1.4-3.9s-0.9-2.7-1.4-4
					c-0.6-1.5,0.2-3.2,1.7-3.7c0.2-0.1,0.4-0.1,0.5-0.2c1.3-0.2,2.6,0.6,3.1,1.8c1,2.7,1.9,5.5,2.8,8.3
					C186,262.4,186,262.7,186.1,262.9z"/>
				<path class="st3" d="M242.8,120.8c-1.6,0-2.8-1.3-2.8-2.8c0-1.1,0.7-2.2,1.7-2.6c1.3-0.6,2.7-1.1,4-1.7c1.3-0.5,2.6-1.1,3.9-1.6
					c1.4-0.6,3.1,0,3.8,1.5c0.6,1.4,0,3.1-1.4,3.7c-2.7,1.2-5.4,2.3-8.1,3.3C243.5,120.7,243.2,120.8,242.8,120.8z"/>
				<path class="st3" d="M135.5,260.6c-0.2,1.7-0.5,3.6-0.8,5.5c-0.1,0.9-0.3,1.8-0.4,2.8c-0.2,1.6-1.7,2.7-3.3,2.4
					c-1.5-0.2-2.5-1.6-2.4-3.1c0.2-1.9,0.5-3.8,0.8-5.7c0.1-0.9,0.3-1.8,0.4-2.8c0.2-1.6,1.6-2.6,3.2-2.5
					C134.6,257.6,135.7,259,135.5,260.6z"/>
				<path class="st3" d="M55.2,116.4c0.1,1.6-1.1,2.9-2.7,3c-0.4,0-0.9-0.1-1.3-0.2c-1.6-0.7-3.2-1.4-4.8-2c-1-0.4-2-0.8-3-1.3
					c-1.1-0.5-1.8-1.6-1.7-2.9c0.1-1.2,1-2.2,2.2-2.4c0.6-0.1,1.2-0.1,1.8,0.1c2.6,1,5.2,2.2,7.7,3.3
					C54.4,114.4,55.1,115.3,55.2,116.4z"/>
				<path class="st3" d="M101.7,54.5c0-1.6,1.3-2.9,2.9-2.9c1.2,0,2.3,0.7,2.7,1.9c0.8,1.9,1.6,3.9,2.4,5.9c0.3,0.6,0.5,1.2,0.7,1.8
					c0.7,1.5,0,3.2-1.4,3.9c-1.5,0.6-3.1-0.1-3.8-1.5c0,0,0,0,0-0.1c-1.1-2.6-2.1-5.1-3.2-7.7C101.9,55.3,101.8,54.9,101.7,54.5z"/>
				<path class="st3" d="M218.1,84.9c0-0.8,0.3-1.6,0.9-2.1c2-2,4-4,6-5.9c1.1-1.1,2.9-1.1,4-0.1c0.3,0.3,0.6,0.7,0.7,1.2
					c0.3,1,0.1,2.1-0.7,2.9c-2,2-4,4-6.1,6c-0.8,0.9-2.2,1.1-3.2,0.5C218.7,87,218.1,86,218.1,84.9z"/>
				<path class="st3" d="M98.2,54.6c1,0.1,1.9,0.6,2.3,1.5c1.3,2.5,2.6,5.1,3.8,7.6c0.7,1.4,0.1,3.1-1.3,3.8
					c-1.4,0.7-3.1,0.1-3.8-1.3c-1.3-2.5-2.5-5-3.7-7.6c-0.7-1.4,0-3.1,1.4-3.8C97.3,54.7,97.7,54.6,98.2,54.6z"/>
				<path class="st3" d="M205.6,74.9c-1,0-1.8-0.6-2.3-1.4c-0.5-0.9-0.5-2.1,0.1-3c1-1.5,2-3,3.1-4.4c0.6-0.8,1.1-1.7,1.8-2.5
					c0.6-0.9,1.8-1.4,2.9-1.2c1,0.2,1.8,0.9,2.1,1.9c0.3,0.8,0.2,1.8-0.3,2.5c-1.6,2.3-3.2,4.7-4.9,7
					C207.6,74.5,206.6,75,205.6,74.9z"/>
				<path class="st3" d="M79.5,66c0.8,0,1.6,0.3,2.1,0.9c1.8,2.4,3.7,4.7,5.4,7.2c0.9,1.3,0.5,3-0.7,3.9c-0.2,0.2-0.5,0.3-0.8,0.4
					c-1.2,0.3-2.6-0.1-3.3-1.2c-1.6-2.1-3.3-4.3-4.9-6.4c-0.3-0.4-0.5-0.9-0.6-1.4c-0.3-1.5,0.6-2.9,2.1-3.2
					C79.1,66,79.3,66,79.5,66z"/>
				<path class="st3" d="M249.3,140.4c-1.8,0-3.1-1-3.3-2.3c-0.2-1.5,0.7-2.9,2.2-3.2c2.9-0.6,5.7-1.2,8.6-1.7
					c1.4-0.2,2.8,0.8,3.2,2.2c0.3,1.5-0.6,3-2,3.4c-1.7,0.4-3.4,0.7-5.1,1C251.5,139.9,250.2,140.2,249.3,140.4z"/>
				<path class="st3" d="M231,234.4c-0.7,0-1.5-0.3-2-0.8c-2.1-1.9-4.2-3.7-6.2-5.6c-0.9-0.7-1.2-1.9-0.8-3c0.3-1.1,1.2-1.8,2.3-1.9
					c0.8-0.1,1.7,0.1,2.3,0.7c2.2,1.9,4.3,3.8,6.4,5.7c0.9,0.8,1.2,2.1,0.7,3.2C233.2,233.7,232.1,234.4,231,234.4z"/>
				<path class="st3" d="M152.9,54c0.2-2.7,0.4-5.4,0.6-8c0.1-1.5,1.4-2.7,2.9-2.7c1.6,0.1,2.8,1.4,2.7,3c0,0,0,0,0,0
					c-0.1,2.9-0.3,5.7-0.6,8.6c-0.1,1.5-1.4,2.7-2.9,2.7c-0.1,0-0.2,0-0.3,0c-1.5-0.2-2.6-1.6-2.5-3.1
					C152.9,54.2,152.9,54.1,152.9,54L152.9,54z"/>
				<path class="st3" d="M38.5,182.3c-1.5,0.2-2.9-0.9-3.2-2.3c-0.2-1.5,0.7-2.9,2.2-3.2c2.8-0.6,5.7-1.2,8.6-1.7
					c1.5-0.2,2.8,0.7,3.2,2.1c0.4,1.5-0.6,3-2.1,3.4c-1.7,0.4-3.4,0.7-5.2,1L38.5,182.3z"/>
				<path class="st3" d="M47.9,181.7c1.6-0.1,2.9,1.1,3,2.7c0.1,1.4-0.8,2.6-2.2,2.9c-1.9,0.5-3.8,1-5.6,1.5l-2.3,0.6
					c-1.5,0.5-3.2-0.4-3.7-1.9c-0.4-1.5,0.5-3.1,2.1-3.6c0,0,0.1,0,0.1,0c2.7-0.8,5.4-1.5,8.1-2.2C47.5,181.8,47.7,181.7,47.9,181.7
					z"/>
				<path class="st3" d="M41.7,200.4c0.1-1.1,0.8-2,1.8-2.3c2.6-1.1,5.3-2.2,7.9-3.3c1.5-0.6,3.1,0.2,3.7,1.6
					c0.6,1.5-0.2,3.1-1.6,3.7c-2.3,1-4.6,1.9-7,2.9c-0.5,0.2-1,0.4-1.5,0.5c-1.6,0.2-3-0.8-3.3-2.4
					C41.7,200.8,41.7,200.6,41.7,200.4z"/>
				<path class="st3" d="M90,74.6c-0.9-0.1-1.8-0.6-2.3-1.3c-1.6-2.3-3.1-4.7-4.6-7c-0.9-1.3-0.5-3,0.7-3.9c1.3-0.9,3-0.6,3.9,0.7
					c0,0,0,0,0,0c1.7,2.4,3.3,4.8,4.8,7.3c0.8,1.3,0.4,3.1-1,3.9C91.1,74.5,90.5,74.6,90,74.6z"/>
				<path class="st3" d="M98.7,68.3c-0.1,1.2-0.9,2.3-2.1,2.7c-1.2,0.4-2.6-0.2-3.2-1.3c-1.5-2.5-2.9-5-4.3-7.5
					c-0.7-1.4-0.2-3.1,1.1-3.8c1.3-0.7,3-0.3,3.8,1c1.5,2.5,2.9,5,4.3,7.5C98.5,67.3,98.6,67.8,98.7,68.3z"/>
				<path class="st3" d="M77.5,84.3c0,1.1-0.6,2.1-1.7,2.5c-1.1,0.5-2.4,0.3-3.2-0.6c-1.3-1.2-2.5-2.5-3.7-3.8
					c-0.8-0.8-1.5-1.5-2.3-2.4c-0.8-0.8-1-1.9-0.6-2.9c0.3-1,1.2-1.7,2.2-1.8c0.9-0.2,1.8,0.1,2.4,0.8c2,2,4,4,6,6.1
					C77.2,82.8,77.5,83.5,77.5,84.3z"/>
				<path class="st3" d="M231.9,81.3c1.1,0,2.2,0.7,2.6,1.7c0.5,1.1,0.1,2.4-0.8,3.2c-1.2,1.1-2.4,2.1-3.6,3.1
					c-1,0.8-1.9,1.7-2.9,2.5c-1.2,1-3,0.9-4-0.3c-0.3-0.3-0.5-0.7-0.6-1.2c-0.3-1,0-2.1,0.8-2.8c2.2-1.9,4.3-3.8,6.6-5.6
					c0.6-0.3,1.1-0.6,1.8-0.8L231.9,81.3z"/>
				<path class="st3" d="M256.6,183.7l-3.7-0.8c-1.6-0.3-3.3-0.7-5-1c-1.6-0.3-2.6-1.8-2.3-3.4c0,0,0,0,0,0c0.4-1.5,1.9-2.4,3.5-2.1
					c2.7,0.5,5.4,1.1,8.1,1.7c1.3,0.2,2.3,1.4,2.4,2.7c0.1,1.3-0.8,2.5-2.1,2.8C257.2,183.6,256.9,183.6,256.6,183.7z"/>
				<path class="st3" d="M130.4,47c-0.1-1.5,1-2.8,2.4-3c1.5-0.2,3,0.9,3.2,2.4c0,0,0,0,0,0c0.4,2.8,0.8,5.5,1.1,8.3
					c0.2,1.6-0.8,3-2.4,3.3c-1.6,0.2-3-0.8-3.3-2.4c0,0,0-0.1,0-0.1c-0.4-2.8-0.8-5.6-1.1-8.5C130.4,47.1,130.4,47.1,130.4,47z"/>
				<path class="st3" d="M127.5,59.2c-1.4,0-2.5-0.9-2.8-2.3c-0.5-2.2-0.9-4.5-1.4-6.7c-0.2-0.7-0.3-1.4-0.3-2.1
					c-0.1-1.5,1-2.8,2.4-3c1.4-0.2,2.8,0.8,3.1,2.2c0.6,2.9,1.2,5.7,1.7,8.6c0.3,1.5-0.8,3-2.3,3.3
					C127.8,59.2,127.7,59.2,127.5,59.2z"/>
				<path class="st3" d="M204.2,58.4c2.7,0,3.9,2.4,2.8,4.4c-0.7,1.3-1.5,2.6-2.3,3.8c-0.7,1.1-1.3,2.2-2,3.3
					c-0.7,1.1-1.9,1.6-3.1,1.4c-1.5-0.3-2.5-1.8-2.1-3.4c0.1-0.3,0.2-0.5,0.3-0.8c1.4-2.5,2.9-5,4.5-7.5
					C202.6,59,203.4,58.5,204.2,58.4z"/>
				<path class="st3" d="M185.6,62.5c0.1-0.4,0.2-0.8,0.4-1.3c1-2.5,2.1-5,3.2-7.5c0.5-1.5,2.2-2.3,3.7-1.7c0.4,0.2,0.8,0.4,1.1,0.7
					c0.8,0.8,1,2,0.5,3c-1.1,2.6-2.2,5.2-3.4,7.8c-0.6,1.3-2,2-3.3,1.6C186.5,64.8,185.6,63.7,185.6,62.5z"/>
				<path class="st3" d="M77.2,230.5c0,0.8-0.3,1.5-0.8,2.1c-2,2-4,4-6.1,5.9c-1,1.2-2.8,1.4-4,0.4c-1.2-1-1.4-2.8-0.4-4
					c0.1-0.1,0.2-0.3,0.4-0.4c2-2,4-4,6.1-5.9c0.8-0.9,2.1-1.1,3.2-0.5C76.6,228.5,77.2,229.4,77.2,230.5z"/>
				<path class="st3" d="M214.3,135.2c1.1,0,2,0.9,2.1,2c0,1.1-0.9,2-2.1,2s-2.1-0.9-2.1-2C212.3,136.1,213.2,135.2,214.3,135.2z"/>
				<path class="st3" d="M121.2,204.6c0,1.1-0.9,2.1-2,2.1c-1.1,0-2.1-0.9-2.1-2c0,0,0,0,0,0c0-1.1,0.9-2,2.1-2
					C120.3,202.5,121.2,203.4,121.2,204.6z"/>
				<path class="st3" d="M175.9,205.9c-1.1,0-2-1-1.9-2.1c0-1.1,1-2,2.1-1.9c1.1,0,1.9,0.9,1.9,2C177.9,205,177,205.9,175.9,205.9z"
					/>
				<path class="st3" d="M239.4,178.5c0,1.1-0.9,2-2.1,2s-2.1-0.9-2.1-2c0-1.1,0.8-2,1.9-2.1c0,0,0.1,0,0.1,0
					C238.5,176.5,239.4,177.4,239.4,178.5z"/>
				<path class="st3" d="M59,180.8c0,1.1-0.9,2-2,2.1c-1.1,0-2.1-0.9-2.1-2.1c0-1.1,0.9-2,2-2C58.1,178.8,59,179.7,59,180.8z"/>
				<path class="st3" d="M78.6,223.2c0-1.1,0.9-2,2-2c1.1,0,2,0.8,2,1.9c0,0,0,0,0,0.1c0,1.1-0.9,2.1-2.1,2.1
					C79.5,225.2,78.6,224.3,78.6,223.2z"/>
				<path class="st3" d="M91.7,158.9c-1.1,0-2-0.9-2-2.1c0-1.1,0.9-2,2-2c1.1,0,2.1,0.9,2.1,2C93.7,158,92.8,158.9,91.7,158.9
					C91.7,158.9,91.7,158.9,91.7,158.9z"/>
				<path class="st3" d="M189.6,223.2c0,1.1-0.9,2-2,2c-1.1,0-2-0.9-2-2c0-1.1,0.9-2,2-2C188.7,221.1,189.6,222,189.6,223.2
					C189.6,223.1,189.6,223.1,189.6,223.2z"/>
				<path class="st3" d="M214.5,221c0-1.1,0.9-2,2-2c1.1,0,2,0.8,2,1.9c0,0,0,0,0,0.1c0,1.1-0.9,2.1-2.1,2.1
					C215.3,223.1,214.4,222.1,214.5,221C214.5,221,214.5,221,214.5,221z"/>
				<path class="st3" d="M165.6,225.1c-1.1,0-2-0.9-2-2c0-1.1,1-2,2.1-2c1.1,0,2,0.9,2,2c0,0,0,0.1,0,0.1
					C167.6,224.3,166.7,225.1,165.6,225.1z"/>
				<path class="st3" d="M77.8,173c1.1,0,2,0.9,2,2c0,1.1-0.9,2-2,2c-1.1,0-2.1-0.9-2.1-2c0,0,0,0,0,0C75.8,173.9,76.7,173,77.8,173
					C77.8,173,77.8,173,77.8,173z"/>
				<path class="st3" d="M195.8,126.2c1.1,0,2,1,1.9,2.1c0,1.1-1,2-2.1,1.9c-1.1,0-1.9-0.9-1.9-2
					C193.7,127.1,194.6,126.2,195.8,126.2C195.8,126.2,195.8,126.2,195.8,126.2z"/>
				<path class="st3" d="M129.2,222.3c1.1,0,2,0.9,2,2c-0.1,1.1-0.9,2-2.1,2c-1.1,0-2.1-0.9-2.1-2.1c0,0,0,0,0,0
					C127.1,223.1,128.1,222.3,129.2,222.3C129.2,222.3,129.2,222.3,129.2,222.3z"/>
				<path class="st3" d="M165.5,89.5c0,1.1-0.9,2-2,2c-1.1,0-2-0.9-2.1-2c0-1.1,0.9-2.1,2.1-2c0,0,0,0,0,0
					C164.7,87.4,165.5,88.3,165.5,89.5C165.5,89.4,165.5,89.5,165.5,89.5z"/>
				<path class="st3" d="M185.2,87c1.1,0,2,0.9,2,2c0,0,0,0,0,0.1c0,1.1-0.9,2-2,2c-1.1,0-2-0.9-2.1-2c0-1.1,0.8-2,1.9-2
					C185.1,87,185.2,87,185.2,87z"/>
				<path class="st3" d="M129.5,89.4c0,1.1-0.9,2-2,2c-1.1,0-2-0.8-2.1-1.9c0,0,0-0.1,0-0.1c0-1.1,1-2,2.1-2
					C128.6,87.3,129.5,88.2,129.5,89.4C129.5,89.4,129.5,89.4,129.5,89.4z"/>
				<path class="st3" d="M96,204.3c1.1,0,2,0.9,2,2s-0.9,2-2,2s-2-0.9-2-2S94.9,204.3,96,204.3z"/>
				<path class="st3" d="M216.4,192.3c1.1,0,2,0.9,2,2c0,1.1-0.9,2-2.1,2s-2.1-0.9-2.1-2c0-1.1,0.9-2,2-2
					C216.3,192.3,216.4,192.3,216.4,192.3z"/>
				<path class="st3" d="M195.9,185.4c-1.1,0-2-0.9-2-2c0-1.1,0.9-2,2-2c1.1,0,2.1,0.9,2.1,2.1l0,0
					C197.9,184.5,197,185.4,195.9,185.4C195.9,185.4,195.9,185.4,195.9,185.4z"/>
				<path class="st3" d="M173.7,246.9c-1.1,0-2-0.9-2-2s0.9-2,2-2s2,0.9,2,2C175.6,246,174.7,246.8,173.7,246.9z"/>
				<path class="st3" d="M80.6,93.6c-1.1,0-2-0.9-2-2s0.9-2,2-2s2,0.9,2,2S81.7,93.6,80.6,93.6z"/>
				<path class="st3" d="M80.6,138.8c0,1.1-0.8,2-1.9,2.1c0,0,0,0-0.1,0c-1.1,0-2.1-0.9-2.1-2c0-1.1,0.9-2.1,2-2.1c0,0,0,0,0,0
					C79.7,136.7,80.6,137.6,80.6,138.8C80.6,138.7,80.6,138.7,80.6,138.8z"/>
				<path class="st3" d="M95.9,104.9c1.1,0,2,0.9,2,2s-0.9,2-2,2c-1.1,0-2.1-0.9-2.1-2c0,0,0,0,0,0
					C93.8,105.8,94.7,104.9,95.9,104.9C95.9,104.9,95.9,104.9,95.9,104.9z"/>
				<path class="st3" d="M145.4,212.8c0-1.1,0.9-2,2-2s2,0.9,2,2s-0.9,2-2,2S145.4,213.9,145.4,212.8z"/>
				<path class="st3" d="M125.2,246.1c0,1.1-0.8,2-1.9,2c0,0,0,0-0.1,0c-1.1,0-2-0.9-2-2c0-1.1,0.9-2,2-2
					C124.3,244.1,125.2,245,125.2,246.1C125.2,246.1,125.2,246.1,125.2,246.1z"/>
				<path class="st3" d="M106.2,91.8c-1.1,0-2-0.9-2-2s0.9-2,2-2s2,0.9,2,2S107.3,91.8,106.2,91.8z"/>
				<path class="st3" d="M145,75c1.1,0,2,0.9,2,2s-0.9,2-2,2s-2-0.9-2-2S143.9,75,145,75z"/>
				<path class="st3" d="M98,182.4c1.1,0,2,0.9,2,2c0,1.1-0.9,2-2.1,2c-1.1,0-2-0.9-2-2c0-1.1,0.9-2,2-2C98,182.4,98,182.4,98,182.4
					z"/>
				<path class="st3" d="M107.9,226.6c-1.1,0-2-0.9-2-2c0-1.1,0.9-2,2-2s2,0.9,2,2C109.9,225.7,109,226.6,107.9,226.6z"/>
				<path class="st3" d="M78.9,120.9c-1.1,0-2-0.9-2-2c0-1.1,0.8-2,1.9-2.1c0,0,0.1,0,0.1,0c1.1,0,2,0.9,2,2
					C81,120,80.1,120.9,78.9,120.9C79,120.9,79,120.9,78.9,120.9z"/>
				<path class="st3" d="M214.7,174.9c-1.1,0-2-0.9-2-2c0-1.1,0.9-2,2-2s2,0.9,2,2C216.7,174,215.8,174.9,214.7,174.9z"/>
				<path class="st3" d="M80.5,196.9c0,1.1-0.9,2-2,2c-1.1,0-2-0.9-2-2c0-1.1,0.9-2,2-2C79.5,194.8,80.5,195.7,80.5,196.9
					C80.5,196.8,80.5,196.9,80.5,196.9z"/>
				<path class="st3" d="M198,106.4c0,1.1-0.9,2-2,2c-1.1,0-2.1-0.9-2.1-2c0-1.1,0.9-2,2-2c0,0,0,0,0.1,0
					C197,104.4,197.9,105.2,198,106.4C198,106.4,198,106.4,198,106.4z"/>
				<path class="st3" d="M205.3,155.5c0,1.1-0.9,2-2,2c-1.1,0-2-0.9-2-2c0-1.1,0.9-2,2-2C204.4,153.5,205.3,154.4,205.3,155.5
					C205.3,155.5,205.3,155.5,205.3,155.5z"/>
				<path class="st3" d="M233.2,130.5c0-1.1,0.9-2,2-2s2,0.9,2,2s-0.9,2-2,2S233.2,131.6,233.2,130.5z"/>
				<path class="st3" d="M60,133.2c0,1.1-1,2-2.1,1.9s-2-1-1.9-2.1c0-1.1,0.9-1.9,2-1.9C59.1,131.1,60,132,60,133.2
					C60,133.1,60,133.1,60,133.2z"/>
				<path class="st3" d="M211,93.5c-1.1,0-2-0.9-2-2s0.9-2,2-2s2,0.9,2,2S212.1,93.5,211,93.5z"/>
				<path class="st3" d="M66.7,157c0-1.1,0.9-2,2-2c0,0,0.1,0,0.1,0c1.1,0,2,1,2,2.1c0,1.1-1,2-2.1,2
					C67.6,159.1,66.7,158.2,66.7,157C66.7,157.1,66.7,157.1,66.7,157z"/>
				<path class="st3" d="M225.7,157c-1.1,0-2-0.9-2-2c-0.1-1.1,0.8-2.1,1.9-2.2c1.1-0.1,2.1,0.8,2.2,1.9c0,0.1,0,0.2,0,0.3
					c0,1.1-0.9,2-2,2C225.8,157,225.7,157,225.7,157z"/>
				<path class="st3" d="M199.7,204.1c0,1.1-0.9,2-2,2s-2-0.9-2-2c0-1.1,0.9-2,2-2c0,0,0,0,0.1,0C198.8,202.1,199.7,203,199.7,204.1
					z"/>
				<path class="st3" d="M122.4,71c-1.1,0-2-0.8-2.1-1.9c0,0,0,0,0-0.1c0-1.1,0.9-2,2-2.1s2,0.9,2.1,2C124.4,70.1,123.6,71,122.4,71
					C122.4,71,122.4,71,122.4,71z"/>
				<path class="st3" d="M96.3,129.2c0-1.1,0.9-2,2-2s2,0.9,2,2c0,1.1-0.9,2-2,2C97.2,131.2,96.3,130.4,96.3,129.2
					C96.3,129.3,96.3,129.2,96.3,129.2z"/>
				<path class="st3" d="M150.2,233.7c0,1.1-0.9,2-2,2.1s-2-0.9-2.1-2l0,0c0-1.1,0.9-2,2-2.1S150.2,232.6,150.2,233.7z"/>
				<path class="st3" d="M171.3,68.3c0,1.1-0.9,2-2,2s-2-0.9-2-2s0.9-2,2-2S171.3,67.2,171.3,68.3z"/>
				<path class="st3" d="M143.4,168.3c-1.2-2.7-2.4-5.3-3.5-7.8c-0.4-1-0.9-2-1.3-3c-0.1-0.2-0.2-0.3-0.4-0.4c-1.1,0-2.3,0-3.4,0
					v11.1h-5.2v-25.3h0.7c3.4,0,6.8,0,10.1,0c0.5,0,1.1,0.1,1.5,0.5c1.7,1.1,3.1,2.8,3.7,4.7c0.7,2.3,0,4.8-1.7,6.5
					c-0.4,0.4-0.5,1-0.2,1.5c1.5,3.2,2.9,6.4,4.3,9.6c0.1,0.2,0.1,0.3,0.2,0.5L143.4,168.3z M134.7,151.9c1.2,0,2.3-0.1,3.4,0
					c0.9,0.1,1.7-0.3,2.1-1.1c0.4-0.5,0.5-1.2,0.2-1.7c-0.4-0.6-0.7-1.2-1.6-1.1c-0.8,0-1.5,0-2.3,0h-1.8L134.7,151.9z"/>
				<path class="st3" d="M109.1,156.4c0-1.7,0-3.5,0-5.2c0.3-4.9,4.6-8.6,9.4-8.3c4.7,0.3,8.3,4.2,8.3,8.9c0,3,0,6.1,0,9.1
					c0.1,4.4-3,8.1-7.3,8.9c-4.8,0.9-9.3-2.2-10.3-7c0-0.1,0-0.2,0-0.3c-0.2-1.9-0.2-3.9-0.2-5.8L109.1,156.4L109.1,156.4z
					 M121.6,156.4L121.6,156.4c0-1.3,0-2.5,0-3.8c0-0.6,0-1.2-0.1-1.8c-0.4-2-2.4-3.3-4.4-2.8c-1.7,0.4-2.9,1.9-2.9,3.6
					c0,3.2,0,6.3,0,9.5c0,0.4,0.1,0.8,0.2,1.2c0.6,1.9,2.7,3,4.6,2.4c1.5-0.5,2.5-1.8,2.6-3.4C121.7,159.7,121.6,158,121.6,156.4
					L121.6,156.4z"/>
				<path class="st3" d="M185.1,155.9c0,1.8,0.1,3.7,0,5.5c-0.4,4.9-4.6,8.5-9.5,8.1c-3.9-0.3-7.1-3.1-7.9-6.9
					c-0.1-0.6-0.2-1.2-0.2-1.9c0-3.4-0.1-6.8,0-10.2c0.3-4.9,4.4-8.6,9.3-8.4c4,0.2,7.3,3,8.2,6.9c0.2,0.8,0.3,1.7,0.2,2.5
					C185.2,153.1,185.2,154.5,185.1,155.9L185.1,155.9z M180,155.9c0-1.6,0-3.2,0-4.8c0.1-2-1.5-3.8-3.5-3.9c-2-0.1-3.8,1.5-3.9,3.5
					c0,0.1,0,0.3,0,0.4c0,3.2,0,6.3,0,9.5c-0.1,2,1.5,3.8,3.5,3.9c2,0.1,3.8-1.5,3.9-3.5c0-0.1,0-0.3,0-0.4
					C180,159.1,180,157.5,180,155.9L180,155.9z"/>
				<path class="st3" d="M148.6,142.5h15.2v5.2h-10v4.8h7.8v5.2h-7.8v5.9h9.9v5.2h-15L148.6,142.5z"/>
				<path class="st3" d="M138,173.1c0.9,0.2,1.8,0.3,2.6,0.5c2.7,0.3,5.3,0.4,8,0.2c2.7-0.2,5.4-0.6,8.1-0.9
					c0.8-0.2,1.7-0.1,2.5,0.3c0.3,0.2,0.6,0.5,0.7,0.8c-0.1,0.4-0.3,0.7-0.6,0.8c-2.9,1.6-5.7,3.2-8.6,4.7c-1.9,1-4.1,1-6,0.1
					c-2.8-1.3-5.6-2.8-8.4-4.1c-0.4-0.2-0.9-0.5-0.8-1c0.1-0.5,0.5-0.9,0.9-1C136.9,173.3,137.4,173.2,138,173.1z"/>
				<path class="st3" d="M147.2,132.7c1.2,0,2.3,0.3,3.3,0.8c2.6,1.4,5.2,2.8,7.8,4.2c0.5,0.3,1,0.5,1,1.1s-0.6,0.9-1.2,1.1
					c-0.9,0.2-1.9,0.2-2.8,0c-1.6-0.3-3.1-0.5-4.7-0.7c-3.5-0.3-6.9-0.2-10.4,0.2c-1,0.1-2,0.3-3.1,0.3c-0.6,0-1.2-0.2-1.7-0.4
					c-0.8-0.4-0.8-1.2,0-1.6c2.9-1.5,5.9-3,8.8-4.4c0.9-0.3,1.9-0.6,2.9-0.8C147.2,132.6,147.2,132.7,147.2,132.7z"/>
			</g>
		</g>
		<path class="st0" d="M211.1,139.2c1.2-1.9,6.9-10.9,9.6-10.5s9,2.3,7.7,5.3s-0.1,3.1-2,5.3s-4.2,4-5.3,3.4s-4.1,1.4-5.1,0.1
			S211.1,139.2,211.1,139.2z"/>
		<path class="st0" d="M250.5,71.5c0,0,8.4-13.5,9.5-15.3s13.2-5.3,13.2-5.3s5.2,5.2,6.1,7.1s0.8,4.6,0.7,7
			c-0.1,2.4-3.7,3.7-5.6,4.2c-2.4,0.6-4.8,0.8-7.3,0.7c-1-0.2-2.5,1.8-4,0.6s-6,3.7-7.3,4.1C254.5,75.1,248.8,74.2,250.5,71.5z"/>
		<path class="st0" d="M251.4,125.4c0,0,9.6,4.3,11.3,7.7s3.4,11.7,3,12.7s-2.3-0.3-4.3,0s-7-0.3-7.3-2.3s-1.3-6.3-2.7-7.6
			s-1.3-5.7-1.7-7C249.4,127.4,249,124.2,251.4,125.4z"/>
		<path class="st0" d="M214.7,179.7c1.3-1.7,9.4-8.2,10.7-6.7s6.3,5.3,6.3,6.7s0.5,5.5-3.2,5.3s-6.3,7.1-8.7,3.6
			C217.9,185.7,216.2,182.8,214.7,179.7z"/>
		<path class="st0" d="M284.7,187c0,0-3.3-14.3-4.3-17s-2.3-9.7,0-10.3s6.3,0.3,8,2.7s2.7,5.7,5,7.3s4.3,1.1,6.3,3.6s4,2.4,4.3,4.8
			s-0.3,6.7,0,7.7s0,1.5-1,3.9c-1,2.5-2.2,4.9-3.7,7.1C298.4,198,284.7,187,284.7,187z"/>
		<path class="st0" d="M252.3,224.4c0,0,1.6-8.7,2.2-9s6.4,0.7,8.2,2s6.4,4,6.8,7s0.3,8.7-1.7,9.3s-2.5,2-5.1,2.3s-7.1,0-8.2-2.3
			S252.3,224.4,252.3,224.4z"/>
		<path class="st1" d="M249.7,187c-0.3-3.7,4.2-6,4.8-2.7s5.9,3.8,1.3,5.2C251,191,249.7,187,249.7,187z"/>
		<path class="st4" d="M279.1,96c0,0,7.6-6.7,10.6-7.3s11.7-2,12.7,2s3.7,7.7,3.3,11s-6.3,11-6.3,11s-1.3,3.3-3.7,2.3s-5.3-4-7-4.3
			s-1-0.3-8,0.3s-7.3-0.7-10-0.7s-8.7,0.7-11.7,0s-2.2-0.7-1.4-4s6.4-6.7,6.8-7.7s2.6-2.7,3.3-4.3s5.3-6.4,5.3-6.4
			S279.1,85.7,279.1,96z"/>
	</g>
</g>
</svg>
