<svg id="Capa_1" enable-background="new 0 0 512 512" height="512" viewBox="0 0 512 512" width="512" xmlns="http://www.w3.org/2000/svg"><g><g><path d="m226 0h-15v45h15 15v-45z" fill="#fabe2c"/><path d="m226 0h15v45h-15z" fill="#ff9100"/><path d="m226 437h-75c0 41.353 33.647 75 75 75s75-33.647 75-75z" fill="#fabe2c"/><path d="m301 437h-75v75c41.353 0 75-33.647 75-75z" fill="#ff9100"/><path d="m401.605 381.395c-6.84-6.841-10.605-15.938-10.605-25.606v-160.789c0-90.981-74.019-165-165-165s-165 74.019-165 165v160.789c0 9.668-3.765 18.765-10.605 25.605-12.51 12.51-19.395 29.136-19.395 46.817v23.789h195 195v-23.789c0-17.681-6.885-34.307-19.395-46.816z" fill="#fed843"/><path d="m421 428.211c0-17.681-6.885-34.307-19.395-46.816-6.84-6.841-10.605-15.938-10.605-25.606v-160.789c0-90.981-74.019-165-165-165v422h195z" fill="#fabe2c"/></g><g><circle cx="376" cy="105" fill="#f67e00" r="105"/><path d="m481 105c0-57.99-47.01-105-105-105v210c57.99 0 105-47.01 105-105z" fill="#ff4b00"/><path d="m376 60h-30v30h15v60h15 15v-90z" fill="#f0f7ff"/><path d="m376 60h15v90h-15z" fill="#dfe7f4"/></g></g></svg>