<svg id="Capa_1" data-name="Capa 1" xmlns="http://www.w3.org/2000/svg" viewBox="0 0 1064.87 1064.52"><defs><style>.cls-1{fill:#fff;}</style></defs><title>emoji</title><path class="cls-1" d="M1021.32,563.73a492.47,492.47,0,0,1-7.86,61.34c-18,92.07-58.58,172.82-122.8,241q-129.09,137.14-317.25,154.34c-5,.45-10.17-.34-15,1.7h-54c-4.46-2-9.32-1.39-14-1.78A480.06,480.06,0,0,1,362.4,991.8c-80.69-30.11-149.11-78-204.5-143.93Q58.09,729.06,44.3,574.19c-.38-4.3-3.62-19.29-.77-74.41a485.27,485.27,0,0,1,14.6-90.5C84.81,308.29,138,223.87,218,156.79,296.81,90.66,387.91,53.33,490.49,44.13c4.31-.38,8.86.4,12.94-1.78h55c.48,1.32,1.63.83,2.54.91,8,.67,15.93,1.17,23.88,2A477.28,477.28,0,0,1,736,86.55C896,159.8,1006.3,314.49,1020.64,491.32,1023.57,534.6,1022.43,544.17,1021.32,563.73ZM532.76,85.47C286.68,84.94,86.24,285,85.65,531.65,85.06,778,285.1,978.48,532.06,979c246,.56,446.47-199.45,447.14-446.2C979.87,286.54,779.76,86,532.76,85.47Z"/><path class="cls-1" d="M532.43,600.12q131,0,261.9-.12c4.84,0,6,1.11,5.85,6-3.37,119.72-82.68,221.68-198.7,252.56C453.05,898,307.56,806.75,272.42,663.74c-4.7-19.16-6.89-38.61-7.77-58.29-.2-4.45,1-5.44,5.38-5.44Q401.24,600.23,532.43,600.12Z"/><path class="cls-1" d="M424.92,395.91c-.14,44.26-36,80.09-80.06,80-44.28-.07-80.39-36.35-80.15-80.53s36.37-79.95,80.4-79.76A80.16,80.16,0,0,1,424.92,395.91Z"/><path class="cls-1" d="M639.94,395.59c.16-44.24,36.09-80.09,80.12-79.95,44.34.13,80.4,36.42,80.08,80.58s-36.54,80-80.47,79.71A80.19,80.19,0,0,1,639.94,395.59Z"/></svg>